<?xml version="1.0" encoding="UTF-8"?>
<svg xmlns="http://www.w3.org/2000/svg" xmlns:xlink="http://www.w3.org/1999/xlink" width="160px" height="160px" viewBox="0 0 160 33" version="1.1">
<g id="surface1">
<path style=" stroke:none;fill-rule:nonzero;fill:rgb(0%,0%,0%);fill-opacity:1;" d="M 59.226562 31.125 C 58.84375 32.296875 58.78125 32.519531 60.109375 32.519531 C 61.363281 32.519531 61.832031 32.46875 62.5 31.414062 C 62.605469 31.382812 62.714844 31.414062 62.738281 31.476562 C 62.550781 31.96875 62.316406 32.4375 62.035156 32.882812 C 61.632812 32.882812 61.195312 32.863281 60.757812 32.863281 C 60.324219 32.863281 59.898438 32.863281 59.519531 32.863281 L 58.257812 32.863281 C 57.8125 32.863281 57.453125 32.863281 57.105469 32.894531 C 57.066406 32.859375 57.042969 32.8125 57.042969 32.761719 C 57.042969 32.707031 57.066406 32.660156 57.105469 32.625 L 57.367188 32.59375 C 57.890625 32.515625 58 32.410156 58.351562 31.324219 L 59.625 27.359375 C 59.953125 26.359375 59.976562 26.1875 59.378906 26.101562 L 59.113281 26.058594 C 59.078125 26.015625 59.0625 25.960938 59.078125 25.90625 C 59.089844 25.855469 59.128906 25.8125 59.179688 25.792969 C 59.605469 25.792969 59.976562 25.820312 60.421875 25.820312 C 60.867188 25.820312 61.230469 25.800781 61.796875 25.792969 C 61.839844 25.824219 61.863281 25.871094 61.863281 25.925781 C 61.863281 25.976562 61.839844 26.027344 61.796875 26.058594 L 61.445312 26.101562 C 60.824219 26.179688 60.769531 26.304688 60.433594 27.359375 Z M 59.226562 31.125 "/>
<path style=" stroke:none;fill-rule:nonzero;fill:rgb(0%,0%,0%);fill-opacity:1;" d="M 65.757812 29.347656 C 65.414062 29.714844 65.140625 30.136719 64.949219 30.597656 C 65.5 30.46875 66.003906 30.195312 66.410156 29.808594 C 66.636719 29.625 66.789062 29.367188 66.835938 29.085938 C 66.839844 29.019531 66.816406 28.953125 66.769531 28.90625 C 66.71875 28.859375 66.652344 28.835938 66.582031 28.84375 C 66.433594 28.84375 66.148438 28.9375 65.757812 29.351562 M 67.488281 29.152344 C 67.488281 29.960938 66.410156 30.496094 64.839844 30.917969 C 64.730469 31.222656 64.679688 31.542969 64.6875 31.867188 C 64.667969 32.015625 64.714844 32.164062 64.8125 32.277344 C 64.914062 32.394531 65.054688 32.464844 65.210938 32.472656 C 65.601562 32.472656 65.871094 32.257812 66.351562 31.855469 C 66.398438 31.855469 66.441406 31.875 66.46875 31.910156 C 66.5 31.945312 66.507812 31.992188 66.496094 32.035156 C 65.832031 32.835938 65.210938 33.007812 64.742188 33.007812 C 64.089844 33.007812 63.859375 32.410156 63.859375 31.890625 C 63.957031 30.75 64.546875 29.707031 65.484375 29.023438 C 65.84375 28.710938 66.308594 28.53125 66.789062 28.511719 C 67.160156 28.511719 67.464844 28.789062 67.492188 29.152344 "/>
<path style=" stroke:none;fill-rule:nonzero;fill:rgb(0%,0%,0%);fill-opacity:1;" d="M 74.113281 28.589844 C 74.035156 28.847656 74.046875 28.898438 74.515625 28.898438 C 75.300781 28.898438 76.691406 28.527344 76.691406 27.1875 C 76.691406 26.570312 76.210938 26.121094 75.320312 26.121094 C 74.90625 26.121094 74.882812 26.121094 74.785156 26.464844 Z M 73.15625 31.628906 C 72.925781 32.3125 73.242188 32.554688 74.027344 32.554688 C 74.578125 32.582031 75.113281 32.378906 75.503906 32 C 75.898438 31.621094 76.109375 31.101562 76.085938 30.5625 C 76.085938 29.65625 75.289062 29.21875 74.472656 29.21875 C 73.949219 29.21875 73.90625 29.21875 73.796875 29.582031 Z M 73.753906 27.128906 C 74.019531 26.308594 73.917969 26.210938 73.429688 26.179688 L 73.078125 26.179688 C 73 26.128906 73.023438 25.976562 73.078125 25.925781 C 73.683594 25.839844 74.296875 25.796875 74.910156 25.796875 C 75.503906 25.777344 76.097656 25.863281 76.660156 26.054688 C 77.238281 26.257812 77.613281 26.800781 77.585938 27.398438 C 77.585938 28.476562 76.488281 28.976562 75.886719 29.015625 C 75.710938 29.015625 75.789062 29.101562 75.886719 29.132812 C 76.570312 29.363281 77.023438 29.996094 77.019531 30.699219 C 77.019531 31.214844 76.808594 31.710938 76.429688 32.070312 C 75.972656 32.519531 75.164062 32.878906 73.8125 32.878906 C 73.226562 32.878906 72.820312 32.847656 72.367188 32.847656 C 71.910156 32.847656 71.558594 32.847656 71.242188 32.878906 C 71.203125 32.847656 71.183594 32.796875 71.183594 32.746094 C 71.183594 32.695312 71.203125 32.648438 71.242188 32.613281 L 71.460938 32.582031 C 71.984375 32.507812 72.09375 32.398438 72.441406 31.3125 Z M 73.753906 27.128906 "/>
<path style=" stroke:none;fill-rule:nonzero;fill:rgb(0%,0%,0%);fill-opacity:1;" d="M 80.097656 29.527344 L 79.628906 30.871094 L 79.679688 30.871094 C 80.019531 30.246094 80.402344 29.644531 80.824219 29.070312 C 80.992188 28.78125 81.285156 28.578125 81.621094 28.515625 C 82.003906 28.515625 82.054688 28.878906 82.054688 29.039062 C 82.035156 29.265625 81.957031 29.488281 81.824219 29.679688 C 81.695312 29.839844 81.519531 29.851562 81.472656 29.628906 C 81.421875 29.347656 81.355469 29.210938 81.246094 29.210938 C 81.136719 29.210938 81.027344 29.320312 80.863281 29.53125 C 80.199219 30.359375 79.585938 31.664062 79.011719 32.886719 C 78.984375 32.964844 78.910156 33.015625 78.824219 33.015625 C 78.707031 33.015625 78.390625 32.96875 78.476562 32.734375 C 78.613281 32.3125 79.300781 30.421875 79.597656 29.378906 C 79.628906 29.261719 79.597656 29.15625 79.507812 29.15625 C 79.226562 29.15625 78.933594 29.457031 78.738281 29.710938 C 78.628906 29.734375 78.550781 29.671875 78.5625 29.542969 C 78.914062 28.964844 79.328125 28.511719 79.847656 28.511719 C 80.371094 28.511719 80.199219 29.234375 80.097656 29.542969 "/>
<path style=" stroke:none;fill-rule:nonzero;fill:rgb(0%,0%,0%);fill-opacity:1;" d="M 84.207031 29.476562 C 83.507812 30.082031 82.84375 31.476562 82.84375 32.21875 C 82.84375 32.34375 82.910156 32.421875 83.007812 32.421875 C 83.105469 32.421875 83.445312 32.28125 84.0625 31.734375 C 84.75 31.109375 85.253906 30.316406 85.523438 29.433594 C 85.445312 29.207031 85.222656 29.050781 84.976562 29.050781 C 84.714844 29.050781 84.542969 29.167969 84.203125 29.464844 M 86.101562 28.253906 C 86.296875 28.179688 86.515625 28.246094 86.632812 28.414062 C 86.46875 28.808594 85.523438 31.15625 85.171875 32.132812 C 85.109375 32.3125 85.171875 32.375 85.25 32.375 C 85.433594 32.375 85.75 32.195312 86.371094 31.664062 C 86.410156 31.660156 86.449219 31.675781 86.476562 31.699219 C 86.507812 31.726562 86.523438 31.761719 86.527344 31.800781 C 86.066406 32.398438 85.296875 32.992188 84.695312 32.992188 C 84.613281 32.996094 84.535156 32.96875 84.476562 32.914062 C 84.417969 32.859375 84.382812 32.785156 84.378906 32.707031 C 84.394531 32.5625 84.429688 32.421875 84.488281 32.289062 L 84.839844 31.332031 L 84.808594 31.332031 C 84.03125 32.265625 82.921875 33.003906 82.410156 33.003906 C 82.105469 33.003906 81.933594 32.707031 81.933594 32.40625 C 82.265625 31.011719 83.121094 29.789062 84.332031 28.980469 C 84.621094 28.789062 84.960938 28.683594 85.3125 28.671875 C 85.40625 28.671875 85.496094 28.691406 85.574219 28.734375 C 85.667969 28.789062 85.742188 28.867188 85.792969 28.957031 Z M 86.101562 28.253906 "/>
<path style=" stroke:none;fill-rule:nonzero;fill:rgb(0%,0%,0%);fill-opacity:1;" d="M 90.214844 29.113281 C 90.222656 29.253906 90.144531 29.386719 90.019531 29.457031 C 89.9375 29.476562 89.851562 29.441406 89.8125 29.371094 C 89.65625 29.160156 89.410156 29.03125 89.144531 29.027344 C 88.902344 29.023438 88.703125 29.214844 88.699219 29.453125 C 88.726562 29.804688 88.855469 30.140625 89.070312 30.421875 C 89.332031 30.757812 89.46875 31.164062 89.46875 31.585938 C 89.433594 31.988281 89.226562 32.363281 88.898438 32.613281 C 88.59375 32.867188 88.199219 33.003906 87.796875 32.996094 C 87.460938 33.007812 87.167969 32.761719 87.136719 32.429688 C 87.144531 32.300781 87.203125 32.179688 87.296875 32.089844 C 87.382812 32.015625 87.507812 32.015625 87.59375 32.089844 C 87.78125 32.316406 88.050781 32.464844 88.347656 32.511719 C 88.65625 32.476562 88.886719 32.210938 88.867188 31.90625 C 88.8125 31.566406 88.671875 31.246094 88.464844 30.972656 C 88.253906 30.675781 88.125 30.335938 88.082031 29.980469 C 88.082031 29.566406 88.269531 29.257812 88.738281 28.863281 C 88.960938 28.667969 89.246094 28.546875 89.546875 28.519531 C 89.894531 28.519531 90.183594 28.785156 90.199219 29.125 "/>
<path style=" stroke:none;fill-rule:nonzero;fill:rgb(0%,0%,0%);fill-opacity:1;" d="M 93.617188 29.113281 C 93.621094 29.253906 93.546875 29.386719 93.417969 29.457031 C 93.339844 29.476562 93.253906 29.441406 93.214844 29.371094 C 93.058594 29.160156 92.8125 29.03125 92.550781 29.027344 C 92.308594 29.023438 92.109375 29.214844 92.105469 29.453125 C 92.128906 29.804688 92.257812 30.140625 92.476562 30.421875 C 92.746094 30.761719 92.890625 31.175781 92.890625 31.605469 C 92.855469 32.007812 92.648438 32.382812 92.324219 32.632812 C 92.015625 32.886719 91.625 33.023438 91.222656 33.015625 C 90.878906 33.03125 90.589844 32.78125 90.554688 32.453125 C 90.5625 32.320312 90.621094 32.199219 90.71875 32.109375 C 90.804688 32.035156 90.929688 32.035156 91.015625 32.109375 C 91.203125 32.335938 91.46875 32.484375 91.765625 32.535156 C 92.074219 32.5 92.304688 32.234375 92.289062 31.925781 C 92.230469 31.589844 92.089844 31.269531 91.882812 30.992188 C 91.675781 30.695312 91.546875 30.355469 91.503906 30 C 91.503906 29.585938 91.691406 29.277344 92.15625 28.882812 C 92.382812 28.6875 92.664062 28.566406 92.964844 28.539062 C 93.3125 28.539062 93.601562 28.804688 93.621094 29.148438 "/>
<path style=" stroke:none;fill-rule:nonzero;fill:rgb(0%,0%,0%);fill-opacity:1;" d="M 95.535156 31.925781 C 95.4375 32.183594 95.488281 32.289062 95.613281 32.289062 C 95.734375 32.289062 96.210938 31.949219 96.777344 31.40625 C 97.773438 30.445312 98.335938 29.210938 98.699219 28.5625 C 98.898438 28.511719 99.109375 28.589844 99.230469 28.753906 C 99.121094 29.039062 98.414062 30.789062 97.953125 32.054688 C 97.898438 32.191406 97.886719 32.320312 97.996094 32.320312 C 98.203125 32.320312 98.78125 31.820312 99.046875 31.492188 C 99.09375 31.476562 99.144531 31.484375 99.1875 31.515625 C 99.226562 31.542969 99.246094 31.589844 99.246094 31.640625 C 98.964844 32.148438 97.914062 32.992188 97.335938 32.992188 C 97.246094 32.988281 97.160156 32.941406 97.109375 32.871094 C 97.054688 32.796875 97.039062 32.707031 97.0625 32.621094 L 97.804688 30.667969 L 97.78125 30.667969 C 96.996094 31.640625 95.648438 33.003906 95.058594 33.003906 C 94.613281 33.003906 94.554688 32.566406 94.742188 32.097656 L 95.746094 29.511719 C 95.820312 29.308594 95.832031 29.203125 95.746094 29.203125 C 95.539062 29.203125 94.96875 29.671875 94.691406 29.9375 C 94.644531 29.949219 94.59375 29.9375 94.554688 29.90625 C 94.519531 29.875 94.5 29.824219 94.507812 29.777344 C 94.789062 29.351562 95.882812 28.507812 96.394531 28.507812 C 96.539062 28.507812 96.785156 28.648438 96.71875 28.828125 Z M 95.535156 31.925781 "/>
<path style=" stroke:none;fill-rule:nonzero;fill:rgb(0%,0%,0%);fill-opacity:1;" d="M 102.964844 29.113281 C 102.972656 29.253906 102.894531 29.386719 102.769531 29.457031 C 102.6875 29.476562 102.601562 29.441406 102.5625 29.371094 C 102.40625 29.160156 102.160156 29.03125 101.894531 29.027344 C 101.652344 29.023438 101.453125 29.214844 101.449219 29.453125 C 101.476562 29.804688 101.605469 30.140625 101.820312 30.421875 C 102.089844 30.761719 102.238281 31.175781 102.234375 31.605469 C 102.199219 32.007812 101.996094 32.382812 101.667969 32.632812 C 101.359375 32.886719 100.96875 33.023438 100.566406 33.015625 C 100.226562 33.03125 99.9375 32.78125 99.902344 32.453125 C 99.914062 32.320312 99.972656 32.199219 100.070312 32.109375 C 100.152344 32.035156 100.277344 32.035156 100.363281 32.109375 C 100.550781 32.335938 100.820312 32.484375 101.113281 32.535156 C 101.421875 32.496094 101.652344 32.230469 101.636719 31.925781 C 101.578125 31.589844 101.441406 31.269531 101.234375 30.992188 C 101.023438 30.695312 100.890625 30.355469 100.851562 30 C 100.851562 29.585938 101.035156 29.277344 101.507812 28.882812 C 101.730469 28.6875 102.011719 28.566406 102.3125 28.539062 C 102.660156 28.539062 102.949219 28.804688 102.96875 29.148438 "/>
<path style=" stroke:none;fill-rule:nonzero;fill:rgb(0%,0%,0%);fill-opacity:1;" d="M 21.339844 4.0625 C 22.136719 4.0625 22.824219 4.855469 22.824219 6.117188 L 22.824219 15.910156 C 22.824219 19.507812 21.3125 19.210938 19.722656 19.210938 C 18.128906 19.210938 17.933594 17.65625 17.933594 15.878906 L 17.933594 6.109375 C 17.933594 4.855469 18.632812 4.050781 19.417969 4.050781 L 19.417969 3.542969 L 14.003906 3.542969 L 14.003906 4.050781 C 14.800781 4.050781 15.515625 4.847656 15.515625 6.109375 L 15.515625 16.695312 C 15.515625 18.75 16.644531 20.25 19.289062 20.25 C 21.933594 20.25 23.5625 20.113281 23.5625 15.828125 L 23.5625 6.109375 C 23.5625 4.855469 24.261719 4.050781 25.039062 4.050781 L 25.039062 3.542969 L 21.339844 3.542969 Z M 21.339844 4.0625 "/>
<path style=" stroke:none;fill-rule:nonzero;fill:rgb(0%,0%,0%);fill-opacity:1;" d="M 135.996094 4.0625 C 136.792969 4.0625 137.421875 4.855469 137.421875 6.117188 L 137.421875 15.910156 C 137.421875 19.507812 135.910156 19.210938 134.316406 19.210938 C 132.726562 19.210938 132.539062 17.667969 132.539062 15.886719 L 132.539062 6.117188 C 132.539062 4.867188 133.199219 4.0625 133.992188 4.0625 L 133.992188 3.554688 L 128.660156 3.554688 L 128.660156 4.0625 C 129.457031 4.0625 130.117188 4.855469 130.117188 6.117188 L 130.117188 16.703125 C 130.117188 18.761719 131.246094 20.261719 133.890625 20.261719 C 136.535156 20.261719 138.160156 20.125 138.160156 15.835938 L 138.160156 6.109375 C 138.160156 4.855469 138.792969 4.050781 139.582031 4.050781 L 139.582031 3.542969 L 135.996094 3.542969 Z M 135.996094 4.0625 "/>
<path style=" stroke:none;fill-rule:nonzero;fill:rgb(0%,0%,0%);fill-opacity:1;" d="M 31.878906 3.554688 L 25.804688 3.554688 L 25.804688 4.0625 C 26.601562 4.0625 27.261719 4.855469 27.261719 6.117188 L 27.261719 17.414062 C 27.261719 18.664062 26.601562 19.46875 25.804688 19.46875 L 25.804688 19.929688 L 32.617188 19.929688 C 33.714844 19.929688 34.976562 19.3125 35.757812 17.125 C 36.519531 14.851562 36.609375 13.011719 36.503906 10.144531 C 36.398438 7.28125 35.890625 5.597656 35.210938 4.742188 C 34.53125 3.882812 33.457031 3.539062 31.882812 3.539062 M 32.253906 19.078125 C 31.625 19.1875 30.980469 19.21875 30.34375 19.167969 C 29.71875 19.113281 29.6875 19.023438 29.6875 17.675781 L 29.6875 5.960938 C 29.6875 4.609375 30.039062 4.28125 31.152344 4.28125 C 32.539062 4.28125 33.140625 4.671875 33.605469 5.871094 C 34.53125 8.191406 34.382812 12.507812 34.121094 15.789062 C 34.121094 15.789062 33.773438 18.683594 32.253906 19.089844 "/>
<path style=" stroke:none;fill-rule:nonzero;fill:rgb(0%,0%,0%);fill-opacity:1;" d="M 41.941406 19.171875 C 41.164062 19.074219 41.074219 18.738281 41.074219 17.507812 L 41.074219 12.101562 C 42.828125 12.246094 42.992188 12.242188 43.4375 14.5 L 43.90625 14.5 L 43.90625 8.863281 L 43.4375 8.863281 C 43.058594 11.003906 42.824219 11.117188 41.074219 11.265625 L 41.074219 5.746094 C 41.074219 4.519531 41.179688 4.296875 41.726562 4.324219 L 42.738281 4.371094 C 45.132812 4.464844 45.257812 5.875 45.40625 6.691406 L 46.011719 6.691406 L 46.011719 3.550781 L 37.164062 3.550781 L 37.164062 4.058594 C 37.957031 4.058594 38.644531 4.855469 38.644531 6.117188 L 38.644531 17.40625 C 38.644531 18.660156 37.945312 19.464844 37.164062 19.464844 L 37.164062 19.929688 L 46.121094 19.929688 L 46.792969 16.957031 L 46.113281 16.957031 C 45.324219 19.605469 43.140625 19.195312 41.941406 19.160156 "/>
<path style=" stroke:none;fill-rule:nonzero;fill:rgb(0%,0%,0%);fill-opacity:1;" d="M 145.097656 19.171875 C 144.320312 19.074219 144.226562 18.738281 144.226562 17.507812 L 144.226562 12.101562 C 145.980469 12.246094 146.144531 12.242188 146.59375 14.5 L 147.0625 14.5 L 147.0625 8.863281 L 146.589844 8.863281 C 146.210938 11.003906 145.976562 11.117188 144.222656 11.265625 L 144.222656 5.746094 C 144.222656 4.519531 144.328125 4.296875 144.875 4.324219 L 145.890625 4.371094 C 148.285156 4.464844 148.40625 5.871094 148.5625 6.691406 L 149.164062 6.691406 L 149.164062 3.550781 L 140.34375 3.550781 L 140.34375 4.058594 C 141.140625 4.058594 141.800781 4.855469 141.800781 6.117188 L 141.800781 17.40625 C 141.800781 18.660156 141.140625 19.464844 140.34375 19.464844 L 140.34375 19.929688 L 149.277344 19.929688 L 149.945312 16.957031 L 149.269531 16.957031 C 148.480469 19.605469 146.300781 19.195312 145.101562 19.160156 "/>
<path style=" stroke:none;fill-rule:nonzero;fill:rgb(0%,0%,0%);fill-opacity:1;" d="M 12.464844 0.0078125 L 7.859375 0.0078125 L 7.859375 0.527344 C 9.070312 0.527344 9.1875 1.40625 8.796875 2.363281 C 7.25 6.191406 3.34375 15.859375 2.886719 16.84375 C 2.316406 18.078125 1.515625 19.4375 0.304688 19.4375 L 0.304688 19.929688 L 4.667969 19.929688 L 4.667969 19.425781 C 3.675781 19.425781 3.375 18.003906 3.867188 16.835938 C 4.359375 15.671875 5.226562 13.613281 5.226562 13.613281 L 9.757812 13.613281 L 9.757812 17.1875 C 9.757812 19.347656 8.972656 19.449219 7.863281 19.449219 L 7.863281 19.929688 L 14.371094 19.929688 L 14.371094 19.425781 C 13.445312 19.425781 12.476562 19.359375 12.476562 17.164062 C 12.476562 16.023438 12.476562 -0.0117188 12.476562 -0.0117188 M 9.769531 12.886719 L 5.5625 12.886719 L 9.769531 2.761719 Z M 9.769531 12.886719 "/>
<path style=" stroke:none;fill-rule:nonzero;fill:rgb(0%,0%,0%);fill-opacity:1;" d="M 108.640625 0 L 100.6875 0 L 100.6875 0.523438 C 101.824219 0.523438 102.59375 1.273438 102.59375 2.753906 L 102.59375 16.988281 C 102.59375 19.261719 101.722656 19.441406 100.691406 19.441406 L 100.691406 19.929688 L 107.199219 19.929688 L 107.199219 19.425781 C 106.027344 19.425781 105.332031 19.175781 105.332031 16.984375 L 105.332031 11.125 L 108.804688 11.125 C 109.921875 11.125 110.789062 10.332031 110.789062 8.527344 L 110.789062 2.484375 C 110.789062 1.050781 110.0625 0.00390625 108.636719 0.00390625 M 108.125 9.542969 C 108.125 10.078125 107.925781 10.367188 107.523438 10.367188 L 105.339844 10.367188 L 105.339844 0.734375 L 107.523438 0.734375 C 107.925781 0.734375 108.125 1.046875 108.125 1.671875 Z M 108.125 9.542969 "/>
<path style=" stroke:none;fill-rule:nonzero;fill:rgb(0%,0%,0%);fill-opacity:1;" d="M 54.988281 15.015625 L 51.746094 3.554688 L 47.472656 3.554688 L 47.472656 4.0625 C 48.546875 4.0625 48.984375 4.40625 48.984375 6.152344 L 48.984375 17.398438 C 48.984375 18.65625 48.371094 19.457031 47.496094 19.457031 L 47.496094 19.929688 L 51.269531 19.929688 L 51.269531 19.425781 C 50.398438 19.425781 49.78125 18.636719 49.78125 17.367188 L 49.78125 5.601562 L 53.894531 19.929688 L 54.296875 19.929688 L 58.558594 5.636719 L 58.558594 17.382812 C 58.558594 18.636719 57.941406 19.4375 57.066406 19.4375 L 57.066406 19.929688 L 62.542969 19.929688 L 62.542969 19.425781 C 61.675781 19.425781 61.027344 18.636719 61.027344 17.367188 L 61.027344 6.109375 C 61.027344 4.855469 61.671875 4.050781 62.542969 4.050781 L 62.542969 3.542969 L 58.421875 3.542969 L 55.050781 14.738281 "/>
<path style=" stroke:none;fill-rule:nonzero;fill:rgb(0%,0%,0%);fill-opacity:1;" d="M 84.171875 18.582031 L 81.367188 12.132812 C 82.25 11.933594 83.375 11.601562 83.375 10.078125 C 83.375 8.445312 83.335938 6.726562 83.335938 5.585938 C 83.335938 3.550781 81.421875 3.550781 79.476562 3.550781 L 74.34375 3.550781 L 74.34375 4.058594 C 75.136719 4.058594 75.792969 4.855469 75.792969 6.117188 L 75.792969 17.40625 C 75.792969 18.65625 74.9375 19.464844 74.320312 19.464844 L 74.320312 19.929688 L 79.703125 19.929688 L 79.703125 19.425781 C 78.914062 19.425781 78.222656 18.636719 78.222656 17.367188 L 78.222656 12.320312 L 79.023438 12.320312 L 81.792969 19.046875 C 81.882812 19.296875 82.027344 19.523438 82.210938 19.71875 C 82.445312 19.878906 82.730469 19.960938 83.015625 19.945312 L 85.019531 19.945312 L 85.019531 19.441406 C 84.835938 19.441406 84.605469 19.566406 84.175781 18.582031 M 81.097656 9.835938 C 81.097656 11.796875 78.96875 11.523438 78.222656 11.546875 L 78.222656 5.378906 C 78.222656 4.722656 78.246094 4.386719 78.847656 4.386719 C 79.984375 4.386719 81.097656 4.203125 81.097656 5.738281 Z M 81.097656 9.835938 "/>
<path style=" stroke:none;fill-rule:nonzero;fill:rgb(0%,0%,0%);fill-opacity:1;" d="M 112.261719 4.0625 C 113.253906 4.0625 113.710938 4.855469 113.710938 6.117188 L 113.710938 17.410156 C 113.710938 18.664062 113.253906 19.46875 112.261719 19.46875 L 112.261719 19.929688 L 117.582031 19.929688 L 117.582031 19.425781 C 116.589844 19.425781 116.136719 18.636719 116.136719 17.367188 L 116.136719 6.109375 C 116.136719 4.855469 116.589844 4.050781 117.582031 4.050781 L 117.582031 3.542969 L 112.261719 3.542969 Z M 112.261719 4.0625 "/>
<path style=" stroke:none;fill-rule:nonzero;fill:rgb(0%,0%,0%);fill-opacity:1;" d="M 90.558594 9.839844 C 88.710938 8.898438 88.003906 7.671875 88.003906 6.613281 C 88.003906 6.03125 88.253906 3.902344 89.730469 3.902344 C 91.980469 3.925781 92.683594 7.039062 92.929688 8.402344 L 93.371094 8.402344 L 93.371094 3.304688 L 92.875 3.304688 C 92.851562 3.863281 92.640625 3.988281 92.375 3.988281 C 91.535156 3.964844 91.289062 3.007812 89.113281 3.097656 C 87.710938 3.15625 85.957031 4.359375 85.957031 7.636719 C 85.957031 9.128906 86.542969 11.226562 88.414062 12.472656 C 91.148438 14.285156 92.015625 15.003906 92.015625 16.398438 C 92.015625 16.976562 91.84375 19.402344 89.664062 19.402344 C 88.121094 19.402344 87.105469 16.917969 86.90625 15.972656 L 86.554688 14.289062 L 86.058594 14.289062 L 86.058594 20.027344 L 86.570312 20.027344 C 86.625 19.574219 86.746094 19.324219 86.945312 19.324219 C 87.753906 19.324219 88.578125 20.160156 90.003906 20.140625 C 93.625 20.097656 94.269531 17.097656 94.269531 15.410156 C 94.269531 13.097656 93.144531 11.125 90.5625 9.824219 "/>
<path style=" stroke:none;fill-rule:nonzero;fill:rgb(0%,0%,0%);fill-opacity:1;" d="M 124.535156 11.664062 L 124.535156 12.089844 C 124.535156 12.089844 125.265625 12.15625 125.265625 13.300781 L 125.265625 17.136719 C 125.265625 19.191406 124.542969 19.347656 123.265625 19.347656 C 121.984375 19.347656 121.480469 18.886719 121.480469 17.324219 L 121.480469 6.027344 C 121.480469 4.957031 122.042969 4.042969 123.394531 4.042969 C 124.890625 4.042969 126.492188 5.507812 126.492188 8.34375 L 127.339844 8.34375 L 127.339844 3.296875 L 126.726562 3.296875 C 126.726562 5.226562 125.554688 3.242188 123.496094 3.242188 C 122.003906 3.242188 120.769531 3.617188 120.070312 4.394531 C 119.359375 5.183594 118.984375 6.203125 119.019531 7.253906 L 119.019531 16.113281 C 118.980469 17.15625 119.359375 18.171875 120.070312 18.949219 C 120.769531 19.75 122.347656 20.15625 123.363281 20.15625 C 124.007812 20.132812 124.640625 19.988281 125.226562 19.738281 C 125.675781 19.519531 126.070312 19.21875 126.394531 18.851562 C 127.117188 18.074219 127.507812 17.0625 127.488281 16.015625 L 127.488281 13.273438 C 127.488281 12.183594 128.226562 12.089844 128.226562 12.089844 L 128.226562 11.664062 Z M 124.535156 11.664062 "/>
<path style=" stroke:none;fill-rule:nonzero;fill:rgb(0%,0%,0%);fill-opacity:1;" d="M 66.324219 14.171875 L 67.972656 6.800781 L 69.375 14.171875 Z M 72.777344 18.3125 L 69.664062 3.496094 L 66.664062 3.496094 L 66.664062 4.015625 C 67.714844 4.015625 67.5625 4.84375 67.367188 5.863281 L 64.625 17.863281 C 64.273438 19.234375 63.84375 19.457031 63.425781 19.457031 L 63.425781 19.929688 L 66.273438 19.929688 L 66.273438 19.425781 C 65.222656 19.425781 65.195312 18.578125 65.503906 17.316406 L 66.152344 14.917969 L 69.597656 14.917969 L 70.25 17.867188 C 70.601562 19.179688 70.050781 19.414062 69.410156 19.414062 L 69.410156 19.929688 L 73.730469 19.929688 L 73.730469 19.425781 C 73.46875 19.425781 73.027344 19.316406 72.773438 18.296875 "/>
<path style=" stroke:none;fill-rule:nonzero;fill:rgb(0%,0%,0%);fill-opacity:1;" d="M 150.265625 3.554688 L 150.265625 6.695312 L 150.832031 6.695312 C 150.90625 6.066406 151.050781 5.144531 151.632812 4.777344 C 152.214844 4.410156 152.8125 4.4375 153.78125 4.4375 L 153.78125 17.398438 C 153.78125 18.652344 153.152344 19.457031 152.355469 19.457031 L 152.355469 19.929688 L 157.65625 19.929688 L 157.65625 19.425781 C 156.863281 19.425781 156.203125 18.636719 156.203125 17.367188 L 156.203125 4.464844 C 156.203125 4.464844 156.203125 4.464844 156.203125 4.4375 C 157.171875 4.4375 157.765625 4.417969 158.347656 4.78125 C 158.929688 5.144531 159.074219 6.070312 159.148438 6.699219 L 159.703125 6.699219 L 159.703125 3.558594 Z M 150.265625 3.554688 "/>
</g>
</svg>
