<?xml version="1.0" encoding="UTF-8"?>
<svg xmlns="http://www.w3.org/2000/svg" xmlns:xlink="http://www.w3.org/1999/xlink" width="160px" height="160px" viewBox="0 0 160 160" version="1.1">
<g id="surface1">
<rect x="0" y="0" width="160" height="160" style="fill:rgb(100%,100%,100%);fill-opacity:1;stroke:none;"/>
<path style="fill-rule:evenodd;fill:rgb(0%,0%,0%);fill-opacity:1;stroke-width:0.4;stroke-linecap:butt;stroke-linejoin:miter;stroke:rgb(0%,0%,0%);stroke-opacity:1;stroke-miterlimit:2.613;" d="M 17.736752 110.458223 C 19.270894 109.75233 20.18385 108.42525 20.18385 106.839342 C 20.18385 105.465203 19.708548 104.26989 18.814416 103.375758 C 17.835577 102.392213 16.372025 101.832204 14.809647 101.832204 L 2.908281 101.832204 L 2.908281 102.142797 C 2.908281 102.142797 3.341229 102.161621 3.378877 102.199269 C 3.421231 102.241622 3.444761 102.349859 3.444761 102.519274 L 3.444761 119.244245 C 3.444761 119.41366 3.421231 119.521897 3.378877 119.56425 C 3.341229 119.601898 2.908281 119.620722 2.908281 119.620722 L 2.908281 119.931315 L 15.200241 119.931315 C 17.99558 119.931315 20.814448 118.359525 20.814448 114.848881 C 20.814448 112.688847 19.797961 111.25353 17.736752 110.458223 Z M 16.753207 105.164022 C 17.124978 105.540498 17.327334 106.044036 17.327334 106.618162 C 17.327334 107.305232 17.0638 107.940536 16.583793 108.420544 C 16.02849 108.975847 15.214359 109.281734 14.296697 109.281734 L 6.301276 109.281734 L 6.301276 104.345185 L 14.174343 104.345185 C 15.327302 104.345185 16.216728 104.627543 16.753207 105.164022 Z M 17.247333 116.533614 C 16.673206 117.112447 15.779074 117.418334 14.663762 117.418334 L 6.301276 117.418334 L 6.301276 111.799421 L 13.567274 111.799421 C 15.322596 111.799421 16.574381 112.157074 17.280274 112.862967 C 17.732046 113.314739 17.957932 113.917102 17.957932 114.655937 C 17.957932 115.43242 17.717928 116.063018 17.247333 116.533614 Z M 45.77955 119.197186 L 41.563012 112.001777 C 44.386587 111.841775 46.19838 109.92645 46.19838 107.032287 C 46.19838 105.629912 45.723079 104.415775 44.824241 103.512231 C 43.718341 102.411037 42.06655 101.827498 40.042988 101.827498 L 28.485158 101.827498 L 28.485158 102.142797 C 28.485158 102.142797 29.129874 102.152209 29.205169 102.227505 C 29.247523 102.265152 29.266347 102.359271 29.266347 102.514568 L 29.266347 119.244245 C 29.266347 119.404248 29.247523 119.493661 29.205169 119.536015 C 29.129874 119.61131 28.485158 119.620722 28.485158 119.620722 L 28.485158 119.931315 L 32.899346 119.931315 L 32.899346 119.620722 C 32.899346 119.620722 32.254629 119.61131 32.179334 119.536015 C 32.136981 119.493661 32.118157 119.404248 32.118157 119.244245 L 32.118157 112.284135 L 38.59826 112.284135 C 39.031208 112.985322 42.273612 118.70306 42.635971 119.39013 C 42.767737 119.644252 41.807722 119.625428 41.807722 119.625428 L 41.807722 119.931315 L 46.781919 119.931315 L 46.781919 119.625428 C 46.781919 119.630134 45.981906 119.521897 45.77955 119.197186 Z M 32.122863 109.771154 L 32.122863 104.345185 L 40.047694 104.345185 C 41.177124 104.345185 42.080668 104.655778 42.668912 105.244023 C 43.111272 105.681677 43.341864 106.251098 43.341864 106.886402 C 43.341864 107.832299 43.097154 108.557017 42.607735 109.04173 C 42.010078 109.644093 41.148888 109.771154 40.532408 109.771154 Z M 69.685812 101.051015 L 69.666988 101.211018 C 69.577575 101.832204 69.43169 101.832204 69.116391 101.832204 L 53.238492 101.832204 L 53.238492 102.142797 C 53.238492 102.142797 53.840854 102.152209 53.911444 102.222799 C 53.953797 102.265152 53.972621 102.359271 53.972621 102.519274 L 53.972621 119.244245 C 53.972621 119.404248 53.953797 119.498367 53.911444 119.540721 C 53.840854 119.61131 53.238492 119.620722 53.238492 119.620722 L 53.238492 119.931315 L 69.116391 119.931315 C 69.43169 119.931315 69.577575 119.931315 69.666988 120.552501 L 69.685812 120.712504 L 69.977581 120.712504 L 69.977581 116.637145 L 69.685812 116.637145 L 69.666988 116.797148 C 69.577575 117.418334 69.43169 117.418334 69.116391 117.418334 L 56.829137 117.418334 L 56.829137 112.091191 L 64.895147 112.091191 C 65.210447 112.091191 65.351625 112.091191 65.441038 112.80179 L 65.464568 112.966499 L 65.756338 112.966499 L 65.756338 108.797021 L 65.464568 108.797021 L 65.441038 108.957023 C 65.356331 109.573504 65.210447 109.573504 64.895147 109.573504 L 56.829137 109.573504 L 56.829137 104.345185 L 69.121097 104.345185 C 69.43169 104.345185 69.577575 104.345185 69.666988 104.966372 L 69.690518 105.121668 L 69.977581 105.121668 L 69.977581 101.051015 Z M 77.092988 101.832204 L 77.092988 102.142797 C 77.092988 102.142797 77.572996 102.161621 77.615349 102.203975 C 77.657703 102.246328 77.681233 102.349859 77.681233 102.519274 L 77.681233 119.244245 C 77.681233 119.408954 77.657703 119.517191 77.615349 119.559544 C 77.572996 119.601898 77.092988 119.620722 77.092988 119.620722 L 77.092988 119.931315 L 81.121287 119.931315 L 81.121287 119.620722 C 81.121287 119.620722 80.64128 119.601898 80.598926 119.559544 C 80.556572 119.517191 80.537749 119.41366 80.537749 119.244245 L 80.537749 102.519274 C 80.537749 102.175739 81.121287 102.142797 81.121287 102.142797 L 81.121287 101.832204 Z M 103.968709 101.051015 L 103.949885 101.211018 C 103.860472 101.832204 103.714587 101.832204 103.399288 101.832204 L 88.594347 101.832204 C 88.279048 101.832204 88.133163 101.832204 88.04375 101.211018 L 88.024926 101.051015 L 87.733157 101.051015 L 87.733157 105.126374 L 88.024926 105.126374 L 88.04375 104.966372 C 88.133163 104.345185 88.279048 104.345185 88.594347 104.345185 L 94.566207 104.345185 L 94.566207 119.244245 C 94.566207 119.404248 94.547383 119.493661 94.509735 119.536015 C 94.43444 119.61131 93.789724 119.620722 93.789724 119.620722 L 93.789724 119.931315 L 98.203911 119.931315 L 98.203911 119.620722 C 98.203911 119.620722 97.559195 119.61131 97.479194 119.536015 C 97.441546 119.493661 97.422722 119.404248 97.422722 119.244245 L 97.422722 104.345185 L 103.399288 104.345185 C 103.714587 104.345185 103.855766 104.345185 103.945179 104.966372 L 103.968709 105.126374 L 104.255772 105.126374 L 104.255772 101.051015 Z M 125.616111 116.53832 C 125.616111 116.53832 125.460814 117.418334 124.670214 117.418334 L 114.552406 117.418334 L 114.552406 102.519274 C 114.552406 102.029854 115.357125 102.142797 115.357125 102.142797 L 115.357125 101.832204 L 110.938231 101.832204 L 110.938231 102.142797 C 110.938231 102.142797 111.564123 102.152209 111.634713 102.227505 C 111.677066 102.265152 111.69589 102.359271 111.69589 102.519274 L 111.69589 119.248951 C 111.69589 119.404248 111.677066 119.498367 111.634713 119.536015 C 111.564123 119.61131 110.938231 119.620722 110.938231 119.620722 L 110.938231 119.931315 L 124.670214 119.931315 C 125.484344 119.931315 125.649053 120.853683 125.649053 120.853683 L 125.917292 120.853683 L 125.917292 116.543026 L 125.616111 116.543026 Z M 132.750342 101.832204 L 132.750342 102.142797 C 132.750342 102.142797 133.23035 102.161621 133.272703 102.203975 C 133.310351 102.246328 133.333881 102.349859 133.333881 102.519274 L 133.333881 119.244245 C 133.333881 119.408954 133.310351 119.517191 133.272703 119.559544 C 133.23035 119.601898 132.750342 119.620722 132.750342 119.620722 L 132.750342 119.931315 L 136.773935 119.931315 L 136.773935 119.620722 L 136.25628 119.559544 C 136.20922 119.517191 136.190396 119.41366 136.190396 119.244245 L 136.190396 102.519274 C 136.190396 102.175739 136.228044 102.142797 136.590403 102.142797 L 136.773935 102.142797 L 136.773935 101.832204 Z M 159.480178 101.832204 L 159.480178 102.316918 C 159.480178 102.316918 160.124894 102.32633 160.200189 102.406331 C 160.242543 102.443979 160.261367 102.538098 160.261367 102.693394 L 160.261367 115.733601 C 158.477809 113.648862 149.009423 102.585157 149.009423 102.472214 C 149.009423 102.406331 149.818848 102.316918 149.818848 102.316918 L 149.818848 101.832204 L 144.529352 101.832204 L 144.529352 102.316918 C 144.529352 102.316918 145.221128 102.331036 145.301129 102.411037 C 145.338777 102.448685 145.357601 102.538098 145.357601 102.693394 L 145.357601 119.070125 C 145.357601 119.225421 145.338777 119.314835 145.301129 119.352482 C 145.221128 119.432483 144.529352 119.441895 144.529352 119.441895 L 144.529352 119.931315 L 148.651771 119.931315 L 148.651771 119.441895 C 148.651771 119.441895 148.007055 119.432483 147.931759 119.357188 C 147.889406 119.319541 147.870582 119.225421 147.870582 119.070125 L 147.870582 105.295789 C 149.757671 107.498176 159.804889 119.201892 159.804889 119.314835 C 159.804889 119.361894 159.042524 119.456013 159.042524 119.456013 L 159.042524 119.931315 L 163.602596 119.931315 L 163.602596 119.446601 C 163.602596 119.446601 162.915526 119.432483 162.835525 119.357188 C 162.793172 119.314835 162.774348 119.225421 162.774348 119.070125 L 162.774348 102.693394 C 162.774348 102.392213 162.774348 102.321624 163.419064 102.321624 L 163.602596 102.321624 L 163.602596 101.832204 Z M 189.447712 116.288904 C 189.447712 116.288904 189.24065 116.467731 189.207708 116.486554 C 189.207708 116.472437 189.203002 116.467731 189.203002 116.448907 L 189.203002 112.147662 C 189.203002 111.691184 189.348887 111.578241 189.650068 111.49824 L 189.791247 111.465298 L 189.791247 110.844112 L 181.602882 110.844112 C 181.268759 110.844112 181.136992 110.721757 181.052285 110.354692 L 181.019343 110.208808 L 180.393451 110.208808 L 180.393451 113.893572 L 181.033461 113.893572 L 181.056991 113.738275 C 181.12758 113.262974 181.184052 113.262974 181.602882 113.262974 L 186.351192 113.262974 L 186.351192 116.190079 C 184.407632 117.630102 182.045242 117.761869 179.786382 117.761869 C 177.819292 117.761869 175.819261 116.93362 174.431003 115.550069 C 173.198043 114.317108 172.543915 112.77826 172.543915 111.10294 C 172.543915 106.989933 175.795731 104.006356 180.275802 104.006356 C 182.826431 104.006356 185.457061 105.276965 186.370016 106.194626 C 186.628844 106.448748 186.638256 106.575809 186.642962 106.599339 C 186.718257 107.008757 186.638256 107.182877 186.638256 107.182877 L 187.02885 107.484059 L 189.188885 103.775764 L 188.6477 103.55929 C 188.6477 103.55929 188.214751 103.902825 188.092397 103.902825 C 188.002983 103.902825 187.654743 103.719293 187.325326 103.545173 C 186.021775 102.862809 183.598208 101.587494 180.200507 101.587494 C 177.179282 101.587494 174.299237 102.735748 172.303911 104.731074 C 170.590942 106.439336 169.692105 108.59937 169.692105 110.980585 C 169.692105 113.404153 170.553295 115.545363 172.186262 117.17833 C 174.092174 119.084243 176.953396 120.180731 180.031092 120.180731 C 183.932331 120.180731 187.094734 119.107772 189.711246 116.910091 L 189.847719 116.792442 C 189.847719 116.787736 189.452418 116.288904 189.447712 116.288904 Z M 83.05073 127.046722 L 83.05073 125.677288 L 83.173085 125.677288 C 83.182496 125.870233 83.323675 125.898468 83.497796 125.898468 C 83.704858 125.898468 84.100158 125.696112 84.100158 125.446697 C 84.100158 125.324342 84.001333 125.24434 83.860154 125.234929 L 83.860154 125.112574 L 85.366061 125.112574 L 85.366061 125.234929 C 85.144881 125.234929 85.083703 125.277282 85.083703 125.46552 L 85.083703 132.082096 C 85.083703 132.27504 85.144881 132.312688 85.384884 132.312688 L 85.384884 132.435043 L 83.718976 132.435043 L 83.718976 132.312688 C 84.001333 132.312688 84.057804 132.27504 84.057804 132.082096 L 84.057804 126.623186 C 83.728387 126.764365 83.173085 126.754953 83.173085 127.046722 Z M 92.476762 128.594982 C 93.342658 128.825574 93.982668 129.44676 93.982668 130.383246 C 93.982668 131.6115 92.740295 132.533868 90.584967 132.533868 C 88.434345 132.533868 87.187266 131.6115 87.187266 130.383246 C 87.187266 129.44676 87.831982 128.825574 88.697878 128.594982 L 88.697878 128.571452 C 87.954337 128.289095 87.488447 127.870264 87.488447 126.882013 C 87.488447 125.856115 88.716702 125.013749 90.584967 125.013749 C 92.457938 125.013749 93.686193 125.856115 93.686193 126.882013 C 93.686193 127.870264 93.220303 128.289095 92.476762 128.571452 Z M 90.584967 131.691502 C 92.377937 131.691502 92.956769 131.046785 92.956769 130.373834 C 92.956769 129.517349 92.344995 129.056166 90.584967 129.056166 C 88.824939 129.056166 88.213165 129.517349 88.213165 130.373834 C 88.213165 131.046785 88.796703 131.691502 90.584967 131.691502 Z M 90.584967 128.209093 C 92.255582 128.209093 92.655588 127.67732 92.655588 127.056134 C 92.655588 126.430242 92.255582 125.856115 90.584967 125.856115 C 88.919058 125.856115 88.514346 126.430242 88.514346 127.056134 C 88.514346 127.67732 88.919058 128.209093 90.584967 128.209093 Z M 100.481595 128.594982 C 101.342785 128.825574 101.987501 129.44676 101.987501 130.383246 C 101.987501 131.6115 100.740422 132.533868 98.5898 132.533868 C 96.439177 132.533868 95.192099 131.6115 95.192099 130.383246 C 95.192099 129.44676 95.832109 128.825574 96.698005 128.594982 L 96.698005 128.571452 C 95.954464 128.289095 95.49328 127.870264 95.49328 126.882013 C 95.49328 125.856115 96.716829 125.013749 98.5898 125.013749 C 100.458065 125.013749 101.68632 125.856115 101.68632 126.882013 C 101.68632 127.870264 101.225136 128.289095 100.481595 128.571452 Z M 98.5898 131.691502 C 100.378063 131.691502 100.961602 131.046785 100.961602 130.373834 C 100.961602 129.517349 100.349828 129.056166 98.5898 129.056166 C 96.829772 129.056166 96.217997 129.517349 96.217997 130.373834 C 96.217997 131.046785 96.79683 131.691502 98.5898 131.691502 Z M 98.5898 128.209093 C 100.255709 128.209093 100.660421 127.67732 100.660421 127.056134 C 100.660421 126.430242 100.255709 125.856115 98.5898 125.856115 C 96.919185 125.856115 96.519179 126.430242 96.519179 127.056134 C 96.519179 127.67732 96.919185 128.209093 98.5898 128.209093 Z M 98.5898 128.209093 " transform="matrix(0.830065,0,0,0.830065,0,0)"/>
<path style="fill-rule:evenodd;fill:rgb(0%,0%,0%);fill-opacity:1;stroke-width:0.4;stroke-linecap:butt;stroke-linejoin:bevel;stroke:rgb(0%,0%,0%);stroke-opacity:1;stroke-miterlimit:2.613;" d="M 107.215819 130.100888 L 107.215819 126.279651 L 103.935767 130.100888 Z M 103.032223 131.027962 C 102.848691 131.027962 102.76869 131.065609 102.726336 131.310319 L 102.608687 131.310319 L 102.608687 130.383246 L 106.688752 125.677288 C 106.839342 125.493756 106.891108 125.446697 106.891108 125.385519 C 106.891108 125.281988 106.839342 125.24434 106.651104 125.234929 L 106.651104 125.112574 L 108.519369 125.112574 L 108.519369 125.234929 C 108.298189 125.234929 108.241718 125.272576 108.241718 125.46552 L 108.241718 130.100888 L 109.164085 130.100888 C 109.347618 130.100888 109.427619 130.06324 109.465267 129.780883 L 109.587621 129.780883 L 109.587621 131.347967 L 109.465267 131.347967 C 109.427619 131.075021 109.347618 131.027962 109.164085 131.027962 L 108.241718 131.027962 L 108.241718 132.082096 C 108.241718 132.27504 108.302895 132.312688 108.519369 132.312688 L 108.519369 132.435043 L 106.933462 132.435043 L 106.933462 132.312688 C 107.182877 132.312688 107.215819 132.27504 107.215819 132.082096 L 107.215819 131.027962 Z M 108.039362 80.071859 C 108.039362 82.998964 106.415806 84.481341 103.818118 85.822538 C 104.091064 86.340194 104.406363 86.815495 104.773427 87.257855 C 103.295757 88.693172 101.375726 89.770836 99.196868 90.321433 C 98.970982 89.756718 98.29803 89.286123 97.389781 89.032001 L 97.300368 82.726019 C 98.142734 83.257792 99.173338 83.568385 100.316886 83.568385 C 103.695763 83.568385 106.171097 80.622456 106.171097 77.32358 C 106.171097 75.657671 105.493439 74.00588 104.396951 72.876451 C 106.321687 71.182306 107.724062 68.683443 106.011094 66.678705 C 104.406363 64.796322 100.985132 64.993973 97.079188 66.716353 L 97.055658 65.012796 C 97.874494 64.56573 98.382738 63.70454 98.378032 62.772761 C 98.340384 61.389209 97.210954 60.292721 95.827403 60.292721 C 94.448558 60.292721 93.314422 61.389209 93.276774 62.772761 C 93.276774 63.742188 93.803842 64.579848 94.599148 65.012796 L 94.561501 67.996373 C 94.227378 68.189317 93.893255 68.391674 93.559132 68.603442 C 84.900171 74.057646 83.22485 80.608338 86.057836 83.253086 C 88.43905 85.479004 91.761456 82.947199 94.392086 80.057741 L 94.265025 89.032001 C 93.356776 89.290829 92.683824 89.756718 92.457938 90.326139 C 90.274374 89.770836 88.359049 88.693172 86.881379 87.262561 C 87.248443 86.815495 87.568448 86.340194 87.836688 85.827244 C 85.239 84.486047 83.62015 82.998964 83.62015 80.076565 C 83.173085 81.220112 82.937787 82.076597 82.937787 83.356617 C 82.937787 85.464886 83.591915 87.431976 84.740168 89.121414 C 85.074291 88.919058 85.384884 88.688466 85.686066 88.443756 C 87.497859 90.839089 90.396729 92.453232 93.389717 93.032065 C 94.942683 93.333246 95.827403 94.985037 95.827403 95.897992 C 95.827403 94.985037 96.716829 93.333246 98.269795 93.032065 C 101.258077 92.453232 104.156947 90.839089 105.96874 88.443756 C 106.269922 88.688466 106.585221 88.919058 106.919344 89.121414 C 108.062891 87.431976 108.717019 85.464886 108.717019 83.356617 C 108.717019 82.076597 108.486427 81.220112 108.039362 80.071859 Z M 103.813412 68.052845 C 104.806369 69.215216 104.044004 70.721122 102.985164 71.859964 C 102.411037 71.577606 101.780439 71.431722 101.140429 71.431722 C 99.05569 71.431722 98.194499 72.594093 98.194499 73.276457 C 98.194499 74.165883 98.895687 74.805893 100.552184 74.805893 C 101.145134 74.805893 101.945147 74.523536 102.773396 74.048234 C 103.159284 74.556477 103.418112 75.252959 103.418112 76.184738 C 103.418112 79.248316 101.44161 81.408351 99.766289 81.408351 C 98.622742 81.408351 97.799199 80.631868 97.258014 79.653029 L 97.102717 68.358732 C 99.705112 67.02224 102.396919 66.396348 103.813412 68.052845 Z M 101.526317 73.097631 C 101.088663 73.379988 100.70748 73.549402 100.491006 73.549402 C 99.723935 73.549402 99.653346 73.474107 99.653346 73.238809 C 99.653346 73.059983 99.766289 72.881157 100.491006 72.881157 C 100.806306 72.881157 101.163958 72.951746 101.526317 73.097631 Z M 87.82257 80.895401 C 86.561374 79.234199 87.191972 75.474139 93.286186 70.801124 C 93.690899 70.485824 94.109729 70.184643 94.533265 69.89758 L 94.415616 78.274183 C 91.959106 81.417763 89.107296 82.58484 87.82257 80.895401 Z M 87.82257 80.895401 " transform="matrix(0.830065,0,0,0.830065,0,0)"/>
<path style="fill-rule:evenodd;fill:rgb(0%,0%,0%);fill-opacity:1;stroke-width:0.4;stroke-linecap:butt;stroke-linejoin:bevel;stroke:rgb(0%,0%,0%);stroke-opacity:1;stroke-miterlimit:2.613;" d="M 139.653981 72.805861 C 139.653981 72.387031 139.244563 71.723491 137.555124 71.723491 C 135.757448 71.723491 135.10332 72.03879 130.1103 72.03879 C 119.663075 72.03879 117.775987 70.801124 112.392372 70.801124 C 108.349955 70.801124 106.85346 72.217617 106.85346 74.024704 C 106.85346 76.095325 108.142893 77.652997 108.825256 79.347142 C 108.881728 79.483614 108.928787 79.620087 108.975847 79.761266 C 109.644093 81.761297 109.644093 83.846036 109.644093 84.824875 C 109.644093 86.791966 110.900583 87.888454 113.182973 87.888454 C 115.45595 87.888454 117.051269 86.594315 117.503041 85.808421 C 119.347776 85.846068 120.486618 85.591946 121.154864 84.391927 C 123.173719 84.763698 124.237266 84.057804 124.609036 83.173085 C 127.338491 83.173085 127.851441 82.98014 128.933811 81.464822 C 131.385614 81.445998 132.858579 80.269509 132.900933 79.445967 C 133.056229 79.417731 133.211526 79.384789 133.362116 79.347142 C 134.835081 78.942429 135.884509 77.761234 135.884509 76.871808 C 138.006896 76.067089 138.750437 74.984719 138.576317 73.98235 C 139.188091 73.845878 139.653981 73.474107 139.653981 72.805861 Z M 135.277441 76.63651 C 135.39509 77.262403 134.256248 78.660072 132.585633 79.130667 C 132.54328 79.201257 132.49622 79.276552 132.449161 79.347142 C 131.776209 80.288333 130.435011 81.050698 128.736161 81.01305 C 127.87497 82.368366 126.242003 82.838962 124.274913 82.763666 C 123.649021 83.921332 122.336059 84.213101 120.839565 84.15663 C 120.016022 85.257824 118.543058 85.573123 117.263037 85.573123 C 116.086548 86.631963 114.830058 87.220208 113.375917 87.220208 C 111.399415 87.220208 110.585284 86.170779 110.585284 84.787228 C 110.585284 83.921332 110.495871 81.954242 110.19469 80.796576 C 110.067629 80.307157 109.912332 79.822443 109.733506 79.342436 C 109.248792 78.043591 108.82055 77.361228 108.82055 75.987088 C 108.82055 74.570595 109.99704 74.062352 112.157074 74.062352 C 113.338269 74.062352 119.474837 74.848247 126.707893 74.848247 C 132.204451 74.848247 134.665666 74.584713 135.945687 74.29765 C 136.905702 74.081176 137.376298 74.137647 137.456299 74.354121 C 137.653949 74.895306 136.515108 76.203562 135.277441 76.63651 Z M 137.5363 73.351752 C 138.077485 73.290575 133.169172 74.137647 126.707893 74.137647 C 120.223084 74.137647 114.30299 73.196456 112.039425 73.196456 C 110.961761 73.196456 110.56646 73.351752 109.959392 73.351752 C 109.606445 73.351752 109.469972 73.332928 109.469972 73.097631 C 109.469972 72.862333 110.175866 72.335266 111.846481 72.335266 C 113.615921 72.335266 119.046595 73.431754 126.707893 73.431754 C 133.423294 73.431754 135.969217 72.805861 137.456299 72.805861 C 137.771598 72.805861 138.162192 72.805861 138.162192 72.998805 C 138.162192 73.196456 137.889247 73.314105 137.5363 73.351752 Z M 137.5363 73.351752 " transform="matrix(0.830065,0,0,0.830065,0,0)"/>
<path style="fill-rule:evenodd;fill:rgb(0%,0%,0%);fill-opacity:1;stroke-width:0.4;stroke-linecap:butt;stroke-linejoin:bevel;stroke:rgb(0%,0%,0%);stroke-opacity:1;stroke-miterlimit:2.613;" d="M 134.844493 76.692982 C 129.583233 76.92828 124.218442 77.12593 118.561881 76.810631 L 118.091286 77.478877 C 125.479638 77.78947 129.150285 77.643585 134.336249 77.398875 Z M 131.249142 79.601263 L 132.016213 79.04596 C 127.03731 79.074196 121.856051 79.036548 117.465393 78.537717 L 116.95715 79.130667 C 122.938421 79.638911 126.458477 79.624793 131.249142 79.601263 Z M 127.399669 81.328349 L 128.147916 80.947167 C 123.630197 80.820106 120.25132 80.344804 116.29361 79.681264 L 115.710071 80.15186 C 120.27485 80.834224 122.806655 81.248348 127.399669 81.328349 Z M 123.27725 82.937787 L 123.785494 82.650723 C 120.430146 82.264835 118.044226 81.671884 114.924177 80.777752 L 114.265343 81.2107 C 117.00421 82.024831 119.446601 82.627194 123.27725 82.937787 Z M 119.860726 84.274279 L 120.406617 83.907214 C 117.691279 83.309557 115.418302 82.622488 113.587685 81.601295 L 112.97591 81.958948 C 115.263006 83.135437 117.032445 83.662504 119.860726 84.274279 Z M 116.698322 85.394296 C 114.613583 84.589578 113.239444 83.587209 112.317076 82.194246 L 111.724126 82.349542 C 112.768848 83.784859 113.964161 84.867229 116.241845 85.690772 Z M 116.698322 85.394296 " transform="matrix(0.830065,0,0,0.830065,0,0)"/>
<path style="fill-rule:evenodd;fill:rgb(0%,0%,0%);fill-opacity:1;stroke-width:0.4;stroke-linecap:butt;stroke-linejoin:bevel;stroke:rgb(0%,0%,0%);stroke-opacity:1;stroke-miterlimit:2.613;" d="M 117.22539 75.869439 C 123.747846 76.184738 130.425599 76.302387 135.785684 75.732967 L 136.359811 75.083544 C 133.842124 75.398844 130.270303 75.516492 127.362021 75.516492 C 120.016022 75.516492 115.225358 74.86707 112.787672 74.86707 C 111.03235 74.86707 110.19469 75.262371 110.19469 76.085913 C 110.19469 77.220049 110.608814 77.596525 110.608814 78.443598 C 110.608814 79.088314 110.491165 79.403613 110.491165 80.288333 C 110.491165 80.956579 111.197059 81.111875 111.686478 81.111875 C 112.731201 81.111875 114.204165 80.584808 114.204165 79.229493 L 113.634744 79.26714 C 113.606509 79.784796 113.192384 80.217744 112.853556 80.37304 C 112.260605 80.64128 111.47471 80.631868 111.291178 80.368334 C 111.041762 80.015387 111.220588 79.445967 111.667654 79.33773 C 112.157074 79.220081 112.792378 79.285964 113.634744 79.26714 L 114.204165 79.229493 C 114.848881 79.229493 115.648894 78.344773 115.648894 77.629467 L 114.848881 77.620055 C 114.910059 78.245948 114.439463 78.467128 114.001809 78.584776 C 113.357093 78.758897 112.18531 78.725955 111.945306 78.500069 C 111.625301 78.2083 111.945306 77.605937 112.528845 77.577702 C 112.985322 77.558878 113.771217 77.638879 114.848881 77.620055 L 115.648894 77.629467 C 116.0489 77.624761 117.22539 76.772983 117.22539 75.869439 L 116.185373 75.869439 C 116.133608 76.594157 115.568893 76.88122 114.891235 76.951809 C 114.124164 77.027105 112.84885 77.008281 112.298253 76.83416 C 111.747656 76.655334 112.119426 76.052972 112.655905 75.907087 C 113.535919 75.671789 114.928883 75.75179 116.185373 75.869439 Z M 117.22539 75.869439 " transform="matrix(0.830065,0,0,0.830065,0,0)"/>
<path style="fill-rule:evenodd;fill:rgb(0%,0%,0%);fill-opacity:1;stroke-width:0.4;stroke-linecap:butt;stroke-linejoin:bevel;stroke:rgb(0%,0%,0%);stroke-opacity:1;stroke-miterlimit:2.613;" d="M 120.863094 76.005912 C 121.408985 76.203562 121.272513 76.871808 120.684268 76.909456 L 121.724285 76.951809 C 122.19488 76.711806 121.99723 76.085913 121.663107 76.024736 Z M 120.034846 77.558878 C 121.234865 77.657703 120.881918 78.754191 119.19248 78.716543 L 120.759563 78.796545 C 121.879581 78.711837 121.780756 77.624761 121.211335 77.558878 Z M 117.827752 79.935386 C 118.839533 80.062447 119.258363 79.540086 118.67953 79.26714 L 119.823078 79.33773 C 120.171319 79.521262 120.0772 80.184802 119.220715 80.15186 Z M 117.277155 80.368334 C 117.968931 80.744811 117.404216 81.28129 116.303022 81.163641 L 117.550101 81.497764 C 118.345407 81.526 118.670118 80.787164 118.28423 80.523631 Z M 115.517127 81.554235 C 116.213609 81.930712 115.733601 82.368366 114.505346 82.086008 L 115.870074 82.655429 C 116.670087 82.683665 117.023033 82.175422 116.627733 81.860123 Z M 113.978279 82.438955 C 114.604172 82.989552 113.818277 83.361323 112.782966 82.834256 L 113.554743 83.62015 C 114.448875 83.893096 115.201828 83.460148 115.041826 82.890727 Z M 117.559513 75.878851 C 117.559513 76.142385 117.277155 76.829454 117.051269 77.05534 L 117.757163 77.097694 C 117.983049 76.843572 118.270112 76.26474 118.30776 75.921205 Z M 116.703028 78.556541 C 116.93362 78.354185 117.244213 77.874177 117.314803 77.572996 L 116.693617 77.511818 C 116.670087 77.747116 116.34067 78.321243 116.11949 78.500069 Z M 115.319477 79.817737 C 115.545363 79.671853 115.884192 79.29067 115.987723 79.031842 L 115.498303 78.951841 C 115.441832 79.154197 115.079473 79.620087 114.858293 79.742442 Z M 114.166518 80.608338 C 114.218283 80.631868 114.585348 80.34951 114.721821 80.142448 L 114.359462 80.038917 C 114.274755 80.208332 113.870042 80.561278 113.832395 80.518925 Z M 113.26768 81.205995 C 113.342975 81.205995 113.738275 81.017756 113.902984 80.857754 L 113.672392 80.730693 C 113.559449 80.871872 113.117089 81.111875 113.055912 81.097758 Z M 112.707671 81.285996 C 112.566492 81.394233 112.086485 81.526 111.968836 81.47894 L 112.062955 81.601295 C 112.190016 81.638943 112.618258 81.549529 112.811202 81.43188 Z M 79.262434 70.801124 C 73.878819 70.801124 71.991731 72.03879 61.544506 72.03879 C 56.551486 72.03879 55.897358 71.723491 54.099682 71.723491 C 52.410243 71.723491 52.000825 72.387031 52.000825 72.805861 C 52.000825 73.474107 52.471421 73.845878 53.078489 73.98235 C 52.904369 74.984719 53.64791 76.067089 55.770297 76.871808 C 55.770297 77.761234 56.819725 78.942429 58.29269 79.347142 C 58.44328 79.389495 58.598577 79.417731 58.753874 79.445967 C 58.796227 80.269509 60.269192 81.445998 62.725701 81.464822 C 63.803365 82.98014 64.316315 83.173085 67.04577 83.173085 C 67.41754 84.057804 68.481087 84.763698 70.499942 84.391927 C 71.168188 85.591946 72.30703 85.846068 74.156471 85.808421 C 74.608243 86.594315 76.198856 87.888454 78.476539 87.888454 C 80.754223 87.888454 82.010713 86.78726 82.010713 84.824875 C 82.010713 83.846036 82.010713 81.761297 82.678959 79.761266 C 82.726019 79.620087 82.777784 79.483614 82.82955 79.347142 C 83.511913 77.652997 84.801346 76.095325 84.801346 74.024704 C 84.801346 72.217617 83.304851 70.801124 79.262434 70.801124 Z M 53.492614 72.998805 C 53.492614 72.805861 53.883208 72.805861 54.198507 72.805861 C 55.690296 72.805861 58.231512 73.431754 64.946913 73.431754 C 72.608211 73.431754 78.043591 72.335266 79.813031 72.335266 C 81.47894 72.335266 82.184834 72.862333 82.184834 73.097631 C 82.184834 73.332928 82.048361 73.351752 81.695414 73.351752 C 81.088346 73.351752 80.693045 73.196456 79.615381 73.196456 C 77.356522 73.196456 71.431722 74.137647 64.946913 74.137647 C 58.485634 74.137647 53.582027 73.290575 54.118506 73.351752 C 53.770265 73.314105 53.492614 73.196456 53.492614 72.998805 Z M 81.9213 79.347142 C 81.766003 79.75656 81.610707 80.227155 81.460116 80.801282 C 81.158935 81.954242 81.069522 83.921332 81.069522 84.787228 C 81.069522 86.175485 80.255391 87.220208 78.278889 87.220208 C 76.824749 87.220208 75.568258 86.631963 74.391769 85.573123 C 73.111748 85.573123 71.638784 85.257824 70.815241 84.15663 C 69.323453 84.217807 68.005785 83.921332 67.379893 82.763666 C 65.412803 82.843668 63.784542 82.368366 62.918646 81.01305 C 61.219795 81.050698 59.878597 80.288333 59.210351 79.347142 C 59.158586 79.276552 59.111526 79.205963 59.069173 79.130667 C 57.403264 78.660072 56.259716 77.262403 56.377365 76.63651 C 55.139699 76.203562 54.000857 74.895306 54.198507 74.358827 C 54.278508 74.142353 54.749104 74.081176 55.713825 74.29765 C 56.98914 74.584713 59.450355 74.848247 64.951619 74.848247 C 72.179969 74.848247 78.321243 74.062352 79.497732 74.062352 C 81.657766 74.062352 82.834256 74.575301 82.834256 75.987088 C 82.834256 77.361228 82.406014 78.043591 81.9213 79.347142 Z M 81.9213 79.347142 " transform="matrix(0.830065,0,0,0.830065,0,0)"/>
<path style="fill-rule:evenodd;fill:rgb(0%,0%,0%);fill-opacity:1;stroke-width:0.4;stroke-linecap:butt;stroke-linejoin:bevel;stroke:rgb(0%,0%,0%);stroke-opacity:1;stroke-miterlimit:2.613;" d="M 56.810313 76.692982 C 62.076279 76.92828 67.436364 77.12593 73.092925 76.810631 L 73.56352 77.478877 C 66.179874 77.78947 62.509227 77.643585 57.323263 77.398875 Z M 60.405664 79.601263 L 59.638593 79.04596 C 64.622202 79.074196 69.798755 79.036548 74.189413 78.537717 L 74.697656 79.130667 C 68.721091 79.638911 65.196329 79.624793 60.405664 79.601263 Z M 68.377556 82.937787 L 67.869312 82.650723 C 71.22466 82.264835 73.61058 81.671884 76.735335 80.777752 L 77.389463 81.2107 C 74.655302 82.024831 72.208205 82.627194 68.377556 82.937787 Z M 71.798786 84.274279 L 71.248189 83.907214 C 73.963527 83.309557 76.236504 82.622488 78.067121 81.601295 L 78.678896 81.958948 C 76.3918 83.135437 74.627067 83.662504 71.798786 84.274279 Z M 74.96119 85.394296 C 77.041223 84.589578 78.415362 83.587209 79.33773 82.194246 L 79.925974 82.349542 C 78.885958 83.784859 77.690645 84.867229 75.408255 85.690772 Z M 74.96119 85.394296 " transform="matrix(0.830065,0,0,0.830065,0,0)"/>
<path style="fill-rule:evenodd;fill:rgb(0%,0%,0%);fill-opacity:1;stroke-width:0.4;stroke-linecap:butt;stroke-linejoin:bevel;stroke:rgb(0%,0%,0%);stroke-opacity:1;stroke-miterlimit:2.613;" d="M 74.429416 75.869439 C 67.90696 76.184738 61.229207 76.302387 55.869122 75.732967 L 55.299701 75.083544 C 57.812682 75.398844 61.389209 75.516492 64.292785 75.516492 C 71.638784 75.516492 76.434154 74.86707 78.867134 74.86707 C 80.622456 74.86707 81.460116 75.262371 81.460116 76.085913 C 81.460116 77.220049 81.050698 77.596525 81.050698 78.443598 C 81.050698 79.088314 81.168347 79.403613 81.168347 80.288333 C 81.168347 80.956579 80.457747 81.111875 79.968328 81.111875 C 78.928311 81.111875 77.455347 80.584808 77.455347 79.229493 L 78.024768 79.26714 C 78.053003 79.784796 78.467128 80.217744 78.805956 80.37304 C 79.398907 80.64128 80.184802 80.631868 80.368334 80.368334 C 80.61775 80.015387 80.438924 79.445967 79.991858 79.33773 C 79.502438 79.220081 78.867134 79.285964 78.024768 79.26714 L 77.455347 79.229493 C 76.805925 79.229493 76.010618 78.344773 76.010618 77.629467 L 76.805925 77.620055 C 76.749453 78.245948 77.220049 78.467128 77.657703 78.584776 C 78.297713 78.758897 79.474202 78.725955 79.714206 78.500069 C 80.034211 78.2083 79.714206 77.605937 79.125962 77.577702 C 78.67419 77.558878 77.888295 77.638879 76.805925 77.620055 L 76.010618 77.629467 C 75.605906 77.624761 74.429416 76.772983 74.429416 75.869439 L 75.469433 75.869439 C 75.525904 76.594157 76.085913 76.88122 76.768277 76.951809 C 77.535348 77.027105 78.810662 77.008281 79.361259 76.83416 C 79.90715 76.655334 79.53538 76.052972 78.998901 75.907087 C 78.123593 75.671789 76.725923 75.75179 75.469433 75.869439 Z M 74.429416 75.869439 " transform="matrix(0.830065,0,0,0.830065,0,0)"/>
<path style="fill-rule:evenodd;fill:rgb(0%,0%,0%);fill-opacity:1;stroke-width:0.4;stroke-linecap:butt;stroke-linejoin:bevel;stroke:rgb(0%,0%,0%);stroke-opacity:1;stroke-miterlimit:2.613;" d="M 70.796418 76.005912 C 70.245821 76.203562 70.382293 76.871808 70.970538 76.909456 L 69.930521 76.951809 C 69.459926 76.711806 69.657576 76.085913 69.991699 76.024736 Z M 71.61996 77.558878 C 70.424647 77.657703 70.777594 78.754191 72.467032 78.716543 L 70.895243 78.796545 C 69.775225 78.711837 69.87405 77.624761 70.443471 77.558878 Z M 74.377651 80.368334 C 73.685875 80.744811 74.25059 81.28129 75.351784 81.163641 L 74.104705 81.497764 C 73.309399 81.526 72.984688 80.787164 73.370576 80.523631 Z M 76.137679 81.554235 C 75.441197 81.930712 75.921205 82.368366 77.14946 82.086008 L 75.784732 82.655429 C 74.989425 82.683665 74.636479 82.175422 75.027073 81.860123 Z M 77.681233 82.438955 C 77.050634 82.989552 77.841235 83.361323 78.87184 82.834256 L 78.104769 83.62015 C 77.210637 83.893096 76.452978 83.460148 76.61298 82.890727 Z M 74.095293 75.878851 C 74.095293 76.142385 74.377651 76.829454 74.608243 77.05534 L 73.897643 77.097694 C 73.671757 76.843572 73.3894 76.26474 73.347046 75.921205 Z M 74.951778 78.556541 C 74.725892 78.354185 74.415299 77.874177 74.340003 77.572996 L 74.96119 77.511818 C 74.989425 77.747116 75.314136 78.321243 75.535316 78.500069 Z M 76.340035 79.817737 C 76.109443 79.671853 75.770614 79.29067 75.667083 79.031842 L 76.156503 78.951841 C 76.212974 79.154197 76.580039 79.620087 76.801219 79.742442 Z M 77.488288 80.608338 C 77.441229 80.631868 77.069458 80.34951 76.937692 80.142448 L 77.30005 80.038917 C 77.384757 80.208332 77.784764 80.561278 77.827117 80.518925 Z M 78.387126 81.205995 C 78.316537 81.205995 77.916531 81.017756 77.751822 80.857754 L 77.98712 80.730693 C 78.100063 80.871872 78.537717 81.111875 78.598894 81.097758 Z M 78.947135 81.285996 C 79.088314 81.394233 79.573027 81.526 79.68597 81.47894 L 79.596557 81.601295 C 79.46479 81.638943 79.041254 81.549529 78.843604 81.43188 Z M 73.83176 79.935386 C 72.819979 80.062447 72.396443 79.540086 72.975276 79.26714 L 71.836434 79.33773 C 71.488193 79.521262 71.582312 80.184802 72.434091 80.15186 Z M 73.83176 79.935386 " transform="matrix(0.830065,0,0,0.830065,0,0)"/>
<path style="fill-rule:evenodd;fill:rgb(0%,0%,0%);fill-opacity:1;stroke-width:0.4;stroke-linecap:butt;stroke-linejoin:bevel;stroke:rgb(0%,0%,0%);stroke-opacity:1;stroke-miterlimit:2.613;" d="M 64.255137 81.328349 L 63.50689 80.947167 C 68.029315 80.820106 71.403486 80.344804 75.365902 79.681264 L 75.944735 80.15186 C 71.379956 80.834224 68.852857 81.248348 64.255137 81.328349 Z M 64.255137 81.328349 " transform="matrix(0.830065,0,0,0.830065,0,0)"/>
</g>
</svg>
