<?xml version="1.0" encoding="UTF-8"?>
<svg xmlns="http://www.w3.org/2000/svg" xmlns:xlink="http://www.w3.org/1999/xlink" width="160px" height="160px" viewBox="0 0 160 113" version="1.1">
<g id="surface1">
<path style="fill-rule:evenodd;fill:rgb(0%,0%,0%);fill-opacity:1;stroke-width:0.0879019;stroke-linecap:butt;stroke-linejoin:miter;stroke:rgb(0%,0%,0%);stroke-opacity:1;stroke-miterlimit:2.6131;" d="M 57.700439 42.798845 L 57.700439 43.200187 C 58.999268 43.802199 59.801758 44.502212 60.298096 45.300228 L 60.298096 69.399371 C 59.801758 70.099385 59.101318 70.701397 58.400879 71.000069 L 58.400879 71.602081 L 66.5 71.602081 L 66.5 71.000069 C 65.799561 70.701397 65.201172 70.099385 64.802246 69.399371 L 64.802246 45.202226 C 65.201172 44.198873 66.101074 43.601528 67.200439 43.102185 L 67.200439 42.700843 L 57.700439 42.700843 Z M 57.700439 42.798845 " transform="matrix(0.842105,0,0,0.837037,0,0)"/>
<path style="fill-rule:evenodd;fill:rgb(0%,0%,0%);fill-opacity:1;stroke-width:0.0879019;stroke-linecap:butt;stroke-linejoin:miter;stroke:rgb(0%,0%,0%);stroke-opacity:1;stroke-miterlimit:2.6131;" d="M 79.400146 42.798845 L 70.299072 42.798845 L 70.299072 43.200187 C 71.398438 43.69953 72.200928 44.301542 72.599854 45.300228 L 82.299316 71.000069 C 82.401367 71.298742 83.199219 71.298742 83.30127 71.000069 L 89.099609 54.801749 C 89.299072 54.297739 89.600586 54.297739 89.697998 54.801749 L 95.899902 71.000069 C 96.001953 71.298742 96.799805 71.298742 96.901855 71.000069 L 105.998291 45.300228 C 106.299805 44.502212 106.898193 43.802199 107.900146 43.200187 L 107.900146 42.798845 L 101.800293 42.798845 L 101.800293 43.200187 C 103.201172 43.69953 103.999023 44.399544 103.702148 45.300228 L 97.89917 62.301231 C 97.699707 62.800574 97.398193 62.800574 97.300781 62.301231 L 91.497803 46.499585 C 90.899414 44.898887 91.901367 43.498859 93.098145 43.298189 L 93.098145 42.901514 L 84.001709 42.901514 L 84.001709 43.298189 C 85.198486 43.498859 86.098389 44.600214 86.900879 46.499585 L 88.199707 49.700982 C 88.39917 50.298327 88.39917 50.498998 88.199707 50.998341 L 84.298584 62.301231 C 84.201172 62.697905 83.802246 62.599903 83.700195 62.301231 L 78.19873 46.499585 C 77.600342 44.698216 77.999268 43.498859 79.502197 43.298189 L 79.502197 42.798845 Z M 79.400146 42.798845 " transform="matrix(0.842105,0,0,0.837037,0,0)"/>
<path style="fill-rule:evenodd;fill:rgb(0%,0%,0%);fill-opacity:1;stroke-width:0.0879019;stroke-linecap:butt;stroke-linejoin:miter;stroke:rgb(0%,0%,0%);stroke-opacity:1;stroke-miterlimit:2.6131;" d="M 133.398926 51.600353 L 133.700439 51.600353 L 133.398926 42.798845 L 133.102051 42.798845 C 131.798584 45.300228 129.799316 43.298189 126.102295 42.798845 C 117.098633 41.501486 108.498535 47.101597 108.498535 57.797808 C 108.498535 67.098659 115.901855 72.801438 124.399902 72.400097 C 128.398438 72.199426 131.599121 69.698043 134.099365 65.899302 L 133.797852 65.899302 C 131.200195 68.601355 128.301025 70.398057 124.399902 70.398057 C 117.799072 70.398057 113.601074 65.399959 113.698486 57.797808 C 113.800537 48.800297 117.200684 44.100871 124.399902 44.198873 C 129.400391 44.198873 131.900635 47.199599 133.398926 51.600353 Z M 133.398926 51.600353 " transform="matrix(0.842105,0,0,0.837037,0,0)"/>
<path style=" stroke:none;fill-rule:nonzero;fill:rgb(0%,0%,0%);fill-opacity:1;" d="M 31.578125 74.832031 C 31.578125 75.164062 31.496094 75.417969 31.328125 75.585938 C 31.15625 75.835938 30.90625 76.003906 30.652344 76.085938 C 30.398438 76.253906 30.0625 76.335938 29.726562 76.335938 C 29.390625 76.421875 29.050781 76.421875 28.800781 76.421875 C 28.546875 76.421875 28.378906 76.421875 28.125 76.421875 C 27.875 76.421875 27.621094 76.335938 27.367188 76.253906 C 27.117188 76.171875 26.863281 76.085938 26.609375 76.003906 C 26.359375 75.917969 26.105469 75.75 25.9375 75.667969 L 26.105469 75.5 C 26.273438 75.667969 26.527344 75.75 26.695312 75.835938 C 26.949219 75.917969 27.117188 76.003906 27.367188 76.085938 C 27.621094 76.171875 27.789062 76.171875 28.042969 76.253906 C 28.292969 76.253906 28.464844 76.335938 28.632812 76.335938 C 28.800781 76.335938 29.050781 76.335938 29.222656 76.335938 C 29.472656 76.335938 29.640625 76.253906 29.894531 76.253906 C 30.0625 76.171875 30.316406 76.085938 30.484375 76.003906 C 30.652344 75.917969 30.820312 75.75 30.90625 75.667969 C 30.988281 75.585938 30.988281 75.5 31.074219 75.417969 C 31.15625 75.332031 31.15625 75.164062 31.15625 75.082031 C 31.15625 74.832031 31.074219 74.664062 30.988281 74.496094 C 30.90625 74.328125 30.738281 74.246094 30.652344 74.078125 C 30.484375 73.992188 30.316406 73.910156 30.230469 73.828125 C 30.0625 73.742188 29.894531 73.742188 29.808594 73.660156 C 29.726562 73.660156 29.640625 73.574219 29.558594 73.574219 C 29.472656 73.574219 29.390625 73.492188 29.304688 73.492188 L 27.875 73.15625 C 27.621094 73.074219 27.367188 72.988281 27.117188 72.90625 C 26.863281 72.820312 26.695312 72.65625 26.527344 72.570312 C 26.359375 72.402344 26.191406 72.320312 26.105469 72.070312 C 26.019531 71.902344 25.9375 71.648438 25.9375 71.398438 C 25.9375 71.0625 26.019531 70.8125 26.191406 70.644531 C 26.359375 70.394531 26.609375 70.226562 26.863281 70.144531 C 27.117188 69.976562 27.453125 69.894531 27.789062 69.894531 C 28.125 69.808594 28.464844 69.808594 28.714844 69.808594 C 29.136719 69.808594 29.640625 69.894531 30.0625 69.976562 C 30.484375 70.058594 30.988281 70.3125 31.410156 70.644531 L 31.242188 70.8125 C 31.074219 70.644531 30.820312 70.5625 30.652344 70.480469 C 30.398438 70.394531 30.230469 70.3125 29.980469 70.226562 C 29.726562 70.144531 29.558594 70.144531 29.304688 70.058594 C 29.050781 70.058594 28.882812 69.976562 28.714844 69.976562 C 28.546875 69.976562 28.378906 69.976562 28.125 69.976562 C 27.957031 69.976562 27.707031 70.058594 27.535156 70.058594 C 27.367188 70.144531 27.117188 70.226562 26.949219 70.3125 C 26.777344 70.394531 26.609375 70.5625 26.441406 70.730469 C 26.359375 70.8125 26.359375 70.898438 26.273438 71.0625 C 26.191406 71.148438 26.191406 71.316406 26.191406 71.398438 C 26.191406 71.648438 26.273438 71.816406 26.359375 71.984375 C 26.441406 72.152344 26.609375 72.234375 26.777344 72.402344 C 26.949219 72.488281 27.117188 72.570312 27.285156 72.65625 C 27.453125 72.738281 27.621094 72.820312 27.789062 72.820312 C 27.875 72.820312 27.957031 72.90625 28.042969 72.90625 C 28.125 72.90625 28.210938 72.988281 28.292969 72.988281 L 29.472656 73.324219 C 29.726562 73.40625 29.980469 73.492188 30.230469 73.574219 C 30.484375 73.660156 30.652344 73.828125 30.820312 73.910156 C 30.988281 74.078125 31.15625 74.246094 31.242188 74.414062 C 31.496094 74.328125 31.578125 74.578125 31.578125 74.832031 Z M 31.578125 74.832031 "/>
<path style=" stroke:none;fill-rule:nonzero;fill:rgb(0%,0%,0%);fill-opacity:1;" d="M 28.800781 76.921875 C 28.546875 76.921875 28.292969 76.921875 28.042969 76.839844 C 27.789062 76.839844 27.535156 76.757812 27.285156 76.671875 C 27.03125 76.589844 26.777344 76.503906 26.527344 76.421875 C 26.273438 76.335938 26.019531 76.171875 25.769531 76.003906 L 25.261719 75.75 L 26.191406 74.914062 L 26.527344 75.164062 C 26.695312 75.25 26.863281 75.417969 27.03125 75.5 C 27.199219 75.585938 27.453125 75.667969 27.621094 75.75 C 27.789062 75.835938 28.042969 75.835938 28.210938 75.917969 C 28.632812 76.003906 28.96875 76.003906 29.304688 75.917969 C 29.472656 75.917969 29.726562 75.835938 29.894531 75.835938 C 30.0625 75.75 30.230469 75.75 30.398438 75.667969 C 30.484375 75.585938 30.652344 75.5 30.738281 75.417969 C 30.738281 75.417969 30.820312 75.332031 30.820312 75.25 C 30.820312 75.164062 30.820312 75.082031 30.820312 75.082031 C 30.820312 75 30.820312 74.832031 30.738281 74.746094 C 30.652344 74.664062 30.570312 74.578125 30.484375 74.496094 C 30.398438 74.414062 30.230469 74.328125 30.148438 74.328125 C 29.980469 74.246094 29.894531 74.246094 29.726562 74.160156 C 29.640625 74.160156 29.558594 74.078125 29.472656 74.078125 L 27.789062 73.660156 C 27.453125 73.574219 27.199219 73.492188 26.949219 73.40625 C 26.695312 73.324219 26.441406 73.15625 26.191406 72.988281 C 25.9375 72.820312 25.769531 72.570312 25.683594 72.402344 C 25.515625 72.152344 25.515625 71.902344 25.515625 71.566406 C 25.515625 71.148438 25.601562 70.8125 25.851562 70.480469 C 26.105469 70.226562 26.359375 69.976562 26.695312 69.808594 C 27.03125 69.640625 27.367188 69.558594 27.707031 69.472656 C 28.546875 69.308594 29.390625 69.390625 30.230469 69.558594 C 30.738281 69.726562 31.242188 69.976562 31.746094 70.3125 L 32.167969 70.644531 L 31.328125 71.484375 L 30.988281 71.230469 C 30.820312 71.148438 30.652344 70.980469 30.484375 70.898438 C 30.316406 70.8125 30.148438 70.730469 29.894531 70.644531 C 29.640625 70.394531 29.472656 70.3125 29.304688 70.3125 C 28.96875 70.226562 28.632812 70.226562 28.292969 70.3125 C 28.125 70.3125 27.957031 70.394531 27.707031 70.394531 C 27.535156 70.480469 27.367188 70.480469 27.199219 70.5625 C 27.03125 70.644531 26.949219 70.730469 26.863281 70.8125 C 26.863281 70.8125 26.777344 70.898438 26.777344 70.980469 C 26.777344 71.0625 26.777344 71.148438 26.777344 71.148438 C 26.777344 71.230469 26.777344 71.398438 26.863281 71.398438 C 26.949219 71.484375 27.03125 71.566406 27.117188 71.648438 C 27.285156 71.734375 27.367188 71.816406 27.535156 71.902344 C 27.707031 71.984375 27.875 71.984375 27.957031 72.070312 C 28.042969 72.070312 28.125 72.152344 28.210938 72.152344 C 28.292969 72.152344 28.378906 72.234375 28.464844 72.234375 L 29.640625 72.570312 C 29.894531 72.65625 30.230469 72.738281 30.484375 72.820312 C 30.738281 72.90625 30.988281 73.074219 31.242188 73.242188 C 31.496094 73.40625 31.664062 73.660156 31.746094 73.828125 C 31.914062 74.078125 32 74.414062 32 74.664062 C 32 75.082031 31.832031 75.417969 31.578125 75.75 C 31.328125 76.003906 31.074219 76.253906 30.738281 76.421875 C 30.398438 76.589844 30.0625 76.671875 29.726562 76.757812 C 29.472656 76.921875 29.136719 76.921875 28.800781 76.921875 Z M 28.800781 76.921875 "/>
<path style=" stroke:none;fill-rule:nonzero;fill:rgb(0%,0%,0%);fill-opacity:1;" d="M 41.347656 70.480469 L 41.179688 70.644531 C 40.925781 70.394531 40.589844 70.144531 40.167969 69.976562 C 39.832031 69.808594 39.410156 69.726562 38.988281 69.726562 C 38.570312 69.726562 38.148438 69.808594 37.726562 69.976562 C 37.304688 70.144531 36.96875 70.394531 36.714844 70.644531 C 36.464844 70.980469 36.210938 71.316406 36.042969 71.648438 C 35.875 72.070312 35.789062 72.488281 35.789062 72.90625 C 35.789062 73.324219 35.875 73.742188 36.042969 74.160156 C 36.210938 74.578125 36.464844 74.914062 36.714844 75.164062 C 36.96875 75.5 37.390625 75.667969 37.726562 75.835938 C 38.148438 76.003906 38.570312 76.085938 38.988281 76.085938 C 39.410156 76.085938 39.832031 76.003906 40.167969 75.835938 C 40.503906 75.667969 40.84375 75.5 41.179688 75.164062 L 41.347656 75.332031 C 41.011719 75.667969 40.671875 75.835938 40.253906 76.003906 C 39.832031 76.171875 39.410156 76.253906 38.988281 76.253906 C 38.484375 76.253906 38.0625 76.171875 37.640625 76.003906 C 37.222656 75.835938 36.800781 75.585938 36.546875 75.25 C 36.210938 74.914062 35.957031 74.578125 35.789062 74.160156 C 35.621094 73.742188 35.535156 73.324219 35.535156 72.820312 C 35.535156 72.320312 35.621094 71.902344 35.789062 71.484375 C 35.957031 71.0625 36.210938 70.730469 36.546875 70.394531 C 36.882812 70.058594 37.222656 69.808594 37.640625 69.640625 C 38.0625 69.472656 38.570312 69.390625 38.988281 69.390625 C 39.496094 69.390625 39.914062 69.472656 40.253906 69.640625 C 40.671875 69.976562 41.011719 70.226562 41.347656 70.480469 Z M 41.347656 70.480469 "/>
<path style=" stroke:none;fill-rule:nonzero;fill:rgb(0%,0%,0%);fill-opacity:1;" d="M 38.988281 76.921875 C 38.398438 76.921875 37.894531 76.839844 37.390625 76.589844 C 36.882812 76.421875 36.464844 76.085938 36.125 75.75 C 35.789062 75.417969 35.453125 75 35.285156 74.496094 C 35.117188 73.992188 34.949219 73.492188 34.949219 72.988281 C 34.949219 72.488281 35.03125 71.902344 35.285156 71.484375 C 35.453125 70.980469 35.789062 70.5625 36.125 70.226562 C 36.464844 69.894531 36.882812 69.558594 37.390625 69.390625 C 38.316406 68.972656 39.496094 68.972656 40.421875 69.390625 C 40.84375 69.558594 41.261719 69.808594 41.601562 70.144531 L 41.9375 70.480469 L 41.09375 71.316406 L 40.757812 70.980469 C 40.503906 70.730469 40.253906 70.5625 39.914062 70.394531 C 39.242188 70.144531 38.484375 70.144531 37.808594 70.394531 C 37.472656 70.5625 37.136719 70.730469 36.96875 70.980469 C 36.714844 71.230469 36.546875 71.566406 36.378906 71.902344 C 36.210938 72.234375 36.125 72.570312 36.125 72.988281 C 36.125 73.324219 36.210938 73.742188 36.378906 74.078125 C 36.546875 74.414062 36.714844 74.746094 36.96875 75 C 37.222656 75.25 37.472656 75.417969 37.808594 75.585938 C 38.398438 75.835938 39.242188 75.917969 39.914062 75.585938 C 40.253906 75.417969 40.503906 75.25 40.757812 75 L 41.09375 74.664062 L 42.019531 75.5 L 41.683594 75.835938 C 41.347656 76.171875 40.925781 76.421875 40.421875 76.589844 C 39.914062 76.839844 39.496094 76.921875 38.988281 76.921875 Z M 38.988281 76.921875 "/>
<path style=" stroke:none;fill-rule:nonzero;fill:rgb(0%,0%,0%);fill-opacity:1;" d="M 50.441406 76.335938 L 50.191406 76.335938 L 50.191406 73.15625 L 45.472656 73.15625 L 45.472656 76.335938 L 45.222656 76.335938 L 45.222656 69.640625 L 45.472656 69.640625 L 45.472656 72.90625 L 50.273438 72.90625 L 50.273438 69.640625 L 50.527344 69.640625 L 50.527344 76.335938 Z M 50.441406 76.335938 "/>
<path style=" stroke:none;fill-rule:nonzero;fill:rgb(0%,0%,0%);fill-opacity:1;" d="M 50.949219 76.839844 L 49.769531 76.839844 L 49.769531 73.660156 L 45.894531 73.660156 L 45.894531 76.839844 L 44.714844 76.839844 L 44.714844 69.222656 L 45.894531 69.222656 L 45.894531 72.488281 L 49.769531 72.488281 L 49.769531 69.222656 L 50.949219 69.222656 Z M 50.949219 76.839844 "/>
<path style=" stroke:none;fill-rule:nonzero;fill:rgb(0%,0%,0%);fill-opacity:1;" d="M 60.546875 76.335938 L 60.292969 76.335938 L 59.367188 74.328125 L 55.410156 74.328125 L 54.484375 76.335938 L 54.230469 76.335938 L 57.261719 69.640625 L 57.515625 69.640625 Z M 59.199219 74.078125 L 57.347656 69.976562 L 55.496094 74.078125 Z M 59.199219 74.078125 "/>
<path style=" stroke:none;fill-rule:nonzero;fill:rgb(0%,0%,0%);fill-opacity:1;" d="M 61.222656 76.839844 L 59.875 76.839844 L 58.949219 74.832031 L 55.578125 74.832031 L 54.738281 76.839844 L 53.390625 76.839844 L 56.925781 69.222656 L 57.769531 69.222656 Z M 56.167969 73.660156 L 58.441406 73.660156 L 57.347656 71.148438 Z M 56.167969 73.660156 "/>
<path style=" stroke:none;fill-rule:nonzero;fill:rgb(0%,0%,0%);fill-opacity:1;" d="M 69.136719 69.894531 L 64.421875 69.894531 L 64.421875 72.820312 L 68.632812 72.820312 L 68.632812 73.074219 L 64.421875 73.074219 L 64.421875 76.335938 L 64.167969 76.335938 L 64.167969 69.640625 L 69.136719 69.640625 Z M 69.136719 69.894531 "/>
<path style=" stroke:none;fill-rule:nonzero;fill:rgb(0%,0%,0%);fill-opacity:1;" d="M 64.84375 76.839844 L 63.664062 76.839844 L 63.664062 69.222656 L 69.640625 69.222656 L 69.640625 70.394531 L 64.84375 70.394531 L 64.84375 72.402344 L 69.136719 72.402344 L 69.136719 73.574219 L 64.84375 73.574219 Z M 64.84375 76.839844 "/>
<path style=" stroke:none;fill-rule:nonzero;fill:rgb(0%,0%,0%);fill-opacity:1;" d="M 77.726562 69.894531 L 73.011719 69.894531 L 73.011719 72.820312 L 77.222656 72.820312 L 77.222656 73.074219 L 73.011719 73.074219 L 73.011719 76.335938 L 72.757812 76.335938 L 72.757812 69.640625 L 77.726562 69.640625 Z M 77.726562 69.894531 "/>
<path style=" stroke:none;fill-rule:nonzero;fill:rgb(0%,0%,0%);fill-opacity:1;" d="M 73.515625 76.839844 L 72.253906 76.839844 L 72.253906 69.222656 L 78.230469 69.222656 L 78.230469 70.394531 L 73.515625 70.394531 L 73.515625 72.402344 L 77.726562 72.402344 L 77.726562 73.574219 L 73.515625 73.574219 Z M 73.515625 76.839844 "/>
<path style=" stroke:none;fill-rule:nonzero;fill:rgb(0%,0%,0%);fill-opacity:1;" d="M 86.652344 76.335938 L 86.398438 76.335938 L 86.398438 73.15625 L 81.601562 73.15625 L 81.601562 76.335938 L 81.347656 76.335938 L 81.347656 69.640625 L 81.601562 69.640625 L 81.601562 72.90625 L 86.398438 72.90625 L 86.398438 69.640625 L 86.652344 69.640625 Z M 86.652344 76.335938 "/>
<path style=" stroke:none;fill-rule:nonzero;fill:rgb(0%,0%,0%);fill-opacity:1;" d="M 87.15625 76.839844 L 85.894531 76.839844 L 85.894531 73.660156 L 82.105469 73.660156 L 82.105469 76.839844 L 80.925781 76.839844 L 80.925781 69.222656 L 82.105469 69.222656 L 82.105469 72.488281 L 85.894531 72.488281 L 85.894531 69.222656 L 87.15625 69.222656 Z M 87.15625 76.839844 "/>
<path style=" stroke:none;fill-rule:nonzero;fill:rgb(0%,0%,0%);fill-opacity:1;" d="M 96.671875 76.335938 L 96.421875 76.335938 L 95.496094 74.328125 L 91.535156 74.328125 L 90.609375 76.335938 L 90.359375 76.335938 L 93.390625 69.640625 L 93.640625 69.640625 Z M 95.410156 74.078125 L 93.558594 69.976562 L 91.707031 74.078125 Z M 95.410156 74.078125 "/>
<path style=" stroke:none;fill-rule:nonzero;fill:rgb(0%,0%,0%);fill-opacity:1;" d="M 97.429688 76.839844 L 96.085938 76.839844 L 95.15625 74.832031 L 91.789062 74.832031 L 90.863281 76.839844 L 89.515625 76.839844 L 93.050781 69.222656 L 93.894531 69.222656 Z M 92.378906 73.660156 L 94.652344 73.660156 L 93.472656 71.148438 Z M 92.378906 73.660156 "/>
<path style=" stroke:none;fill-rule:nonzero;fill:rgb(0%,0%,0%);fill-opacity:1;" d="M 106.105469 69.726562 L 106.105469 73.660156 C 106.105469 74.078125 106.019531 74.414062 105.851562 74.746094 C 105.683594 75.082031 105.515625 75.417969 105.261719 75.667969 C 105.011719 75.917969 104.671875 76.171875 104.335938 76.253906 C 104 76.421875 103.578125 76.503906 103.242188 76.503906 C 102.820312 76.503906 102.484375 76.421875 102.148438 76.253906 C 101.808594 76.085938 101.472656 75.917969 101.222656 75.667969 C 100.96875 75.417969 100.714844 75.082031 100.632812 74.746094 C 100.464844 74.414062 100.378906 73.992188 100.378906 73.660156 L 100.378906 69.726562 L 100.632812 69.726562 L 100.632812 73.660156 C 100.632812 73.992188 100.714844 74.328125 100.800781 74.664062 C 100.96875 75 101.136719 75.25 101.390625 75.5 C 101.640625 75.75 101.894531 75.917969 102.230469 76.085938 C 102.570312 76.253906 102.90625 76.253906 103.242188 76.253906 C 103.578125 76.253906 103.914062 76.171875 104.253906 76.085938 C 104.589844 76.003906 104.84375 75.75 105.09375 75.5 C 105.347656 75.25 105.515625 75 105.683594 74.664062 C 105.851562 74.328125 105.851562 73.992188 105.851562 73.660156 L 105.851562 69.640625 L 106.105469 69.640625 Z M 106.105469 69.726562 "/>
<path style=" stroke:none;fill-rule:nonzero;fill:rgb(0%,0%,0%);fill-opacity:1;" d="M 103.242188 76.921875 C 102.738281 76.921875 102.316406 76.839844 101.894531 76.671875 C 101.472656 76.503906 101.136719 76.253906 100.800781 76.003906 C 100.464844 75.667969 100.292969 75.332031 100.125 74.914062 C 99.957031 74.496094 99.875 74.078125 99.875 73.660156 L 99.875 69.222656 L 101.050781 69.222656 L 101.050781 73.660156 C 101.050781 73.910156 101.136719 74.246094 101.222656 74.496094 C 101.304688 74.746094 101.472656 75 101.640625 75.164062 C 101.808594 75.332031 102.0625 75.5 102.316406 75.585938 C 102.820312 75.835938 103.410156 75.835938 104 75.585938 C 104.253906 75.5 104.503906 75.332031 104.671875 75.164062 C 104.84375 75 105.011719 74.746094 105.09375 74.496094 C 105.179688 74.246094 105.261719 73.992188 105.261719 73.660156 L 105.261719 69.222656 L 106.441406 69.222656 L 106.441406 73.660156 C 106.441406 74.078125 106.359375 74.578125 106.191406 74.914062 C 106.019531 75.332031 105.769531 75.667969 105.515625 76.003906 C 105.179688 76.335938 104.84375 76.503906 104.421875 76.757812 C 104.085938 76.839844 103.664062 76.921875 103.242188 76.921875 Z M 103.242188 76.921875 "/>
<path style=" stroke:none;fill-rule:nonzero;fill:rgb(0%,0%,0%);fill-opacity:1;" d="M 115.707031 74.832031 C 115.707031 75.164062 115.621094 75.417969 115.453125 75.585938 C 115.285156 75.835938 115.03125 76.003906 114.777344 76.085938 C 114.527344 76.253906 114.191406 76.335938 113.851562 76.335938 C 113.515625 76.421875 113.179688 76.421875 112.925781 76.421875 C 112.671875 76.421875 112.503906 76.421875 112.253906 76.421875 C 112 76.421875 111.746094 76.335938 111.496094 76.253906 C 111.242188 76.171875 110.988281 76.085938 110.738281 76.003906 C 110.484375 75.917969 110.230469 75.75 110.0625 75.667969 L 110.230469 75.5 C 110.398438 75.667969 110.652344 75.75 110.820312 75.835938 C 111.074219 75.917969 111.242188 76.003906 111.496094 76.085938 C 111.746094 76.171875 111.914062 76.171875 112.167969 76.253906 C 112.421875 76.335938 112.589844 76.335938 112.757812 76.335938 C 112.925781 76.335938 113.179688 76.335938 113.347656 76.335938 C 113.601562 76.335938 113.769531 76.253906 114.019531 76.253906 C 114.191406 76.171875 114.441406 76.085938 114.609375 76.003906 C 114.777344 75.917969 114.949219 75.75 115.03125 75.667969 C 115.117188 75.585938 115.117188 75.5 115.199219 75.417969 C 115.285156 75.332031 115.285156 75.164062 115.285156 75.082031 C 115.285156 74.832031 115.199219 74.664062 115.117188 74.496094 C 115.03125 74.328125 114.863281 74.246094 114.777344 74.078125 C 114.609375 73.992188 114.441406 73.910156 114.359375 73.828125 C 114.191406 73.742188 114.019531 73.742188 113.9375 73.660156 C 113.851562 73.660156 113.769531 73.574219 113.683594 73.574219 C 113.601562 73.574219 113.515625 73.492188 113.429688 73.492188 L 112 73.15625 C 111.746094 73.074219 111.496094 72.988281 111.242188 72.90625 C 110.988281 72.820312 110.820312 72.65625 110.652344 72.570312 C 110.484375 72.402344 110.316406 72.320312 110.230469 72.070312 C 110.148438 71.902344 110.0625 71.648438 110.0625 71.398438 C 110.0625 71.0625 110.148438 70.8125 110.316406 70.644531 C 110.484375 70.394531 110.738281 70.226562 110.988281 70.144531 C 111.242188 69.976562 111.578125 69.894531 111.914062 69.894531 C 112.253906 69.808594 112.589844 69.808594 112.84375 69.808594 C 113.261719 69.808594 113.769531 69.894531 114.191406 69.976562 C 114.609375 70.058594 115.117188 70.3125 115.535156 70.644531 L 115.367188 70.8125 C 115.199219 70.644531 114.949219 70.5625 114.777344 70.480469 C 114.527344 70.394531 114.359375 70.3125 114.105469 70.226562 C 113.851562 70.144531 113.683594 70.144531 113.429688 70.058594 C 113.179688 70.058594 113.011719 69.976562 112.84375 69.976562 C 112.671875 69.976562 112.503906 69.976562 112.253906 69.976562 C 112.085938 69.976562 111.832031 70.058594 111.664062 70.058594 C 111.496094 70.144531 111.242188 70.226562 111.074219 70.3125 C 110.90625 70.394531 110.738281 70.5625 110.570312 70.730469 C 110.484375 70.8125 110.484375 70.898438 110.398438 71.0625 C 110.316406 71.148438 110.316406 71.316406 110.316406 71.398438 C 110.316406 71.648438 110.398438 71.816406 110.484375 71.984375 C 110.570312 72.152344 110.738281 72.234375 110.90625 72.402344 C 111.074219 72.488281 111.242188 72.570312 111.410156 72.65625 C 111.578125 72.738281 111.746094 72.820312 111.914062 72.820312 C 112 72.820312 112.085938 72.90625 112.167969 72.90625 C 112.253906 72.90625 112.335938 72.988281 112.421875 72.988281 L 113.601562 73.324219 C 113.851562 73.40625 114.105469 73.492188 114.359375 73.574219 C 114.609375 73.660156 114.777344 73.828125 114.949219 73.910156 C 115.117188 74.078125 115.285156 74.246094 115.367188 74.414062 C 115.621094 74.328125 115.707031 74.578125 115.707031 74.832031 Z M 115.707031 74.832031 "/>
<path style=" stroke:none;fill-rule:nonzero;fill:rgb(0%,0%,0%);fill-opacity:1;" d="M 112.925781 76.921875 C 112.671875 76.921875 112.421875 76.921875 112.167969 76.839844 C 111.914062 76.839844 111.664062 76.757812 111.410156 76.671875 C 111.15625 76.589844 110.90625 76.503906 110.652344 76.421875 C 110.398438 76.335938 110.148438 76.171875 109.894531 76.003906 L 109.390625 75.667969 L 110.316406 74.832031 L 110.652344 75.082031 C 110.820312 75.164062 110.988281 75.332031 111.15625 75.417969 C 111.328125 75.5 111.578125 75.585938 111.746094 75.667969 C 111.914062 75.75 112.167969 75.75 112.335938 75.835938 C 112.757812 75.917969 113.09375 75.917969 113.429688 75.835938 C 113.601562 75.835938 113.851562 75.75 114.019531 75.75 C 114.191406 75.667969 114.359375 75.667969 114.527344 75.585938 C 114.609375 75.5 114.777344 75.417969 114.863281 75.332031 C 114.863281 75.332031 114.949219 75.25 114.949219 75.164062 C 114.949219 75.082031 114.949219 75 114.949219 75 C 114.949219 74.914062 114.949219 74.746094 114.863281 74.664062 C 114.777344 74.578125 114.695312 74.496094 114.609375 74.414062 C 114.527344 74.328125 114.359375 74.246094 114.273438 74.246094 C 114.105469 74.160156 114.019531 74.160156 113.851562 74.078125 C 113.769531 74.078125 113.683594 73.992188 113.601562 73.992188 L 111.914062 73.574219 C 111.578125 73.492188 111.328125 73.40625 111.074219 73.324219 C 110.820312 73.242188 110.570312 73.074219 110.316406 72.90625 C 110.0625 72.738281 109.894531 72.488281 109.808594 72.320312 C 109.640625 72.070312 109.640625 71.816406 109.640625 71.484375 C 109.640625 71.0625 109.726562 70.730469 109.980469 70.394531 C 110.230469 70.144531 110.484375 69.894531 110.820312 69.726562 C 111.15625 69.558594 111.496094 69.472656 111.832031 69.390625 C 112.671875 69.222656 113.515625 69.308594 114.359375 69.472656 C 114.863281 69.640625 115.367188 69.894531 115.875 70.226562 L 116.292969 70.5625 L 115.453125 71.398438 L 115.117188 71.148438 C 114.949219 71.0625 114.777344 70.898438 114.609375 70.8125 C 114.441406 70.730469 114.273438 70.644531 114.019531 70.5625 C 113.851562 70.480469 113.601562 70.480469 113.429688 70.480469 C 113.09375 70.394531 112.84375 70.394531 112.421875 70.480469 C 112.253906 70.480469 112.085938 70.5625 111.832031 70.5625 C 111.664062 70.644531 111.496094 70.644531 111.328125 70.730469 C 111.15625 70.8125 111.074219 70.898438 110.988281 70.980469 C 110.988281 70.980469 110.90625 71.0625 110.90625 71.148438 C 110.90625 71.230469 110.90625 71.316406 110.90625 71.316406 C 110.90625 71.398438 110.90625 71.566406 110.988281 71.566406 C 111.074219 71.648438 111.15625 71.734375 111.242188 71.816406 C 111.410156 71.902344 111.496094 71.984375 111.664062 72.070312 C 111.832031 72.152344 112 72.152344 112.085938 72.234375 C 112.167969 72.234375 112.253906 72.320312 112.335938 72.320312 C 112.421875 72.320312 112.503906 72.402344 112.589844 72.402344 L 113.769531 72.738281 C 114.019531 72.820312 114.359375 72.90625 114.609375 72.988281 C 114.863281 73.074219 115.117188 73.242188 115.367188 73.40625 C 115.621094 73.574219 115.789062 73.828125 115.875 73.992188 C 116.042969 74.246094 116.125 74.578125 116.125 74.832031 C 116.125 75.25 115.957031 75.585938 115.707031 75.917969 C 115.453125 76.171875 115.199219 76.421875 114.863281 76.589844 C 114.527344 76.757812 114.191406 76.839844 113.851562 76.921875 C 113.601562 76.921875 113.261719 76.921875 112.925781 76.921875 Z M 112.925781 76.921875 "/>
<path style=" stroke:none;fill-rule:nonzero;fill:rgb(0%,0%,0%);fill-opacity:1;" d="M 124.800781 76.335938 L 119.746094 76.335938 L 119.746094 69.640625 L 124.800781 69.640625 L 124.800781 69.894531 L 120 69.894531 L 120 72.820312 L 124.292969 72.820312 L 124.292969 73.074219 L 120 73.074219 L 120 76.171875 L 124.800781 76.171875 Z M 124.800781 76.335938 "/>
<path style=" stroke:none;fill-rule:nonzero;fill:rgb(0%,0%,0%);fill-opacity:1;" d="M 125.222656 76.839844 L 119.242188 76.839844 L 119.242188 69.222656 L 125.222656 69.222656 L 125.222656 70.394531 L 120.421875 70.394531 L 120.421875 72.402344 L 124.714844 72.402344 L 124.714844 73.574219 L 120.421875 73.574219 L 120.421875 75.667969 L 125.222656 75.667969 Z M 125.222656 76.839844 "/>
<path style=" stroke:none;fill-rule:nonzero;fill:rgb(0%,0%,0%);fill-opacity:1;" d="M 134.230469 76.335938 L 133.980469 76.335938 L 128.925781 70.058594 L 128.925781 76.335938 L 128.671875 76.335938 L 128.671875 69.640625 L 128.925781 69.640625 L 133.980469 75.917969 L 133.980469 69.640625 L 134.230469 69.640625 Z M 134.230469 76.335938 "/>
<path style=" stroke:none;fill-rule:nonzero;fill:rgb(0%,0%,0%);fill-opacity:1;" d="M 134.738281 76.839844 L 133.726562 76.839844 L 129.347656 71.398438 L 129.429688 76.839844 L 128.167969 76.839844 L 128.167969 69.222656 L 129.179688 69.222656 L 133.558594 74.664062 L 133.558594 69.222656 L 134.738281 69.222656 Z M 134.738281 76.839844 "/>
</g>
</svg>
