<?xml version="1.0" encoding="UTF-8"?>
<svg xmlns="http://www.w3.org/2000/svg" xmlns:xlink="http://www.w3.org/1999/xlink" width="160px" height="160px" viewBox="0 0 160 160" version="1.1">
<g id="surface1">
<rect x="0" y="0" width="160" height="160" style="fill:rgb(100%,100%,100%);fill-opacity:1;stroke:none;"/>
<path style=" stroke:none;fill-rule:evenodd;fill:rgb(0%,0%,0%);fill-opacity:1;" d="M 93.207031 71.789062 C 88.183594 74.039062 83.878906 74.203125 83.878906 74.203125 L 83.878906 64.09375 L 87.859375 64.09375 L 85.511719 60.667969 L 81.140625 60.699219 L 80.195312 62.042969 L 79.25 60.699219 L 74.878906 60.667969 L 72.53125 64.09375 L 76.507812 64.09375 L 76.507812 74.203125 C 76.507812 74.203125 72.203125 74.039062 67.179688 71.789062 L 64.246094 75.835938 C 64.246094 75.835938 64.996094 76.191406 68.160156 77.300781 L 69.105469 75.867188 C 69.105469 75.867188 73.945312 77.605469 80.195312 77.566406 C 86.445312 77.605469 91.285156 75.867188 91.285156 75.867188 L 92.230469 77.300781 C 95.394531 76.191406 96.144531 75.835938 96.144531 75.835938 Z M 79.835938 76.714844 C 74.390625 76.878906 68.84375 74.953125 68.84375 74.953125 L 67.898438 76.324219 C 66.070312 75.769531 65.417969 75.410156 65.417969 75.410156 L 67.375 72.703125 C 72.238281 74.789062 77.160156 74.984375 77.160156 74.984375 L 77.160156 63.34375 L 73.800781 63.34375 L 75.203125 61.386719 L 78.824219 61.386719 L 79.835938 62.855469 Z M 91.546875 74.953125 C 91.546875 74.953125 86 76.878906 80.554688 76.714844 L 80.554688 62.851562 L 81.5625 61.386719 L 85.183594 61.386719 L 86.585938 63.34375 L 83.226562 63.34375 L 83.226562 74.984375 C 83.226562 74.984375 88.152344 74.789062 93.011719 72.703125 L 94.96875 75.410156 C 94.96875 75.410156 94.316406 75.769531 92.488281 76.324219 Z M 154.277344 87.574219 C 154.277344 87.574219 152.753906 88.402344 150.296875 91.316406 L 148.816406 91.316406 C 148.816406 91.316406 148.425781 91.425781 148.425781 90.925781 L 148.425781 87.164062 C 148.425781 87.164062 148.363281 86.816406 148.753906 86.816406 L 149.863281 86.816406 C 149.863281 86.816406 150.167969 86.773438 150.40625 87.273438 L 150.558594 87.597656 C 150.558594 87.597656 150.644531 87.96875 151.101562 87.859375 C 151.101562 87.859375 151.535156 87.921875 151.40625 87.425781 C 151.277344 86.925781 151.382812 87.359375 151.382812 87.359375 L 150.753906 85.425781 C 150.753906 85.425781 150.710938 85.164062 150.382812 85.164062 L 150.078125 85.140625 C 150.078125 85.140625 149.753906 85.121094 149.820312 85.511719 C 149.820312 85.511719 149.90625 85.925781 149.449219 85.925781 L 148.796875 85.925781 C 148.796875 85.925781 148.449219 86.011719 148.449219 85.382812 L 148.449219 84.273438 C 148.449219 84.273438 148.386719 83.945312 148.863281 83.945312 L 151.125 83.945312 C 151.125 83.945312 151.648438 83.773438 151.972656 84.511719 L 152.144531 84.878906 C 152.144531 84.878906 152.144531 85.25 152.667969 85.140625 C 152.667969 85.140625 153.234375 85.207031 153.0625 84.683594 L 152.648438 83.421875 C 152.648438 83.421875 152.625 83.140625 152.253906 83.140625 L 145.796875 83.140625 C 145.796875 83.140625 145.429688 83.054688 145.429688 83.46875 L 145.429688 83.683594 C 145.429688 83.683594 145.363281 83.878906 145.796875 83.988281 C 145.796875 83.988281 146.277344 84.011719 146.277344 84.640625 L 146.230469 90.792969 C 146.230469 90.792969 146.230469 91.359375 145.863281 91.46875 C 145.863281 91.46875 145.449219 91.335938 145.429688 91.816406 C 145.429688 91.816406 145.253906 92.207031 145.839844 92.230469 L 148.949219 92.230469 C 148.949219 92.230469 149.492188 92.207031 149.210938 92.578125 C 149.210938 92.578125 148.125 94.382812 145.992188 95.640625 C 145.992188 95.640625 144.625 96.511719 142.210938 96.535156 L 16.808594 96.535156 C 16.808594 96.535156 14.15625 96.792969 12.765625 95.402344 L 10.65625 93.078125 C 10.65625 93.078125 10.484375 92.792969 10.789062 92.707031 C 10.789062 92.707031 13.375 92.207031 14.289062 90.46875 C 15.199219 88.730469 15.308594 87.46875 15.308594 86.207031 L 15.308594 80.378906 C 15.308594 80.378906 15.222656 79.964844 15.746094 79.945312 L 16.265625 79.945312 C 16.265625 79.945312 16.527344 80.050781 16.527344 79.53125 L 16.527344 79.289062 C 16.527344 79.289062 16.699219 78.941406 16.203125 78.941406 L 11.699219 78.941406 C 11.699219 78.941406 11.375 78.832031 11.351562 79.246094 L 11.351562 79.53125 C 11.351562 79.53125 11.222656 79.921875 11.746094 79.921875 L 12.113281 79.921875 C 12.113281 79.921875 12.703125 79.835938 12.679688 80.574219 L 12.679688 87.617188 C 12.679688 87.617188 12.960938 91.292969 9.679688 91.769531 C 9.679688 91.769531 7.527344 88.617188 6.179688 87.855469 C 6.179688 87.855469 4.285156 86.421875 2.808594 87.746094 C 2.808594 87.746094 1.351562 89.402344 3.570312 91.3125 C 3.570312 91.3125 5.808594 93.097656 9.394531 92.988281 C 9.394531 92.988281 11.308594 95.878906 11.722656 96.359375 C 11.722656 96.359375 13.136719 98.054688 14.308594 98.535156 C 15.484375 99.011719 15.679688 99.316406 19.746094 99.316406 L 139.75 99.316406 C 139.75 99.316406 142.839844 99.511719 144.601562 98.46875 C 144.601562 98.46875 146.035156 97.792969 147.601562 96.011719 L 150.753906 92.226562 C 150.753906 92.226562 153.992188 92.3125 155.734375 91.183594 C 155.734375 91.183594 157.515625 90.269531 157.648438 88.8125 C 157.777344 87.359375 156.363281 86.574219 154.277344 87.574219 Z M 5.980469 91.511719 C 4.589844 90.882812 4.980469 89.945312 4.980469 89.945312 C 5.285156 89.273438 6.222656 89.726562 6.222656 89.726562 C 7.375 90.230469 8.589844 92.054688 8.589844 92.054688 C 7.003906 92.25 5.980469 91.511719 5.980469 91.511719 Z M 154.253906 90.792969 C 153.320312 91.425781 151.339844 91.335938 151.339844 91.335938 C 151.667969 90.773438 152.90625 89.597656 152.90625 89.597656 C 153.90625 88.726562 154.582031 89.140625 154.582031 89.140625 C 155.539062 90.011719 154.253906 90.792969 154.253906 90.792969 Z M 154.253906 90.792969 "/>
<path style=" stroke:none;fill-rule:evenodd;fill:rgb(0%,0%,0%);fill-opacity:1;" d="M 25.550781 91.707031 C 25.550781 91.707031 25.574219 91.46875 25.203125 91.382812 C 25.203125 91.382812 24.789062 91.359375 24.550781 90.75 L 22.050781 83.402344 C 22.050781 83.402344 22.070312 83.054688 21.675781 83.054688 L 19.695312 83.054688 C 19.695312 83.054688 19.417969 83.054688 19.246094 83.464844 L 16.460938 90.882812 C 16.460938 90.882812 16.484375 91.382812 15.570312 91.359375 C 15.570312 91.359375 15.199219 91.382812 15.265625 91.75 L 15.265625 92.011719 C 15.265625 92.011719 15.222656 92.292969 15.652344 92.292969 L 18.042969 92.292969 C 18.042969 92.292969 18.355469 92.316406 18.375 92.054688 L 18.375 91.792969 C 18.375 91.792969 18.460938 91.46875 18.09375 91.402344 C 18.09375 91.402344 17.441406 91.316406 17.65625 90.730469 L 18.003906 89.921875 L 21.917969 89.921875 L 22.289062 90.859375 C 22.289062 90.859375 22.441406 91.316406 22.136719 91.382812 C 22.136719 91.382812 21.679688 91.402344 21.679688 91.640625 L 21.679688 91.96875 C 21.679688 91.96875 21.550781 92.292969 22.132812 92.292969 L 25.21875 92.292969 C 25.21875 92.292969 25.574219 92.402344 25.574219 92.011719 Z M 21.3125 88.925781 L 18.832031 88.925781 C 18.203125 88.925781 18.527344 88.335938 18.527344 88.335938 L 19.832031 84.945312 C 20.09375 84.421875 20.355469 84.945312 20.355469 84.945312 L 21.441406 88.273438 C 21.703125 89.097656 21.3125 88.925781 21.3125 88.925781 Z M 83.390625 91.292969 L 81.914062 91.292969 C 81.914062 91.292969 81.523438 91.402344 81.523438 90.902344 L 81.523438 87.140625 C 81.523438 87.140625 81.457031 86.792969 81.847656 86.792969 L 82.957031 86.792969 C 82.957031 86.792969 83.261719 86.75 83.5 87.25 L 83.652344 87.574219 C 83.652344 87.574219 83.738281 87.945312 84.195312 87.835938 C 84.195312 87.835938 84.632812 87.902344 84.5 87.402344 C 84.371094 86.902344 84.480469 87.335938 84.480469 87.335938 L 83.847656 85.402344 C 83.847656 85.402344 83.804688 85.140625 83.480469 85.140625 L 83.175781 85.121094 C 83.175781 85.121094 82.847656 85.097656 82.914062 85.488281 C 82.914062 85.488281 83 85.902344 82.542969 85.902344 L 81.890625 85.902344 C 81.890625 85.902344 81.542969 85.988281 81.542969 85.359375 L 81.542969 84.25 C 81.542969 84.25 81.480469 83.921875 81.957031 83.921875 L 84.21875 83.921875 C 84.21875 83.921875 84.742188 83.75 85.066406 84.488281 L 85.238281 84.859375 C 85.238281 84.859375 85.238281 85.226562 85.761719 85.117188 C 85.761719 85.117188 86.328125 85.183594 86.152344 84.664062 L 85.742188 83.402344 C 85.742188 83.402344 85.71875 83.117188 85.347656 83.117188 L 78.890625 83.117188 C 78.890625 83.117188 78.523438 83.03125 78.523438 83.445312 L 78.523438 83.664062 C 78.523438 83.664062 78.457031 83.855469 78.890625 83.96875 C 78.890625 83.96875 79.371094 83.988281 79.371094 84.617188 L 79.324219 90.773438 C 79.324219 90.773438 79.324219 91.335938 78.957031 91.445312 C 78.957031 91.445312 78.542969 91.316406 78.523438 91.792969 C 78.523438 91.792969 78.347656 92.1875 78.933594 92.207031 L 85.457031 92.207031 C 85.457031 92.207031 85.699219 92.292969 85.851562 92.011719 L 86.394531 90.707031 C 86.394531 90.707031 86.589844 90.292969 86.175781 90.292969 L 85.761719 90.292969 C 85.761719 90.292969 85.542969 90.230469 85.4375 90.492188 L 85.195312 90.902344 C 85.195312 90.902344 85.152344 91.273438 84.523438 91.292969 Z M 31.421875 91.292969 L 29.945312 91.292969 C 29.945312 91.292969 29.550781 91.402344 29.550781 90.902344 L 29.550781 87.140625 C 29.550781 87.140625 29.488281 86.792969 29.878906 86.792969 L 30.988281 86.792969 C 30.988281 86.792969 31.292969 86.75 31.53125 87.25 L 31.683594 87.574219 C 31.683594 87.574219 31.769531 87.945312 32.226562 87.835938 C 32.226562 87.835938 32.664062 87.902344 32.53125 87.402344 C 32.402344 86.902344 32.511719 87.335938 32.511719 87.335938 L 31.878906 85.402344 C 31.878906 85.402344 31.835938 85.140625 31.511719 85.140625 L 31.207031 85.121094 C 31.207031 85.121094 30.878906 85.097656 30.945312 85.488281 C 30.945312 85.488281 31.03125 85.902344 30.574219 85.902344 L 29.921875 85.902344 C 29.921875 85.902344 29.574219 85.988281 29.574219 85.359375 L 29.574219 84.25 C 29.574219 84.25 29.507812 83.921875 29.988281 83.921875 L 32.25 83.921875 C 32.25 83.921875 32.773438 83.75 33.097656 84.488281 L 33.273438 84.859375 C 33.273438 84.859375 33.273438 85.226562 33.792969 85.117188 C 33.792969 85.117188 34.359375 85.183594 34.183594 84.664062 L 33.773438 83.402344 C 33.773438 83.402344 33.75 83.117188 33.378906 83.117188 L 26.921875 83.117188 C 26.921875 83.117188 26.554688 83.03125 26.554688 83.445312 L 26.554688 83.664062 C 26.554688 83.664062 26.488281 83.855469 26.921875 83.96875 C 26.921875 83.96875 27.402344 83.988281 27.402344 84.617188 L 27.355469 90.773438 C 27.355469 90.773438 27.355469 91.335938 26.988281 91.445312 C 26.988281 91.445312 26.574219 91.316406 26.554688 91.792969 C 26.554688 91.792969 26.378906 92.1875 26.964844 92.207031 L 33.488281 92.207031 C 33.488281 92.207031 33.730469 92.292969 33.882812 92.011719 L 34.425781 90.707031 C 34.425781 90.707031 34.621094 90.292969 34.207031 90.292969 L 33.792969 90.292969 C 33.792969 90.292969 33.574219 90.230469 33.46875 90.492188 L 33.226562 90.902344 C 33.226562 90.902344 33.183594 91.273438 32.554688 91.292969 Z M 49.972656 91.371094 L 48.492188 91.371094 C 48.492188 91.371094 48.101562 91.480469 48.101562 90.976562 L 48.101562 87.21875 C 48.101562 87.21875 48.035156 86.871094 48.425781 86.871094 L 49.535156 86.871094 C 49.535156 86.871094 49.839844 86.824219 50.078125 87.324219 L 50.230469 87.652344 C 50.230469 87.652344 50.320312 88.023438 50.773438 87.914062 C 50.773438 87.914062 51.210938 87.980469 51.078125 87.480469 C 50.949219 86.976562 51.058594 87.414062 51.058594 87.414062 L 50.425781 85.476562 C 50.425781 85.476562 50.382812 85.21875 50.058594 85.21875 L 49.753906 85.195312 C 49.753906 85.195312 49.425781 85.175781 49.492188 85.566406 C 49.492188 85.566406 49.578125 85.980469 49.125 85.980469 L 48.472656 85.980469 C 48.472656 85.980469 48.121094 86.066406 48.121094 85.433594 L 48.121094 84.328125 C 48.121094 84.328125 48.058594 84 48.535156 84 L 50.796875 84 C 50.796875 84 51.320312 83.824219 51.644531 84.566406 L 51.820312 84.933594 C 51.820312 84.933594 51.820312 85.304688 52.339844 85.195312 C 52.339844 85.195312 52.90625 85.261719 52.730469 84.738281 L 52.316406 83.476562 C 52.316406 83.476562 52.296875 83.195312 51.925781 83.195312 L 45.46875 83.195312 C 45.46875 83.195312 45.101562 83.109375 45.101562 83.519531 L 45.101562 83.738281 C 45.101562 83.738281 45.035156 83.933594 45.46875 84.042969 C 45.46875 84.042969 45.949219 84.0625 45.949219 84.695312 L 45.902344 90.847656 C 45.902344 90.847656 45.902344 91.414062 45.535156 91.523438 C 45.535156 91.523438 45.121094 91.390625 45.101562 91.871094 C 45.101562 91.871094 44.925781 92.261719 45.511719 92.285156 L 52.035156 92.285156 C 52.035156 92.285156 52.277344 92.371094 52.429688 92.089844 L 52.972656 90.785156 C 52.972656 90.785156 53.167969 90.371094 52.753906 90.371094 L 52.339844 90.371094 C 52.339844 90.371094 52.125 90.304688 52.015625 90.566406 L 51.777344 90.976562 C 51.777344 90.976562 51.734375 91.347656 51.101562 91.371094 Z M 39.554688 82.921875 C 39.554688 82.921875 35.359375 82.90625 35.054688 87.574219 C 34.742188 92.292969 39.359375 92.359375 39.359375 92.359375 C 39.359375 92.359375 40.925781 92.554688 42.949219 91.183594 C 42.949219 91.183594 43.253906 90.96875 43.273438 90.535156 L 43.359375 89.664062 C 43.359375 89.664062 43.164062 88.945312 43.949219 88.945312 C 43.949219 88.945312 44.230469 88.925781 44.253906 88.597656 L 44.253906 88.445312 C 44.253906 88.445312 44.273438 88.164062 43.773438 88.164062 L 40.46875 88.164062 C 40.46875 88.164062 40.097656 88.097656 40.097656 88.402344 L 40.097656 88.621094 C 40.097656 88.621094 40.078125 88.921875 40.46875 88.921875 C 40.46875 88.921875 41.273438 88.859375 41.273438 89.664062 C 41.273438 89.664062 41.445312 91.578125 39.425781 91.578125 C 37.402344 91.578125 37.445312 89.683594 37.382812 87.25 C 37.316406 84.835938 38.078125 83.664062 39.730469 83.683594 C 41.382812 83.707031 41.949219 85.03125 42.121094 85.335938 C 42.121094 85.335938 42.230469 85.640625 42.621094 85.597656 L 43.035156 85.421875 C 43.035156 85.421875 43.296875 85.488281 43.1875 85.097656 L 42.621094 83.3125 C 42.621094 83.3125 42.617188 82.988281 42.3125 83.054688 C 42.3125 83.054688 42.125 83.03125 42.015625 83.246094 C 42.015625 83.246094 42.085938 83.75 41.273438 83.402344 C 41.273438 83.402344 40.621094 82.921875 39.554688 82.921875 Z M 64.195312 91.75 C 64.195312 91.75 64.242188 91.511719 63.828125 91.492188 L 63.640625 91.480469 C 63.640625 91.480469 63.113281 91.527344 62.632812 90.773438 C 62.632812 90.773438 61.417969 88.472656 60.65625 87.953125 C 60.65625 87.953125 60.417969 87.773438 60.65625 87.683594 C 60.65625 87.683594 61.679688 87.488281 62.289062 86.902344 C 62.289062 86.902344 62.984375 86.621094 62.964844 85.207031 C 62.964844 85.207031 63.117188 83.140625 60.109375 83.117188 L 54.585938 83.117188 L 54.585938 83.121094 L 54.582031 83.117188 C 54.582031 83.117188 54.210938 83.03125 54.210938 83.445312 L 54.210938 83.664062 C 54.210938 83.664062 54.144531 83.859375 54.582031 83.96875 C 54.582031 83.96875 55.058594 83.988281 55.058594 84.621094 L 55.015625 90.773438 C 55.015625 90.773438 55.0625 91.433594 54.558594 91.449219 C 54.558594 91.449219 54.117188 91.398438 54.148438 91.824219 C 54.148438 91.824219 54.003906 92.273438 54.589844 92.292969 L 57.632812 92.292969 C 57.632812 92.292969 58.082031 92.375 58.089844 92.074219 L 58.082031 91.726562 C 58.082031 91.726562 58.101562 91.449219 57.671875 91.449219 C 57.535156 91.410156 57.246094 91.285156 57.210938 90.902344 L 57.210938 88.359375 C 57.210938 88.359375 57.144531 88.011719 57.535156 88.011719 L 57.539062 88 L 58.15625 88.007812 C 58.15625 88.007812 58.929688 87.957031 59.332031 88.726562 L 60.671875 91.25 C 60.671875 91.25 61.109375 92.273438 62.21875 92.292969 L 63.957031 92.292969 C 63.957031 92.292969 64.21875 92.359375 64.21875 91.992188 Z M 59.164062 87.144531 L 57.582031 87.121094 L 57.535156 87.121094 L 57.535156 87.125 C 57.441406 87.121094 57.234375 87.0625 57.234375 86.574219 L 57.234375 84.25 C 57.234375 84.25 57.167969 83.925781 57.640625 83.921875 L 59.460938 83.96875 C 59.460938 83.96875 60.925781 83.972656 60.941406 85.359375 C 60.953125 86.683594 60.230469 87.144531 59.164062 87.144531 Z M 144.914062 91.75 C 144.914062 91.75 144.957031 91.511719 144.542969 91.492188 L 144.359375 91.480469 C 144.359375 91.480469 143.828125 91.527344 143.347656 90.773438 C 143.347656 90.773438 142.136719 88.472656 141.375 87.953125 C 141.375 87.953125 141.136719 87.773438 141.375 87.683594 C 141.375 87.683594 142.394531 87.488281 143.003906 86.902344 C 143.003906 86.902344 143.699219 86.621094 143.679688 85.207031 C 143.679688 85.207031 143.832031 83.140625 140.824219 83.117188 L 135.300781 83.117188 L 135.300781 83.121094 L 135.296875 83.117188 C 135.296875 83.117188 134.925781 83.03125 134.925781 83.445312 L 134.925781 83.664062 C 134.925781 83.664062 134.859375 83.859375 135.296875 83.96875 C 135.296875 83.96875 135.773438 83.988281 135.773438 84.621094 L 135.730469 90.773438 C 135.730469 90.773438 135.78125 91.433594 135.273438 91.449219 C 135.273438 91.449219 134.835938 91.398438 134.867188 91.824219 C 134.867188 91.824219 134.71875 92.273438 135.304688 92.292969 L 138.347656 92.292969 C 138.347656 92.292969 138.796875 92.375 138.804688 92.074219 L 138.796875 91.726562 C 138.796875 91.726562 138.816406 91.449219 138.386719 91.449219 C 138.25 91.410156 137.960938 91.285156 137.925781 90.902344 L 137.925781 88.359375 C 137.925781 88.359375 137.859375 88.011719 138.253906 88.011719 L 138.253906 88 L 138.867188 88.007812 C 138.867188 88.007812 139.644531 87.957031 140.046875 88.726562 L 141.386719 91.25 C 141.386719 91.25 141.824219 92.273438 142.933594 92.292969 L 144.671875 92.292969 C 144.671875 92.292969 144.933594 92.359375 144.933594 91.992188 Z M 139.882812 87.144531 L 138.296875 87.121094 L 138.25 87.121094 L 138.25 87.125 C 138.15625 87.121094 137.949219 87.0625 137.949219 86.574219 L 137.949219 84.25 C 137.949219 84.25 137.886719 83.925781 138.355469 83.921875 L 140.179688 83.96875 C 140.179688 83.96875 141.644531 83.972656 141.65625 85.359375 C 141.671875 86.683594 140.949219 87.144531 139.882812 87.144531 Z M 68.734375 88.402344 C 68.9375 88.402344 69.105469 88.238281 69.105469 88.03125 L 69.105469 87.25 C 69.105469 87.046875 68.9375 86.882812 68.734375 86.882812 L 65.191406 86.882812 C 64.988281 86.882812 64.820312 87.046875 64.820312 87.25 L 64.820312 88.03125 C 64.820312 88.238281 64.988281 88.402344 65.191406 88.402344 Z M 70.753906 83.054688 C 70.753906 83.054688 70.484375 83.074219 70.484375 83.320312 L 70.484375 83.597656 C 70.484375 83.597656 70.441406 83.929688 70.867188 83.855469 C 70.867188 83.855469 71.566406 83.792969 71.566406 84.507812 L 71.566406 90.828125 C 71.566406 90.828125 71.632812 91.300781 71.078125 91.316406 C 71.078125 91.316406 70.722656 91.300781 70.703125 91.578125 L 70.703125 91.945312 C 70.703125 91.945312 70.703125 92.273438 70.996094 92.292969 L 76.867188 92.292969 C 76.867188 92.292969 77.066406 92.386719 77.292969 91.929688 L 77.878906 90.640625 C 77.878906 90.640625 78.027344 90.28125 77.683594 90.28125 L 77.261719 90.28125 C 77.261719 90.28125 77.03125 90.28125 76.949219 90.476562 L 76.738281 90.882812 C 76.738281 90.882812 76.519531 91.382812 75.972656 91.308594 L 74.226562 91.308594 C 74.226562 91.308594 73.714844 91.375 73.707031 90.882812 L 73.707031 84.476562 C 73.707031 84.476562 73.640625 83.890625 74.144531 83.871094 L 74.390625 83.871094 C 74.390625 83.871094 74.628906 83.90625 74.621094 83.5625 L 74.621094 83.335938 C 74.621094 83.335938 74.667969 83.050781 74.308594 83.050781 L 70.753906 83.050781 Z M 119.632812 83.054688 C 119.632812 83.054688 119.363281 83.074219 119.363281 83.320312 L 119.363281 83.597656 C 119.363281 83.597656 119.324219 83.929688 119.746094 83.855469 C 119.746094 83.855469 120.449219 83.792969 120.449219 84.507812 L 120.449219 90.828125 C 120.449219 90.828125 120.515625 91.300781 119.960938 91.316406 C 119.960938 91.316406 119.601562 91.300781 119.585938 91.578125 L 119.585938 91.945312 C 119.585938 91.945312 119.585938 92.273438 119.878906 92.292969 L 125.75 92.292969 C 125.75 92.292969 125.945312 92.386719 126.171875 91.929688 L 126.761719 90.640625 C 126.761719 90.640625 126.90625 90.28125 126.566406 90.28125 L 126.140625 90.28125 C 126.140625 90.28125 125.914062 90.28125 125.832031 90.476562 L 125.621094 90.882812 C 125.621094 90.882812 125.398438 91.382812 124.851562 91.308594 L 123.105469 91.308594 C 123.105469 91.308594 122.59375 91.375 122.585938 90.882812 L 122.585938 84.476562 C 122.585938 84.476562 122.519531 83.890625 123.023438 83.871094 L 123.269531 83.871094 C 123.269531 83.871094 123.507812 83.90625 123.496094 83.5625 L 123.496094 83.335938 C 123.496094 83.335938 123.546875 83.050781 123.1875 83.050781 L 119.632812 83.050781 Z M 93.109375 78.855469 C 93.109375 78.855469 87.304688 78.550781 87.238281 85.707031 C 87.238281 85.707031 86.980469 91.945312 92.980469 92.25 C 92.980469 92.25 94.371094 92.339844 95.613281 91.554688 C 95.613281 91.554688 96.003906 91.382812 96.089844 91.707031 C 96.089844 91.707031 96.15625 92.140625 96.613281 92.101562 C 96.613281 92.101562 97.066406 92.078125 97.113281 91.664062 L 97.917969 89.207031 C 97.917969 89.207031 98.070312 88.796875 97.722656 88.796875 L 97.417969 88.773438 C 97.417969 88.773438 97.175781 88.773438 97.046875 89.078125 C 97.046875 89.078125 96.613281 90.078125 96.089844 90.445312 C 96.089844 90.445312 95.269531 91.417969 93.417969 91.359375 C 93.417969 91.359375 89.9375 91.449219 90.070312 85.707031 C 90.070312 85.707031 89.765625 79.773438 93.523438 79.792969 C 93.523438 79.792969 95.328125 79.664062 96.632812 81.597656 C 96.632812 81.597656 96.789062 81.96875 97.175781 81.96875 L 97.546875 81.96875 C 97.546875 81.96875 97.851562 81.988281 97.742188 81.488281 L 97.15625 79.226562 C 97.15625 79.226562 97.089844 78.945312 96.851562 78.945312 L 96.417969 78.945312 C 96.417969 78.945312 96.222656 79.007812 96.265625 79.25 C 96.265625 79.25 96.328125 79.53125 96.175781 79.617188 C 96.175781 79.617188 96.070312 79.792969 95.765625 79.617188 C 95.765625 79.617188 94.695312 78.898438 93.109375 78.855469 Z M 101.347656 89.398438 L 101.351562 89.425781 Z M 108.09375 87.554688 C 107.984375 82.945312 103.503906 82.960938 103.503906 82.960938 C 103.503906 82.960938 99.023438 82.945312 98.917969 87.554688 C 98.917969 87.554688 98.851562 92.101562 103.503906 92.296875 C 108.15625 92.097656 108.09375 87.554688 108.09375 87.554688 Z M 105.65625 89.488281 C 105.242188 91.753906 103.503906 91.417969 103.503906 91.417969 C 103.503906 91.417969 101.761719 91.75 101.351562 89.488281 C 100.964844 87.375 101.300781 89.15625 101.34375 89.398438 C 101.304688 89.160156 100.992188 87.3125 101.460938 85.140625 C 101.460938 85.140625 101.851562 83.679688 103.503906 83.722656 C 105.15625 83.679688 105.546875 85.140625 105.546875 85.140625 C 106.015625 87.3125 105.703125 89.160156 105.660156 89.398438 C 105.707031 89.15625 106.042969 87.375 105.65625 89.488281 Z M 105.660156 89.398438 L 105.65625 89.425781 Z M 109.351562 83.054688 C 109.351562 83.054688 109.042969 83.058594 109.042969 83.320312 L 109.042969 83.597656 C 109.042969 83.597656 109.027344 83.875 109.433594 83.875 L 109.628906 83.855469 C 109.628906 83.855469 110.039062 83.792969 110.039062 84.476562 L 110.039062 89.125 C 110.039062 89.125 110.199219 92.324219 113.804688 92.339844 C 113.804688 92.339844 117.507812 92.535156 117.390625 89.011719 L 117.390625 84.394531 C 117.390625 84.394531 117.3125 83.855469 117.863281 83.839844 L 118.027344 83.839844 C 118.027344 83.839844 118.238281 83.839844 118.238281 83.597656 L 118.238281 83.351562 C 118.238281 83.351562 118.324219 83.058594 117.996094 83.054688 L 115.828125 83.054688 C 115.828125 83.054688 115.535156 83.042969 115.535156 83.285156 L 115.515625 83.5 C 115.515625 83.5 115.449219 83.839844 115.828125 83.839844 C 115.828125 83.839844 116.414062 83.742188 116.429688 84.527344 L 116.429688 89.042969 C 116.429688 89.042969 116.65625 91.40625 114.523438 91.40625 C 114.523438 91.40625 112.140625 91.816406 112.140625 88.898438 L 112.140625 84.363281 C 112.140625 84.363281 112.207031 83.855469 112.664062 83.839844 L 112.792969 83.839844 C 112.792969 83.839844 113.003906 83.875 113.023438 83.5625 L 113.023438 83.335938 C 113.023438 83.335938 113.085938 83.058594 112.808594 83.054688 Z M 126.167969 83.054688 C 126.167969 83.054688 125.910156 83.042969 125.792969 83.292969 L 125.226562 84.664062 C 125.226562 84.664062 125.085938 84.964844 125.421875 84.964844 L 125.855469 84.964844 C 125.855469 84.964844 126.019531 85.03125 126.191406 84.714844 L 126.507812 84.097656 C 126.507812 84.097656 126.660156 83.878906 126.960938 83.890625 L 128.265625 83.890625 C 128.265625 83.890625 128.648438 83.835938 128.660156 84.367188 L 128.660156 90.945312 C 128.660156 90.945312 128.726562 91.402344 128.453125 91.445312 L 128.105469 91.445312 C 128.105469 91.445312 127.910156 91.46875 127.902344 91.6875 L 127.902344 92.035156 C 127.902344 92.035156 127.851562 92.292969 128.160156 92.292969 L 131.539062 92.292969 C 131.539062 92.292969 131.769531 92.339844 131.769531 92.054688 L 131.769531 91.792969 C 131.769531 91.792969 131.824219 91.46875 131.574219 91.46875 L 131.171875 91.457031 C 131.171875 91.457031 130.75 91.566406 130.792969 90.835938 L 130.792969 84.390625 C 130.792969 84.390625 130.660156 83.890625 131.160156 83.890625 L 132.453125 83.890625 C 132.453125 83.890625 132.707031 83.8125 132.902344 84.160156 L 133.21875 84.703125 C 133.21875 84.703125 133.359375 84.953125 133.640625 84.964844 L 134.054688 84.964844 C 134.054688 84.964844 134.359375 84.964844 134.230469 84.617188 L 133.652344 83.246094 C 133.652344 83.246094 133.632812 83.050781 133.191406 83.050781 L 126.167969 83.050781 Z M 126.167969 83.054688 "/>
</g>
</svg>
