<?xml version="1.0" encoding="UTF-8"?>
<svg xmlns="http://www.w3.org/2000/svg" xmlns:xlink="http://www.w3.org/1999/xlink" width="160px" height="160px" viewBox="0 0 160 160" version="1.1">
<g id="surface1">
<rect x="0" y="0" width="160" height="160" style="fill:rgb(100%,100%,100%);fill-opacity:1;stroke:none;"/>
<path style=" stroke:none;fill-rule:evenodd;fill:rgb(0%,0%,0%);fill-opacity:1;" d="M 7.058594 94.78125 L 7.058594 77.808594 L 12.902344 77.808594 C 13.800781 77.695312 14.589844 77.921875 15.375 78.371094 C 16.050781 78.820312 16.726562 79.382812 17.175781 80.054688 C 17.625 80.84375 17.847656 81.628906 17.847656 82.53125 C 17.847656 83.316406 17.625 84.214844 17.175781 84.890625 C 16.835938 85.5625 16.386719 86.125 15.714844 86.574219 C 15.375 86.800781 15.039062 87.023438 14.589844 87.136719 C 14.140625 87.25 13.578125 87.363281 13.128906 87.363281 L 9.082031 87.363281 L 9.082031 94.78125 Z M 9.082031 85.5625 L 13.015625 85.5625 C 13.578125 85.5625 14.027344 85.339844 14.476562 85.113281 C 14.933594 84.785156 15.316406 84.363281 15.601562 83.878906 C 15.832031 83.425781 15.945312 82.921875 15.9375 82.417969 C 15.824219 81.855469 15.710938 81.40625 15.375 80.957031 C 15.160156 80.515625 14.804688 80.160156 14.363281 79.945312 C 14.027344 79.71875 13.578125 79.605469 13.128906 79.605469 C 13.015625 79.496094 12.902344 79.496094 12.789062 79.496094 L 9.195312 79.496094 Z M 15.375 94.78125 L 22.121094 77.585938 L 23.917969 77.585938 L 31 94.78125 L 28.636719 94.78125 L 26.953125 90.398438 L 19.195312 90.398438 L 17.511719 94.78125 Z M 19.984375 88.597656 L 26.164062 88.597656 L 23.019531 80.84375 Z M 32.457031 94.78125 L 32.457031 79.71875 L 27.402344 79.605469 L 27.402344 77.582031 L 39.878906 77.582031 L 39.765625 79.496094 L 34.59375 79.605469 L 34.59375 94.78125 Z M 41.226562 94.78125 L 41.226562 77.582031 L 50.890625 77.582031 L 49.765625 79.496094 L 43.359375 79.496094 L 43.359375 85.003906 L 49.429688 85.003906 L 49.429688 86.910156 L 43.359375 86.910156 L 43.359375 92.980469 L 49.878906 92.980469 L 51.003906 94.78125 Z M 53.589844 109.726562 L 53.589844 108.378906 L 59.207031 108.378906 L 59.207031 112.875 L 58.195312 113.886719 C 57.746094 114.222656 57.296875 114.558594 56.734375 114.785156 C 56.285156 115.007812 55.722656 115.121094 55.160156 115.234375 C 54.710938 115.347656 54.148438 115.347656 53.585938 115.347656 C 52.800781 115.234375 52.125 115.007812 51.453125 114.785156 C 51.003906 114.5625 50.664062 114.335938 50.328125 113.996094 C 49.902344 113.667969 49.554688 113.246094 49.316406 112.761719 C 48.753906 111.976562 48.417969 111.078125 48.304688 110.066406 L 48.195312 109.054688 C 48.082031 108.347656 48.082031 107.625 48.195312 106.917969 C 48.417969 105.792969 48.753906 104.785156 49.316406 103.882812 C 49.878906 103.210938 50.554688 102.535156 51.339844 102.085938 C 51.566406 101.972656 51.789062 101.859375 52.128906 101.75 C 52.6875 101.523438 53.25 101.523438 53.925781 101.410156 C 54.597656 101.410156 55.386719 101.523438 56.0625 101.75 C 56.734375 101.972656 57.410156 102.421875 57.972656 102.871094 C 58.195312 103.097656 58.308594 103.210938 58.421875 103.433594 L 58.984375 103.996094 L 57.972656 104.785156 L 57.636719 104.558594 C 57.179688 103.992188 56.601562 103.53125 55.949219 103.210938 L 54.9375 102.875 L 53.925781 102.875 C 53.253906 102.875 52.578125 103.097656 51.902344 103.4375 C 51.679688 103.660156 51.339844 103.886719 51.117188 104.109375 C 50.890625 104.445312 50.667969 104.785156 50.554688 105.121094 C 50.328125 105.570312 50.105469 106.019531 49.992188 106.472656 L 49.878906 107.257812 L 49.878906 108.941406 L 49.992188 109.730469 L 50.214844 110.515625 C 50.328125 110.964844 50.441406 111.300781 50.664062 111.75 C 51.003906 112.199219 51.339844 112.648438 51.789062 113.101562 C 52.238281 113.324219 52.574219 113.550781 53.136719 113.660156 C 53.699219 113.886719 54.261719 113.886719 54.824219 113.773438 C 55.386719 113.773438 55.949219 113.550781 56.398438 113.210938 C 56.734375 113.101562 56.960938 112.875 57.183594 112.761719 L 57.523438 112.425781 L 57.523438 109.730469 L 53.589844 109.730469 Z M 52.351562 94.78125 L 52.351562 77.582031 L 54.488281 77.582031 L 54.488281 85.339844 L 61.34375 77.582031 L 64.039062 77.582031 L 58.757812 83.539062 L 64.601562 94.78125 L 62.015625 94.78125 L 57.296875 85.339844 L 54.488281 88.488281 L 54.488281 94.78125 Z M 61.117188 115.121094 L 61.117188 101.859375 L 68.648438 101.859375 L 67.863281 103.324219 L 62.917969 103.324219 L 62.917969 107.480469 L 67.523438 107.480469 L 67.523438 108.941406 L 62.917969 108.941406 L 62.917969 113.660156 L 67.863281 113.660156 L 68.648438 115.121094 Z M 81.234375 67.804688 L 81.011719 67.804688 L 80.898438 67.917969 L 80.785156 68.144531 L 80.785156 68.480469 L 80.898438 68.707031 L 80.898438 68.929688 L 81.125 69.15625 L 81.125 69.378906 L 81.234375 69.605469 L 81.234375 69.714844 L 81.347656 69.941406 L 81.347656 70.277344 L 81.460938 70.277344 L 81.460938 70.617188 L 81.347656 70.839844 L 81.347656 71.289062 L 81.234375 71.402344 L 81.234375 71.515625 L 81.125 71.515625 L 81.125 71.628906 L 81.011719 71.851562 L 80.335938 72.527344 L 80.113281 72.640625 L 79.886719 72.863281 L 79.550781 72.527344 L 79.324219 72.414062 L 79.214844 72.1875 L 79.101562 72.078125 L 78.988281 71.851562 L 78.875 71.738281 L 78.765625 71.515625 L 78.765625 71.402344 L 78.652344 71.179688 L 78.652344 70.839844 L 78.539062 70.617188 L 78.539062 70.390625 L 78.652344 70.277344 L 78.652344 69.828125 L 78.765625 69.714844 L 78.765625 69.492188 L 78.875 69.378906 L 79.101562 68.816406 L 79.214844 68.707031 L 79.214844 68.03125 L 78.988281 67.804688 L 78.765625 67.804688 L 78.652344 67.917969 L 78.425781 67.917969 L 78.3125 68.03125 L 77.640625 68.480469 L 77.527344 68.59375 L 77.300781 68.707031 L 77.191406 68.707031 L 77.078125 68.816406 L 76.851562 68.816406 L 76.742188 68.929688 L 76.066406 68.929688 L 75.953125 68.816406 L 75.730469 68.816406 L 75.503906 68.707031 L 75.390625 68.59375 L 75.28125 68.480469 L 75.054688 68.367188 L 74.941406 68.253906 L 74.832031 68.03125 L 74.71875 67.917969 L 74.71875 67.695312 L 74.605469 67.582031 L 74.605469 66.90625 L 74.71875 66.792969 L 74.71875 66.570312 L 74.832031 66.457031 L 74.832031 66.234375 L 74.941406 66.121094 L 75.054688 66.007812 L 75.054688 65.894531 L 75.167969 65.78125 L 75.28125 65.558594 L 76.292969 64.546875 L 76.964844 63.871094 L 77.078125 63.761719 L 77.191406 63.535156 L 77.300781 63.421875 L 77.414062 63.308594 L 77.414062 63.199219 L 77.640625 62.636719 L 77.753906 62.523438 L 77.753906 62.300781 L 77.863281 62.1875 L 77.976562 62.1875 L 78.089844 62.300781 L 78.203125 62.410156 L 78.203125 62.523438 L 78.3125 62.746094 L 78.3125 62.859375 L 78.203125 63.085938 L 78.203125 63.308594 L 77.191406 65.332031 L 77.191406 65.558594 L 77.078125 65.78125 L 77.078125 66.007812 L 77.191406 66.121094 L 77.191406 66.34375 L 77.300781 66.457031 L 77.527344 66.570312 L 77.640625 66.679688 L 78.539062 66.679688 L 78.765625 66.570312 L 78.875 66.570312 L 79.101562 66.34375 L 79.214844 66.234375 L 79.324219 66.121094 L 79.4375 65.894531 L 79.4375 65.78125 L 79.550781 65.558594 L 79.550781 59.378906 L 73.144531 59.378906 L 73.144531 59.488281 L 72.917969 59.488281 L 72.808594 59.601562 L 72.695312 59.714844 L 72.582031 59.714844 L 72.359375 59.824219 L 72.359375 59.9375 L 72.246094 60.050781 L 72.132812 60.277344 L 72.132812 60.386719 L 72.019531 60.5 L 72.019531 61.175781 L 72.132812 61.398438 L 72.359375 61.625 L 72.359375 61.738281 L 72.582031 61.847656 L 73.480469 61.847656 L 73.59375 61.738281 L 73.707031 61.738281 L 73.820312 61.625 L 74.378906 61.398438 L 74.71875 61.175781 L 74.941406 61.0625 L 75.054688 61.0625 L 75.28125 60.949219 L 75.390625 60.949219 L 75.503906 60.835938 L 76.179688 60.835938 L 76.292969 60.949219 L 76.402344 61.0625 L 76.402344 61.285156 L 76.292969 61.398438 L 75.953125 61.398438 L 75.84375 61.511719 L 75.617188 61.511719 L 75.390625 61.738281 L 74.605469 62.300781 L 73.707031 62.972656 L 73.03125 63.648438 L 72.808594 63.761719 L 72.695312 63.984375 L 72.46875 63.984375 L 72.46875 64.097656 L 72.246094 64.210938 L 72.132812 64.210938 L 71.90625 64.320312 L 70.898438 64.320312 L 70.671875 64.210938 L 70.558594 64.210938 L 70.445312 64.097656 L 70.222656 63.984375 L 70.109375 63.871094 L 69.996094 63.648438 L 69.773438 63.535156 L 69.773438 63.308594 L 69.660156 63.199219 L 69.660156 62.074219 L 69.773438 61.960938 L 69.996094 61.625 L 70.109375 61.511719 L 70.558594 60.835938 L 70.671875 60.726562 L 70.785156 60.5 L 70.785156 60.386719 L 70.898438 60.164062 L 70.785156 60.050781 L 70.785156 59.9375 L 70.671875 59.824219 L 70.558594 59.824219 L 70.445312 59.714844 L 70.222656 59.714844 L 69.996094 59.824219 L 69.886719 59.824219 L 69.324219 60.050781 L 69.210938 60.164062 L 69.097656 60.164062 L 68.984375 60.277344 L 68.761719 60.277344 L 68.648438 60.386719 L 67.972656 60.386719 L 67.863281 60.277344 L 67.523438 60.277344 L 67.300781 60.164062 L 67.1875 60.050781 L 67.074219 60.050781 L 66.964844 59.9375 L 66.851562 59.9375 L 66.738281 59.824219 L 66.511719 59.601562 L 66.289062 59.488281 L 66.289062 59.378906 L 66.0625 59.265625 L 65.839844 58.925781 L 66.738281 58.027344 L 66.851562 58.027344 L 66.964844 57.804688 L 67.1875 57.691406 L 67.410156 57.691406 L 67.523438 57.578125 L 67.75 57.578125 L 67.972656 57.464844 L 68.535156 57.464844 L 68.761719 57.578125 L 68.875 57.578125 L 68.984375 57.691406 L 69.546875 57.914062 L 69.773438 58.027344 L 69.886719 58.140625 L 70.671875 58.140625 L 70.785156 57.914062 L 70.898438 57.914062 L 70.898438 57.578125 L 70.785156 57.464844 L 70.671875 57.242188 L 70.558594 57.015625 L 70.445312 56.902344 L 70.222656 56.453125 L 70.109375 56.339844 L 70.109375 56.230469 L 69.996094 56.117188 L 69.886719 55.890625 L 69.886719 55.667969 L 69.773438 55.441406 L 69.773438 55.105469 L 69.886719 54.882812 L 69.886719 54.65625 L 69.996094 54.542969 L 70.109375 54.320312 L 70.671875 53.757812 L 70.785156 53.757812 L 71.007812 53.644531 L 71.234375 53.644531 L 71.457031 53.53125 L 71.683594 53.53125 L 71.796875 53.644531 L 72.132812 53.644531 L 72.359375 53.757812 L 72.582031 53.757812 L 72.695312 53.871094 L 72.808594 53.871094 L 72.917969 53.984375 L 73.03125 54.09375 L 73.144531 54.207031 L 73.367188 54.320312 L 73.480469 54.542969 L 74.492188 55.441406 L 74.605469 55.667969 L 74.832031 55.890625 L 75.167969 56.117188 L 75.390625 56.339844 L 75.503906 56.339844 L 75.617188 56.453125 L 75.730469 56.453125 L 75.84375 56.566406 L 76.292969 56.566406 L 76.402344 56.679688 L 76.515625 56.792969 L 76.515625 57.015625 L 76.292969 57.128906 L 76.179688 57.242188 L 75.84375 57.242188 L 75.730469 57.128906 L 75.503906 57.128906 L 75.054688 56.902344 L 74.941406 56.902344 L 74.71875 56.792969 L 74.15625 56.453125 L 73.480469 56.117188 L 73.367188 56.117188 L 73.144531 56.003906 L 72.695312 56.003906 L 72.582031 56.117188 L 72.46875 56.117188 L 72.246094 56.230469 L 72.132812 56.339844 L 72.132812 56.453125 L 72.019531 56.679688 L 72.019531 56.792969 L 71.90625 57.015625 L 71.90625 57.351562 L 72.019531 57.578125 L 72.132812 57.691406 L 72.132812 57.914062 L 72.359375 58.027344 L 72.46875 58.140625 L 72.582031 58.253906 L 72.695312 58.253906 L 72.917969 58.363281 L 79.550781 58.363281 L 79.550781 52.070312 L 79.4375 51.957031 L 79.4375 51.734375 L 79.324219 51.621094 L 79.324219 51.507812 L 78.988281 51.171875 L 78.765625 51.058594 L 78.652344 50.945312 L 78.425781 50.945312 L 78.203125 50.835938 L 78.089844 50.835938 L 77.863281 50.945312 L 77.753906 50.945312 L 77.527344 51.058594 L 77.414062 51.058594 L 77.300781 51.171875 L 77.191406 51.398438 L 77.191406 51.507812 L 77.078125 51.734375 L 77.078125 51.847656 L 77.191406 51.957031 L 77.191406 52.296875 L 77.300781 52.410156 L 77.300781 52.519531 L 77.640625 53.417969 L 77.976562 54.09375 L 78.089844 54.320312 L 78.203125 54.542969 L 78.203125 54.992188 L 78.089844 55.21875 L 77.976562 55.332031 L 77.863281 55.441406 L 77.640625 55.21875 L 77.640625 54.769531 L 77.527344 54.65625 L 77.414062 54.429688 L 77.191406 54.09375 L 77.078125 53.871094 L 76.964844 53.757812 L 76.628906 53.417969 L 75.730469 52.410156 L 75.167969 51.734375 L 75.054688 51.507812 L 74.941406 51.285156 L 74.832031 51.171875 L 74.71875 50.945312 L 74.71875 50.609375 L 74.605469 50.496094 L 74.605469 50.046875 L 74.71875 49.824219 L 74.71875 49.710938 L 74.832031 49.484375 L 74.941406 49.375 L 74.941406 49.261719 L 75.167969 49.148438 L 75.28125 48.925781 L 75.390625 48.8125 L 75.503906 48.699219 L 75.730469 48.699219 L 75.84375 48.585938 L 76.179688 48.585938 L 76.402344 48.476562 L 76.515625 48.585938 L 76.851562 48.585938 L 77.078125 48.699219 L 77.191406 48.699219 L 77.300781 48.8125 L 77.640625 49.035156 L 77.976562 49.375 L 78.3125 49.484375 L 78.425781 49.597656 L 78.652344 49.710938 L 78.988281 49.710938 L 79.324219 49.375 L 79.324219 49.148438 L 79.214844 49.035156 L 79.214844 48.8125 L 79.101562 48.699219 L 78.988281 48.476562 L 78.875 48.136719 L 78.652344 47.6875 L 78.652344 47.464844 L 78.539062 47.351562 L 78.539062 46.789062 L 78.652344 46.5625 L 78.652344 46.453125 L 78.765625 46.339844 L 78.765625 46.113281 L 78.875 45.890625 L 79.101562 45.664062 L 79.214844 45.441406 L 79.324219 45.328125 L 80 44.652344 L 80.449219 45.101562 L 80.675781 45.214844 L 80.785156 45.441406 L 80.898438 45.550781 L 81.011719 45.777344 L 81.125 45.890625 L 81.234375 46.113281 L 81.234375 46.226562 L 81.347656 46.339844 L 81.347656 46.453125 L 81.460938 46.675781 L 81.460938 47.464844 L 81.347656 47.6875 L 81.234375 48.136719 L 81.125 48.363281 L 81.125 48.476562 L 80.898438 48.8125 L 80.898438 48.925781 L 80.785156 49.035156 L 80.785156 49.261719 L 80.898438 49.375 L 80.898438 49.597656 L 81.011719 49.710938 L 81.125 49.710938 L 81.347656 49.824219 L 81.460938 49.710938 L 81.683594 49.710938 L 81.796875 49.597656 L 82.023438 49.484375 L 82.136719 49.375 L 82.695312 48.925781 L 82.921875 48.925781 L 83.035156 48.8125 L 83.148438 48.8125 L 83.257812 48.699219 L 84.269531 48.699219 L 84.496094 48.8125 L 84.609375 48.925781 L 84.832031 49.035156 L 85.058594 49.261719 L 85.167969 49.375 L 85.28125 49.484375 L 85.28125 49.710938 L 85.394531 49.824219 L 85.394531 50.046875 L 85.507812 50.273438 L 85.507812 50.386719 L 85.394531 50.609375 L 85.394531 50.945312 L 85.28125 51.058594 L 85.28125 51.171875 L 85.167969 51.398438 L 85.167969 51.507812 L 85.058594 51.621094 L 84.945312 51.734375 L 84.832031 51.957031 L 84.609375 52.183594 L 83.933594 52.859375 L 83.597656 53.308594 L 83.257812 53.644531 L 83.035156 53.871094 L 82.8125 54.09375 L 82.585938 54.542969 L 82.359375 54.769531 L 82.359375 54.992188 L 82.246094 55.105469 L 82.246094 55.21875 L 82.136719 55.332031 L 82.023438 55.332031 L 81.910156 55.21875 L 81.796875 54.992188 L 81.796875 54.542969 L 81.910156 54.429688 L 81.910156 54.320312 L 82.023438 54.207031 L 82.359375 53.308594 L 82.695312 52.632812 L 82.8125 52.519531 L 82.8125 52.296875 L 82.921875 52.183594 L 82.921875 51.507812 L 82.8125 51.398438 L 82.8125 51.285156 L 82.695312 51.171875 L 82.695312 51.058594 L 82.585938 50.945312 L 82.359375 50.945312 L 82.246094 50.835938 L 81.683594 50.835938 L 81.460938 50.945312 L 81.347656 50.945312 L 81.234375 51.058594 L 81.125 51.171875 L 81.011719 51.285156 L 80.785156 51.507812 L 80.675781 51.621094 L 80.675781 51.847656 L 80.5625 51.957031 L 80.5625 58.476562 L 85.84375 58.363281 L 87.082031 58.363281 L 87.191406 58.253906 L 87.304688 58.253906 L 87.53125 58.027344 L 87.644531 57.804688 L 87.753906 57.691406 L 87.867188 57.464844 L 87.980469 57.351562 L 87.980469 56.566406 L 87.867188 56.453125 L 87.867188 56.230469 L 87.753906 56.117188 L 87.644531 56.003906 L 86.742188 56.003906 L 86.632812 56.117188 L 86.519531 56.117188 L 85.621094 56.566406 L 84.832031 56.902344 L 84.71875 56.902344 L 84.496094 57.015625 L 84.382812 57.015625 L 84.160156 57.128906 L 84.046875 57.128906 L 83.820312 57.015625 L 83.707031 57.015625 L 83.597656 56.902344 L 83.597656 56.679688 L 83.707031 56.566406 L 83.933594 56.453125 L 84.160156 56.453125 L 84.382812 56.339844 L 84.496094 56.339844 L 85.058594 55.890625 L 85.84375 55.21875 L 86.742188 54.429688 L 87.417969 53.984375 L 87.644531 53.757812 L 87.867188 53.644531 L 87.980469 53.644531 L 88.203125 53.53125 L 89.105469 53.53125 L 89.214844 53.644531 L 89.441406 53.644531 L 89.667969 53.871094 L 89.890625 53.984375 L 90.003906 54.09375 L 90.113281 54.320312 L 90.226562 54.542969 L 90.226562 54.65625 L 90.339844 54.769531 L 90.339844 55.667969 L 90.226562 55.78125 L 90.226562 55.890625 L 90.113281 56.117188 L 90.003906 56.230469 L 90.003906 56.339844 L 89.554688 56.902344 L 89.441406 57.015625 L 89.441406 57.128906 L 89.328125 57.242188 L 89.214844 57.351562 L 89.214844 57.804688 L 89.328125 57.914062 L 89.554688 58.140625 L 89.890625 58.140625 L 90.003906 58.027344 L 90.113281 58.027344 L 90.5625 57.804688 L 90.675781 57.804688 L 90.902344 57.691406 L 91.011719 57.691406 L 91.128906 57.578125 L 91.464844 57.578125 L 91.6875 57.464844 L 92.140625 57.464844 L 92.25 57.578125 L 92.476562 57.578125 L 92.699219 57.691406 L 92.925781 57.804688 L 93.035156 57.914062 L 93.261719 58.027344 L 93.375 58.140625 L 93.601562 58.253906 L 93.710938 58.363281 L 93.824219 58.589844 L 94.160156 58.925781 L 93.824219 59.378906 L 93.710938 59.488281 L 93.601562 59.601562 L 93.488281 59.714844 L 93.375 59.824219 L 93.152344 59.9375 L 93.035156 60.050781 L 92.8125 60.164062 L 92.699219 60.164062 L 92.476562 60.277344 L 92.140625 60.277344 L 92.023438 60.386719 L 91.6875 60.386719 L 91.574219 60.277344 L 91.128906 60.277344 L 91.011719 60.164062 L 90.789062 60.164062 L 90.675781 60.050781 L 90.5625 60.050781 L 90.453125 59.9375 L 90.113281 59.714844 L 89.441406 59.714844 L 89.328125 59.824219 L 89.214844 59.9375 L 89.105469 60.050781 L 89.105469 60.386719 L 89.214844 60.5 L 89.328125 60.726562 L 89.441406 60.835938 L 89.667969 61.175781 L 89.890625 61.511719 L 90.003906 61.738281 L 90.113281 61.847656 L 90.113281 62.300781 L 90.226562 62.410156 L 90.226562 62.859375 L 90.113281 62.972656 L 90.113281 63.199219 L 90.003906 63.308594 L 90.003906 63.421875 L 89.890625 63.648438 L 89.667969 63.871094 L 89.441406 63.984375 L 89.214844 64.210938 L 88.992188 64.210938 L 88.878906 64.320312 L 87.980469 64.320312 L 87.867188 64.210938 L 87.644531 64.210938 L 87.417969 63.984375 L 87.191406 63.871094 L 87.082031 63.761719 L 86.855469 63.648438 L 85.957031 62.746094 L 85.167969 62.074219 L 84.945312 61.738281 L 84.609375 61.511719 L 84.496094 61.398438 L 83.933594 61.175781 L 83.707031 61.0625 L 83.597656 60.949219 L 83.707031 60.726562 L 83.820312 60.726562 L 83.933594 60.613281 L 84.160156 60.613281 L 84.269531 60.726562 L 84.609375 60.726562 L 84.71875 60.835938 L 84.945312 60.835938 L 85.28125 61.0625 L 86.070312 61.511719 L 86.40625 61.738281 L 86.632812 61.738281 L 86.855469 61.847656 L 87.304688 61.847656 L 87.53125 61.738281 L 87.753906 61.625 L 87.867188 61.511719 L 87.980469 61.285156 L 87.980469 61.175781 L 88.09375 61.0625 L 88.09375 60.726562 L 87.980469 60.613281 L 87.980469 60.386719 L 87.867188 60.277344 L 87.867188 60.050781 L 87.753906 59.9375 L 87.644531 59.824219 L 87.53125 59.714844 L 87.417969 59.601562 L 87.191406 59.601562 L 87.082031 59.488281 L 86.855469 59.488281 L 86.632812 59.378906 L 80.5625 59.378906 L 80.5625 65.332031 L 80.675781 65.671875 L 80.675781 65.894531 L 80.785156 66.007812 L 80.785156 66.121094 L 80.898438 66.234375 L 81.011719 66.34375 L 81.125 66.457031 L 81.234375 66.457031 L 81.347656 66.570312 L 81.460938 66.679688 L 82.472656 66.679688 L 82.585938 66.570312 L 82.695312 66.457031 L 82.8125 66.34375 L 83.035156 66.121094 L 83.035156 65.558594 L 82.921875 65.445312 L 82.921875 65.109375 L 82.8125 64.996094 L 82.585938 64.546875 L 82.246094 63.761719 L 82.023438 63.199219 L 81.910156 62.972656 L 81.910156 62.410156 L 82.023438 62.300781 L 82.136719 62.1875 L 82.246094 62.074219 L 82.472656 62.300781 L 82.472656 62.746094 L 82.585938 62.859375 L 82.585938 62.972656 L 82.8125 63.308594 L 82.921875 63.535156 L 83.148438 63.761719 L 83.257812 63.984375 L 84.046875 64.882812 L 84.71875 65.78125 L 85.058594 66.121094 L 85.167969 66.34375 L 85.167969 66.457031 L 85.28125 66.570312 L 85.28125 66.679688 L 85.394531 66.90625 L 85.394531 67.917969 L 85.28125 68.03125 L 85.28125 68.144531 L 85.167969 68.253906 L 85.058594 68.480469 L 84.832031 68.59375 L 84.609375 68.816406 L 84.382812 68.929688 L 84.269531 68.929688 L 84.046875 69.042969 L 83.371094 69.042969 L 83.257812 68.929688 L 83.148438 68.929688 L 82.921875 68.816406 L 82.8125 68.816406 L 82.695312 68.707031 L 82.585938 68.707031 L 82.359375 68.480469 L 81.683594 68.03125 L 81.574219 67.917969 L 81.460938 67.804688 Z M 70.445312 115.121094 L 70.335938 101.859375 L 72.808594 101.859375 L 78.3125 112.199219 L 78.3125 101.859375 L 80 101.859375 L 80 115.121094 L 77.976562 115.121094 L 72.019531 103.882812 L 72.019531 115.121094 Z M 71.007812 94.890625 L 70.898438 77.808594 L 76.851562 77.808594 C 77.753906 77.808594 78.539062 78.03125 79.324219 78.371094 C 80 78.820312 80.675781 79.382812 81.011719 80.167969 C 81.460938 80.84375 81.6875 81.742188 81.796875 82.527344 C 81.796875 83.425781 81.574219 84.214844 81.125 85.003906 C 80.789062 85.5625 80.335938 86.125 79.664062 86.574219 C 79.324219 86.800781 78.988281 87.023438 78.539062 87.136719 C 78.082031 87.355469 77.582031 87.46875 77.078125 87.476562 L 73.03125 87.476562 L 73.03125 94.890625 Z M 73.03125 85.5625 L 76.964844 85.5625 C 77.414062 85.5625 77.976562 85.449219 78.425781 85.113281 C 78.875 84.890625 79.214844 84.441406 79.4375 83.988281 C 79.664062 83.539062 79.886719 82.976562 79.773438 82.417969 C 79.773438 81.96875 79.664062 81.40625 79.324219 80.957031 C 79.109375 80.515625 78.753906 80.160156 78.3125 79.945312 C 77.976562 79.71875 77.527344 79.605469 77.078125 79.605469 L 73.03125 79.605469 Z M 82.246094 115.121094 L 82.246094 101.859375 L 90.675781 101.859375 L 94.609375 112.761719 L 98.207031 101.859375 L 100.117188 101.859375 L 95.621094 114.898438 L 93.710938 114.898438 L 89.328125 103.324219 L 84.046875 103.324219 L 84.046875 107.367188 L 88.542969 107.367188 L 88.542969 108.941406 L 83.933594 108.941406 L 83.933594 113.660156 L 89.105469 113.660156 L 89.890625 115.121094 Z M 83.148438 94.890625 L 83.148438 77.582031 L 85.28125 77.582031 L 85.28125 84.777344 L 93.035156 84.777344 L 92.925781 77.582031 L 95.058594 77.582031 L 95.058594 94.890625 L 92.925781 94.890625 L 93.035156 86.800781 L 85.28125 86.800781 L 85.28125 94.890625 Z M 97.980469 94.890625 L 97.980469 77.695312 L 100.117188 77.695312 L 100.117188 94.890625 Z M 100.679688 115.121094 L 100.679688 101.859375 L 108.097656 101.859375 L 107.308594 103.324219 L 102.367188 103.324219 L 102.367188 107.367188 L 106.972656 107.367188 L 106.972656 108.828125 L 102.367188 108.828125 L 102.367188 113.546875 L 107.535156 113.546875 L 108.320312 115.007812 Z M 102.589844 94.890625 L 102.480469 77.582031 L 104.726562 77.582031 L 104.726562 92.757812 L 112.257812 92.757812 L 112.257812 94.890625 Z M 113.71875 94.890625 L 113.71875 77.582031 L 115.851562 77.582031 L 115.851562 94.890625 Z M 118.210938 94.890625 L 118.210938 77.582031 L 124.058594 77.582031 C 124.957031 77.582031 125.742188 77.808594 126.53125 78.257812 C 127.257812 78.667969 127.871094 79.246094 128.328125 79.945312 C 128.777344 80.730469 129.003906 81.515625 129.003906 82.417969 C 129.003906 83.203125 128.777344 84.101562 128.4375 84.777344 C 127.988281 85.449219 127.542969 86.015625 126.976562 86.460938 C 126.527344 86.6875 126.191406 86.800781 125.742188 87.023438 C 125.292969 87.136719 124.84375 87.25 124.28125 87.25 L 120.347656 87.25 L 120.347656 94.890625 Z M 120.347656 85.449219 L 124.167969 85.449219 C 124.730469 85.449219 125.179688 85.226562 125.628906 85.003906 C 126.082031 84.664062 126.53125 84.328125 126.753906 83.765625 C 126.972656 83.308594 127.085938 82.808594 127.09375 82.304688 C 127.09375 81.742188 126.867188 81.179688 126.640625 80.730469 C 126.304688 80.394531 125.96875 80.054688 125.628906 79.832031 C 125.179688 79.605469 124.730469 79.496094 124.28125 79.382812 L 120.347656 79.382812 Z M 130.6875 94.890625 L 130.6875 77.582031 L 136.644531 77.582031 C 137.429688 77.582031 138.332031 77.808594 139.003906 78.257812 C 139.730469 78.667969 140.347656 79.246094 140.804688 79.945312 C 141.253906 80.730469 141.476562 81.515625 141.476562 82.417969 C 141.476562 83.203125 141.363281 84.101562 140.914062 84.777344 C 140.578125 85.449219 140.015625 86.015625 139.453125 86.460938 C 139.117188 86.6875 138.667969 86.800781 138.328125 87.023438 C 137.878906 87.136719 137.316406 87.25 136.753906 87.25 L 132.824219 87.25 L 132.824219 94.890625 Z M 132.824219 85.449219 L 136.644531 85.449219 C 137.207031 85.449219 137.769531 85.226562 138.21875 85.003906 C 138.667969 84.664062 139.003906 84.328125 139.230469 83.765625 C 139.449219 83.308594 139.5625 82.808594 139.566406 82.304688 C 139.566406 81.742188 139.453125 81.179688 139.117188 80.730469 C 138.863281 80.347656 138.515625 80.039062 138.105469 79.832031 C 137.714844 79.632812 137.296875 79.480469 136.871094 79.382812 L 132.824219 79.382812 Z M 143.164062 94.890625 L 143.164062 77.582031 L 152.714844 77.582031 L 151.816406 79.496094 L 145.296875 79.496094 L 145.296875 84.777344 L 150.695312 84.777344 L 150.695312 86.6875 L 145.410156 86.6875 L 145.410156 92.757812 L 151.929688 92.757812 L 152.941406 94.890625 Z M 143.164062 94.890625 "/>
</g>
</svg>
