<?xml version="1.0" encoding="UTF-8"?>
<svg xmlns="http://www.w3.org/2000/svg" xmlns:xlink="http://www.w3.org/1999/xlink" width="160px" height="160px" viewBox="0 0 160 28" version="1.1">
<g id="surface1">
<path style=" stroke:none;fill-rule:nonzero;fill:rgb(0%,37.647059%,22.352941%);fill-opacity:1;" d="M 29.332031 25.667969 L 27.609375 20.535156 C 26.824219 18.199219 26.195312 17.265625 24.941406 16.023438 C 24.15625 15.246094 22.902344 14.933594 21.960938 14.621094 C 25.253906 14.15625 27.765625 11.199219 27.765625 7.777344 C 27.765625 4.042969 24.628906 0.933594 20.863281 0.933594 C 20.863281 0.933594 20.707031 0.933594 20.707031 0.933594 L 0.15625 0.933594 L 0.15625 2.957031 L 3.921875 2.957031 L 3.921875 25.667969 L 0 25.667969 L 0 27.6875 L 13.960938 27.6875 L 13.960938 25.667969 L 10.195312 25.667969 L 10.195312 14.777344 L 13.175781 14.777344 C 13.332031 14.777344 13.332031 14.777344 13.488281 14.777344 L 14.117188 14.777344 C 15.058594 14.777344 15.84375 14.933594 16.628906 15.089844 C 17.253906 15.246094 18.039062 15.554688 18.511719 15.867188 C 19.136719 16.332031 19.921875 16.957031 20.550781 17.890625 C 20.707031 18.199219 20.863281 18.511719 21.019531 18.667969 C 22.117188 20.84375 22.902344 23.800781 23.6875 27.535156 L 32.628906 27.535156 L 32.628906 25.511719 Z M 16.785156 12.753906 L 10.195312 12.753906 L 10.195312 2.957031 L 16.785156 2.957031 C 19.609375 3.109375 21.804688 4.976562 21.804688 7.777344 C 21.804688 10.578125 19.609375 12.601562 16.785156 12.753906 Z M 16.785156 12.753906 "/>
<path style=" stroke:none;fill-rule:nonzero;fill:rgb(0%,37.647059%,22.352941%);fill-opacity:1;" d="M 48.628906 0 C 40.46875 0 34.039062 6.535156 34.039062 14.3125 C 34.039062 22.089844 40.628906 28.621094 48.628906 28.621094 C 56.785156 28.621094 63.214844 22.089844 63.214844 14.3125 C 63.214844 6.535156 56.785156 0 48.628906 0 Z M 54.746094 22.554688 C 54.273438 23.179688 53.648438 23.800781 53.019531 24.265625 C 51.921875 25.042969 50.667969 25.667969 49.410156 25.667969 C 49.097656 25.667969 48.941406 25.667969 48.628906 25.667969 C 48.3125 25.667969 48.15625 25.667969 47.84375 25.667969 C 46.589844 25.667969 45.332031 25.042969 44.234375 24.265625 C 43.609375 23.800781 42.980469 23.179688 42.511719 22.554688 C 40.941406 20.535156 40 17.578125 40 14.3125 C 40 11.199219 40.785156 8.554688 42.195312 6.378906 C 42.980469 4.976562 44.078125 3.890625 45.648438 3.265625 C 45.648438 3.265625 45.804688 3.265625 45.804688 3.109375 C 45.960938 2.957031 46.117188 2.957031 46.429688 2.957031 C 47.058594 2.800781 47.84375 2.644531 48.46875 2.644531 C 49.253906 2.644531 49.882812 2.800781 50.511719 2.957031 C 50.667969 2.957031 50.980469 3.109375 51.136719 3.109375 C 51.136719 3.109375 51.292969 3.109375 51.292969 3.265625 C 52.707031 3.890625 53.960938 4.976562 54.746094 6.378906 C 56.15625 8.398438 56.941406 11.199219 56.941406 14.3125 C 57.253906 17.578125 56.3125 20.535156 54.746094 22.554688 Z M 54.746094 22.554688 "/>
<path style=" stroke:none;fill-rule:nonzero;fill:rgb(0%,37.647059%,22.352941%);fill-opacity:1;" d="M 92.234375 17.265625 L 90.195312 17.265625 L 90.195312 21.3125 C 90.195312 23.800781 88.15625 25.667969 85.648438 25.667969 L 77.019531 25.667969 L 77.019531 2.957031 L 80.941406 2.957031 L 80.941406 0.933594 L 66.824219 0.933594 L 66.824219 2.957031 L 70.746094 2.957031 L 70.746094 25.667969 L 66.824219 25.667969 L 66.824219 27.6875 L 92.234375 27.6875 Z M 92.234375 17.265625 "/>
<path style=" stroke:none;fill-rule:nonzero;fill:rgb(0%,37.647059%,22.352941%);fill-opacity:1;" d="M 123.292969 1.089844 L 96.628906 1.089844 L 96.628906 3.109375 L 100.550781 3.109375 L 100.550781 25.820312 L 96.628906 25.820312 L 96.628906 27.84375 L 123.449219 27.84375 L 123.449219 18.355469 L 121.410156 18.355469 L 121.410156 21.464844 C 121.410156 23.957031 119.371094 25.820312 116.863281 25.820312 L 106.667969 25.820312 L 106.667969 14.464844 L 109.960938 14.464844 C 111.84375 14.464844 113.253906 16.023438 113.253906 17.734375 L 113.253906 19.289062 L 115.136719 19.289062 L 115.136719 8.089844 L 113.253906 8.089844 L 113.253906 9.332031 C 113.253906 11.199219 111.84375 12.445312 109.960938 12.445312 L 106.667969 12.445312 L 106.667969 2.800781 L 112.628906 2.800781 C 112.628906 2.800781 112.628906 2.800781 112.785156 2.800781 L 116.863281 2.800781 C 119.371094 2.800781 121.253906 4.820312 121.410156 7.15625 L 121.410156 9.957031 L 123.449219 9.957031 L 123.449219 7.3125 Z M 123.292969 1.089844 "/>
<path style=" stroke:none;fill-rule:nonzero;fill:rgb(0%,37.647059%,22.352941%);fill-opacity:1;" d="M 158.273438 25.820312 C 156.390625 25.820312 155.921875 25.199219 154.351562 23.488281 L 145.410156 12.445312 L 151.371094 5.445312 C 152.941406 3.578125 153.410156 2.957031 155.449219 2.957031 L 157.019531 2.957031 L 157.019531 0.933594 L 146.039062 0.933594 L 146.039062 2.957031 L 148.550781 2.957031 C 149.019531 2.957031 149.488281 3.421875 149.488281 3.890625 C 149.488281 4.042969 149.488281 4.199219 149.332031 4.355469 L 144.15625 10.578125 L 139.765625 5.601562 L 138.980469 4.511719 C 138.824219 4.355469 138.824219 4.199219 138.824219 3.890625 C 138.824219 3.421875 139.292969 2.957031 139.765625 2.957031 L 142.117188 2.957031 L 142.117188 0.933594 L 128.46875 0.933594 L 128.46875 2.957031 L 129.097656 2.957031 C 130.824219 3.109375 131.292969 3.578125 132.707031 5.132812 L 140.550781 14.933594 L 133.488281 23.332031 C 131.921875 25.199219 131.449219 25.820312 129.410156 25.820312 L 127.6875 25.820312 L 127.6875 27.84375 L 139.449219 27.84375 L 139.449219 25.820312 L 136.46875 25.820312 C 136 25.820312 135.53125 25.355469 135.53125 24.890625 C 135.53125 24.734375 135.6875 24.421875 135.6875 24.265625 L 141.960938 16.800781 L 147.136719 23.332031 L 147.921875 24.265625 C 148.078125 24.421875 148.078125 24.578125 148.078125 24.890625 C 148.078125 25.355469 147.609375 25.820312 147.136719 25.820312 L 144.628906 25.820312 L 144.628906 27.84375 L 159.214844 27.84375 L 159.214844 25.820312 Z M 158.273438 25.820312 "/>
</g>
</svg>
