<?xml version="1.0" encoding="UTF-8"?>
<svg xmlns="http://www.w3.org/2000/svg" xmlns:xlink="http://www.w3.org/1999/xlink" width="160px" height="160px" viewBox="0 0 160 160" version="1.1">
<g id="surface1">
<rect x="0" y="0" width="160" height="160" style="fill:rgb(100%,100%,100%);fill-opacity:1;stroke:none;"/>
<path style=" stroke:none;fill-rule:evenodd;fill:rgb(0%,0%,0%);fill-opacity:1;" d="M 16.890625 111.953125 L 16.890625 96.117188 L 23.886719 96.117188 L 23.886719 92.433594 L 4.933594 92.433594 L 4.933594 96.117188 L 11.925781 96.117188 L 11.925781 111.953125 Z M 63.617188 111.753906 C 59.808594 112.609375 54.910156 112.863281 51.371094 111.234375 C 48.351562 109.910156 46.492188 106.757812 46.105469 103.671875 C 45.703125 99.882812 47.128906 96.5625 50.164062 94.328125 C 53.703125 91.796875 59.320312 91.882812 63.179688 93.640625 L 63.179688 97.5 C 60.261719 96.15625 55.867188 95.367188 53.066406 97.5 C 51.054688 99.042969 50.433594 101.492188 50.9375 103.941406 C 51.339844 105.867188 53 107.613281 54.84375 108.25 C 56.152344 108.667969 57.761719 108.804688 59.21875 108.617188 L 59.21875 105.476562 L 57.292969 105.480469 L 57.292969 101.695312 L 63.609375 101.695312 L 63.609375 111.753906 Z M 82.707031 102.929688 L 82.699219 112.011719 L 84.582031 112.011719 L 84.582031 92.582031 L 82.699219 92.582031 L 82.707031 101.421875 L 70.589844 101.421875 L 70.589844 92.582031 L 68.710938 92.582031 L 68.710938 112.011719 L 70.589844 112.011719 L 70.589844 102.929688 Z M 118.714844 107.160156 C 118.714844 107.160156 117.425781 110.890625 113.234375 110.890625 C 109.824219 110.890625 108.734375 108.496094 108.734375 106.085938 L 108.734375 95.183594 L 106.859375 95.183594 L 106.855469 105.683594 C 106.855469 112.046875 111.617188 112.402344 112.9375 112.402344 C 116.941406 112.402344 118.722656 109.476562 118.722656 109.476562 L 118.714844 112 L 120.601562 112 L 120.601562 95.183594 L 118.722656 95.183594 Z M 155.066406 96.851562 C 155.066406 96.851562 153.347656 94.914062 151.203125 94.914062 C 148.328125 94.914062 145.382812 99.394531 145.382812 99.394531 L 145.390625 95.210938 L 143.507812 95.210938 L 143.507812 112.023438 L 145.382812 112.023438 L 145.390625 101.335938 C 145.390625 101.335938 148.054688 96.710938 150.601562 96.710938 C 152.347656 96.710938 154.058594 98.578125 154.058594 98.578125 Z M 29.652344 108.25 L 28.152344 112.070312 L 22.921875 112.070312 L 30.886719 92.601562 L 36.5625 92.601562 L 45.183594 112.070312 L 39.949219 112.070312 L 38.355469 108.25 Z M 36.847656 104.710938 L 33.820312 97.429688 L 31.019531 104.710938 Z M 90.160156 102.945312 C 90.144531 103.140625 90.140625 103.324219 90.140625 103.523438 C 90.140625 107.628906 92.839844 110.699219 96.839844 110.699219 C 100.445312 110.699219 103.058594 108.1875 103.058594 108.1875 L 103.058594 110.132812 C 103.058594 110.132812 100.632812 112.367188 96.628906 112.367188 C 90.550781 112.367188 88.148438 107.191406 88.148438 103.542969 C 88.148438 98.777344 91.246094 94.847656 95.742188 94.847656 C 100.832031 94.847656 103.378906 98.792969 103.378906 102.945312 Z M 90.394531 101.410156 L 101.164062 101.410156 C 101.164062 101.410156 100.8125 96.5625 95.734375 96.5625 C 92.867188 96.5625 91.019531 98.691406 90.394531 101.410156 Z M 126.550781 102.945312 C 126.539062 103.136719 126.535156 103.328125 126.535156 103.523438 C 126.535156 107.628906 129.234375 110.699219 133.230469 110.699219 C 136.835938 110.699219 139.453125 108.1875 139.453125 108.1875 L 139.453125 110.132812 C 139.453125 110.132812 137.027344 112.367188 133.019531 112.367188 C 126.941406 112.367188 124.539062 107.191406 124.539062 103.542969 C 124.539062 98.777344 127.636719 94.847656 132.136719 94.847656 C 137.226562 94.847656 139.769531 98.792969 139.769531 102.945312 Z M 126.785156 101.410156 L 137.558594 101.410156 C 137.558594 101.410156 137.203125 96.5625 132.128906 96.5625 C 129.261719 96.5625 127.410156 98.691406 126.785156 101.410156 Z M 80.066406 84.515625 L 59.863281 73.539062 L 59.863281 42.707031 L 100.257812 42.707031 L 100.257812 73.542969 Z M 80.066406 84.515625 "/>
<path style=" stroke:none;fill-rule:evenodd;fill:rgb(100%,100%,100%);fill-opacity:1;" d="M 80.074219 83.121094 L 61.113281 72.71875 L 61.113281 43.992188 L 99.003906 44.003906 L 99.003906 72.726562 Z M 80.074219 83.121094 "/>
<path style="fill:none;stroke-width:0.549;stroke-linecap:butt;stroke-linejoin:miter;stroke:rgb(0%,0%,0%);stroke-opacity:1;stroke-miterlimit:2.613;" d="M 75.855321 86.316664 L 96.462707 97.610961 L 117.041857 86.32137 L 117.041857 76.311799 L 75.850615 76.311799 Z M 117.037151 75.229429 L 117.037151 55.229112 L 75.850615 55.233818 L 75.850615 75.229429 Z M 117.037151 75.229429 " transform="matrix(0.830065,0,0,0.830065,0,0)"/>
<path style=" stroke:none;fill-rule:evenodd;fill:rgb(0%,0%,0%);fill-opacity:1;" d="M 75.324219 75.300781 L 75.324219 76.496094 L 71.910156 74.625 L 71.910156 64.894531 L 75.324219 64.894531 L 75.324219 65.960938 L 72.921875 65.960938 L 72.921875 68.558594 L 75.328125 69.085938 L 75.328125 70.140625 L 72.921875 69.621094 L 72.921875 74.066406 Z M 66.136719 68.144531 L 66.136719 71.527344 L 65.117188 70.972656 L 65.113281 64.894531 L 66.136719 64.894531 L 66.136719 67.082031 L 68.875 67.667969 L 68.875 64.894531 L 69.894531 64.894531 L 69.894531 73.535156 L 68.875 72.984375 L 68.875 68.742188 Z M 84.8125 76.496094 L 84.8125 64.894531 L 88.242188 64.894531 L 88.242188 65.960938 L 85.839844 65.960938 L 85.839844 69.128906 L 88.246094 68.632812 L 88.246094 69.695312 L 85.839844 70.230469 L 85.839844 74.769531 L 88.242188 73.589844 L 88.242188 74.625 Z M 77.351562 77.550781 L 77.351562 64.894531 L 78.578125 64.894531 L 78.582031 76.738281 L 80.070312 77.492188 L 81.558594 76.78125 L 81.558594 64.894531 L 82.789062 64.894531 L 82.789062 77.554688 L 80.070312 79.023438 Z M 93.492188 68.605469 L 94.613281 68.359375 C 94.964844 68.269531 95.011719 68.125 95.007812 67.746094 L 95.007812 65.261719 C 94.96875 65.03125 94.789062 64.867188 94.476562 64.890625 L 90.242188 64.890625 L 90.242188 73.539062 L 91.285156 72.976562 L 91.285156 69.070312 L 92.261719 68.859375 L 94.714844 71.128906 L 95.652344 70.621094 Z M 91.28125 67.996094 L 91.28125 65.972656 L 93.867188 65.972656 C 93.949219 65.964844 93.992188 66.03125 93.992188 66.101562 L 93.988281 67.34375 C 93.992188 67.429688 93.945312 67.445312 93.875 67.453125 Z M 92.179688 53.808594 L 85.894531 53.808594 L 85.894531 53.242188 L 89.820312 50.074219 L 84.707031 46.449219 L 84.726562 48.332031 C 83.933594 48.417969 83.164062 48.644531 82.449219 49.003906 L 82.449219 48.359375 L 78.726562 48.359375 L 77.296875 50.445312 L 77.296875 48.394531 L 68.304688 48.394531 L 68.304688 52.089844 L 70.578125 52.089844 L 70.578125 60.039062 L 69.667969 61.53125 L 74.503906 61.53125 L 75.636719 59.878906 L 78.527344 59.878906 L 78.527344 61.53125 L 82.453125 61.53125 L 82.453125 61.078125 C 83.71875 61.925781 85.492188 61.824219 85.492188 61.824219 C 89.25 61.824219 92.296875 58.792969 92.296875 55.054688 C 92.296875 54.636719 92.257812 54.21875 92.179688 53.808594 Z M 74.785156 54.054688 L 74.785156 52.089844 L 76.128906 52.089844 Z M 78.144531 56.265625 L 78.710938 55.433594 C 78.710938 55.433594 78.710938 55.824219 78.800781 56.265625 Z M 83.035156 56.714844 L 84.300781 57.757812 C 83.789062 57.535156 83.351562 57.171875 83.035156 56.714844 Z M 84.726562 52.992188 L 82.566406 54.742188 C 82.566406 54.742188 82.707031 52.851562 84.726562 52.25 Z M 85.894531 57.960938 L 85.894531 57.378906 L 87.21875 57.378906 C 86.632812 57.820312 85.894531 57.960938 85.894531 57.960938 Z M 85.894531 57.960938 "/>
<path style=" stroke:none;fill-rule:evenodd;fill:rgb(100%,100%,100%);fill-opacity:1;" d="M 79.019531 56.96875 L 76.777344 56.96875 L 78.820312 54.027344 C 79.097656 52.128906 80.164062 50.4375 81.753906 49.367188 L 81.753906 49.039062 L 79.125 49.039062 L 74.078125 56.304688 L 74.078125 51.402344 L 76.625 51.402344 L 76.625 49.039062 L 69 49.039062 L 69 51.402344 L 71.3125 51.402344 L 71.3125 60.238281 L 70.949219 60.8125 L 74.113281 60.8125 L 75.269531 59.160156 L 79.226562 59.160156 L 79.226562 60.835938 L 81.753906 60.835938 L 81.753906 60.699219 C 80.4375 59.8125 79.46875 58.492188 79.019531 56.96875 Z M 79.019531 56.96875 "/>
<path style=" stroke:none;fill-rule:evenodd;fill:rgb(100%,100%,100%);fill-opacity:1;" d="M 85.28125 53.460938 L 85.28125 54.484375 L 91.613281 54.484375 C 91.628906 54.652344 91.636719 54.84375 91.636719 55.011719 C 91.597656 58.335938 88.894531 61.007812 85.570312 61.007812 C 82.25 61.007812 79.546875 58.335938 79.507812 55.011719 C 79.507812 51.664062 82.167969 48.957031 85.515625 48.957031 L 85.515625 47.78125 L 88.742188 50.070312 L 85.515625 52.65625 L 85.515625 51.417969 C 83.507812 51.417969 81.933594 53.003906 81.933594 55.011719 C 81.933594 57.023438 83.5625 58.652344 85.570312 58.652344 C 86.992188 58.652344 88.21875 57.785156 88.820312 56.601562 L 85.28125 56.597656 L 85.28125 57.636719 L 82.742188 55.550781 Z M 85.28125 53.460938 "/>
</g>
</svg>
