<?xml version="1.0" encoding="UTF-8"?>
<svg xmlns="http://www.w3.org/2000/svg" xmlns:xlink="http://www.w3.org/1999/xlink" width="160px" height="160px" viewBox="0 0 160 160" version="1.1">
<g id="surface1">
<rect x="0" y="0" width="160" height="160" style="fill:rgb(100%,100%,100%);fill-opacity:1;stroke:none;"/>
<path style=" stroke:none;fill-rule:evenodd;fill:rgb(0%,0%,0%);fill-opacity:1;" d="M 67.203125 42.066406 L 55.648438 42.066406 L 55.648438 63.882812 L 78.21875 63.882812 L 78.21875 42.066406 Z M 67.203125 60.859375 L 64.664062 60.859375 L 64.664062 49.355469 L 59.644531 49.355469 L 59.644531 45.035156 L 74.816406 45.035156 L 74.816406 49.355469 L 69.039062 49.355469 L 69.039062 60.859375 Z M 93.011719 42.066406 L 81.726562 42.066406 L 81.726562 63.882812 L 104.296875 63.882812 L 104.296875 42.066406 Z M 93.011719 60.589844 L 90.476562 60.589844 L 90.476562 55.296875 L 85.238281 55.296875 L 85.238281 50.273438 L 90.476562 50.273438 L 90.476562 44.984375 L 95.550781 44.984375 L 95.550781 50.273438 L 100.84375 50.273438 L 100.84375 55.296875 L 95.550781 55.296875 L 95.550781 60.589844 Z M 88.421875 78.730469 C 88.316406 77.867188 87.777344 77.328125 87.125 77.003906 C 86.476562 76.679688 85.667969 76.570312 84.804688 76.570312 C 82.753906 76.570312 81.886719 77.054688 81.886719 77.976562 C 81.886719 81.699219 97.871094 79.433594 97.871094 88.558594 C 97.871094 94.390625 92.472656 97.253906 84.859375 97.253906 C 77.570312 97.253906 72.816406 93.363281 72.601562 88.828125 L 81.292969 88.828125 C 81.457031 89.691406 81.996094 90.394531 82.753906 90.824219 C 83.507812 91.203125 84.480469 91.421875 85.34375 91.421875 C 87.613281 91.421875 89.125 90.773438 89.125 89.582031 C 89.125 85.75 73.25 88.398438 73.25 78.785156 C 73.25 73.441406 78.324219 70.738281 85.183594 70.738281 C 92.902344 70.738281 96.414062 74.304688 97.0625 78.730469 Z M 129.621094 80.242188 C 129.949219 81.378906 130.109375 82.617188 130.109375 83.808594 C 130.109375 85.210938 129.949219 86.507812 129.621094 87.640625 C 128.003906 93.847656 122.441406 97.253906 115.582031 97.253906 L 115.53125 97.253906 C 106.835938 97.253906 101.003906 92.339844 101.003906 83.75 C 101.003906 75.867188 106.890625 70.738281 115.53125 70.738281 L 115.582031 70.738281 C 123.628906 70.738281 128.21875 75.058594 129.621094 80.242188 Z M 129.621094 78.03125 L 138.855469 78.03125 L 138.855469 96.605469 L 147.929688 96.605469 L 147.929688 78.03125 L 157.648438 78.03125 L 157.648438 71.386719 L 129.191406 71.386719 L 129.191406 78.03125 Z M 115.582031 76.894531 L 115.476562 76.894531 C 111.316406 76.894531 110.128906 80.621094 110.128906 83.808594 C 110.128906 87.046875 111.210938 91.097656 115.53125 91.097656 L 115.582031 91.097656 C 119.472656 91.097656 121.035156 88.019531 121.035156 83.808594 C 121.035156 80.402344 119.527344 76.839844 115.582031 76.894531 Z M 2.351562 71.386719 L 30.808594 71.386719 L 30.808594 78.027344 L 21.144531 78.027344 L 21.144531 96.601562 L 12.074219 96.601562 L 12.074219 78.03125 L 2.351562 78.03125 Z M 33.078125 96.605469 L 33.078125 71.386719 L 42.09375 71.386719 L 42.09375 96.601562 L 33.078125 96.601562 Z M 60.289062 78.730469 C 60.128906 77.867188 59.644531 77.328125 58.996094 77.003906 C 58.347656 76.679688 57.539062 76.570312 56.621094 76.570312 C 54.621094 76.570312 53.757812 77.054688 53.757812 77.976562 C 53.757812 81.699219 69.6875 79.433594 69.6875 88.558594 C 69.6875 94.390625 64.339844 97.253906 56.726562 97.253906 C 49.382812 97.253906 44.578125 93.363281 44.414062 88.828125 L 53.109375 88.828125 C 53.316406 89.675781 53.863281 90.398438 54.621094 90.824219 C 55.429688 91.21875 56.316406 91.421875 57.214844 91.421875 C 59.480469 91.421875 60.992188 90.773438 60.992188 89.582031 C 60.992188 85.75 45.011719 88.398438 45.011719 78.785156 C 45.011719 73.441406 50.085938 70.738281 57.050781 70.738281 C 64.773438 70.738281 68.28125 74.304688 68.929688 78.730469 Z M 90.960938 107.511719 C 90.960938 107.511719 93.175781 106.105469 94.363281 104.703125 L 94.363281 116.527344 L 95.28125 117.121094 L 91.824219 117.121094 L 92.636719 116.527344 L 92.636719 107.242188 C 92.636719 107.242188 92.09375 107.457031 90.960938 107.511719 Z M 101.761719 116.636719 C 101.8125 116.636719 103.542969 116.476562 103.542969 114.371094 C 103.542969 112.75 102.570312 111.992188 101.761719 111.777344 C 101.546875 111.722656 101.382812 111.671875 101.222656 111.671875 C 101.222656 111.671875 99.441406 111.886719 99.441406 114.261719 C 99.4375 116.636719 101.761719 116.636719 101.761719 116.636719 Z M 101.761719 109.996094 C 101.921875 110.105469 102.085938 110.15625 102.191406 110.210938 C 102.894531 110.425781 103.757812 108.753906 103.757812 107.621094 C 103.757812 106.539062 102.949219 105.40625 101.816406 105.40625 L 101.761719 105.40625 C 101.007812 105.457031 99.765625 105.785156 99.765625 107.242188 C 99.765625 108.484375 100.949219 109.5625 101.761719 109.996094 Z M 101.761719 104.488281 C 102.246094 104.539062 105.214844 104.917969 105.214844 107.347656 C 105.214844 110.046875 103.328125 110.535156 103.328125 110.535156 C 103.328125 110.535156 105.378906 111.398438 105.488281 113.9375 C 105.539062 116.851562 102.625 117.5 101.816406 117.5 L 101.761719 117.5 C 100.898438 117.5 97.765625 116.960938 97.765625 114.585938 C 97.765625 112.152344 99.980469 110.859375 99.980469 110.859375 C 98.089844 109.726562 98.144531 108.160156 98.144531 108.160156 C 98.144531 105.621094 100.304688 104.488281 101.707031 104.488281 Z M 114.773438 104.433594 C 114.773438 104.433594 114.289062 104.703125 113.910156 104.703125 L 109.425781 104.703125 C 109.425781 104.703125 107.808594 108.535156 107.644531 110.320312 C 107.644531 110.320312 108.671875 109.996094 109.320312 109.996094 C 109.96875 109.996094 112.613281 110.046875 112.613281 113.234375 C 112.613281 116.363281 109.375 116.363281 109.375 116.363281 C 109.375 116.363281 107.648438 116.148438 107.164062 115.449219 L 106.621094 116.527344 C 106.621094 116.527344 107.484375 117.339844 109.105469 117.339844 C 110.78125 117.339844 114.128906 116.148438 114.128906 112.046875 C 114.128906 107.996094 109.105469 108.160156 109.105469 108.160156 L 109.96875 106.269531 C 109.96875 106.269531 115.800781 106.863281 114.773438 104.433594 Z M 121.738281 110.265625 C 122.007812 110.480469 123.628906 111.613281 123.628906 113.394531 C 123.628906 114.960938 122.816406 117.230469 119.578125 117.230469 C 119.578125 117.230469 117.527344 116.90625 116.664062 116.476562 L 117.363281 115.234375 C 117.363281 115.234375 118.390625 116.421875 119.578125 116.421875 C 120.820312 116.421875 122.0625 115.664062 122.0625 113.9375 C 122.0625 112.210938 120.117188 111.347656 119.203125 111.347656 C 118.285156 111.347656 118.230469 111.453125 117.90625 111.671875 L 117.90625 110.375 C 117.90625 110.375 118.605469 109.726562 120.226562 109.617188 C 121.847656 109.457031 121.738281 107.835938 121.738281 107.78125 C 121.738281 107.675781 121.6875 105.730469 119.957031 105.730469 C 118.230469 105.730469 117.851562 106.917969 117.691406 107.132812 L 117.691406 105.351562 C 117.691406 105.351562 118.605469 104.433594 120.066406 104.433594 C 120.820312 104.433594 123.359375 104.8125 123.359375 107.566406 C 123.359375 107.566406 123.359375 109.402344 121.632812 110.210938 Z M 53.378906 106.648438 C 53.273438 106.972656 53.273438 107.078125 53.21875 107.078125 C 53.164062 107.078125 53.164062 107.078125 53.109375 106.972656 C 52.675781 105.515625 51.652344 104.273438 49.601562 104.273438 C 48.25 104.273438 46.46875 104.648438 46.46875 106.753906 C 46.46875 109.292969 48.359375 109.183594 50.949219 109.617188 C 53.917969 110.15625 54.351562 111.828125 54.351562 113.179688 C 54.351562 116.851562 51.328125 117.933594 48.898438 117.933594 C 46.953125 117.933594 45.875 117.5 44.039062 116.691406 L 44.578125 114.207031 C 44.6875 113.828125 44.6875 113.773438 44.742188 113.773438 C 44.847656 113.773438 44.847656 113.882812 44.902344 114.042969 C 45.117188 116.097656 47.277344 117.390625 48.789062 117.390625 C 50.410156 117.390625 52.515625 116.851562 52.515625 114.367188 C 52.515625 112.046875 50.625 112.046875 49.277344 111.777344 C 47.496094 111.507812 44.578125 110.964844 44.578125 107.996094 C 44.578125 104.59375 47.277344 103.785156 49.546875 103.785156 C 51.058594 103.785156 52.460938 104 53.8125 104.648438 Z M 59.15625 117.5 C 59.105469 117.609375 59.050781 117.71875 58.941406 117.71875 C 58.886719 117.71875 58.78125 117.554688 58.617188 117.230469 L 56.1875 110.914062 C 56.078125 110.535156 55.808594 109.941406 55.488281 109.726562 C 55.433594 109.671875 55.378906 109.671875 55.378906 109.671875 C 55.378906 109.5625 55.488281 109.5625 55.59375 109.5625 C 55.972656 109.5625 56.078125 109.617188 56.726562 109.617188 C 57.320312 109.617188 57.429688 109.5625 57.863281 109.5625 C 57.96875 109.5625 58.023438 109.5625 58.023438 109.617188 C 58.023438 109.726562 57.917969 109.726562 57.808594 109.78125 C 57.644531 109.886719 57.484375 110.046875 57.484375 110.320312 C 57.484375 110.644531 57.644531 111.074219 57.753906 111.34375 L 59.425781 115.5 L 61.265625 109.886719 C 61.425781 109.5625 61.480469 109.402344 61.535156 109.402344 L 61.585938 109.402344 C 61.640625 109.402344 61.804688 109.726562 61.910156 109.886719 L 63.964844 115.5 L 65.3125 111.722656 C 65.421875 111.34375 65.476562 111.019531 65.476562 110.804688 C 65.476562 110.320312 65.3125 109.886719 64.878906 109.726562 C 64.828125 109.726562 64.828125 109.726562 64.828125 109.671875 C 64.828125 109.5625 64.878906 109.5625 64.988281 109.5625 C 65.257812 109.5625 65.367188 109.617188 65.90625 109.617188 C 66.339844 109.617188 66.445312 109.5625 66.769531 109.5625 C 66.824219 109.5625 66.878906 109.5625 66.878906 109.617188 L 66.878906 109.777344 C 66.339844 110.316406 65.960938 111.128906 65.636719 111.9375 L 63.585938 117.445312 C 63.53125 117.554688 63.421875 117.714844 63.421875 117.714844 L 63.367188 117.714844 C 63.316406 117.714844 63.261719 117.609375 63.207031 117.445312 L 61.101562 111.5625 Z M 69.039062 111.183594 C 69.039062 110.425781 68.769531 110.371094 68.605469 110.210938 C 68.5 110.15625 68.390625 110.15625 68.390625 110.101562 C 68.390625 110.101562 68.5 110.046875 68.605469 110.046875 C 69.175781 109.929688 69.734375 109.769531 70.28125 109.5625 L 70.28125 115.609375 C 70.28125 116.582031 70.335938 117.230469 70.875 117.390625 C 70.980469 117.390625 71.035156 117.445312 71.035156 117.5 C 71.035156 117.554688 70.929688 117.554688 70.820312 117.554688 C 70.710938 117.554688 70.28125 117.5 69.632812 117.5 C 68.984375 117.5 68.550781 117.554688 68.445312 117.554688 C 68.335938 117.554688 68.226562 117.554688 68.226562 117.5 C 68.226562 117.445312 68.28125 117.390625 68.390625 117.390625 C 68.929688 117.230469 69.039062 116.582031 69.039062 115.609375 Z M 68.824219 107.671875 C 68.824219 107.1875 69.148438 106.808594 69.527344 106.808594 C 69.957031 106.808594 70.28125 107.1875 70.28125 107.671875 C 70.28125 108.160156 69.957031 108.589844 69.527344 108.589844 C 69.148438 108.589844 68.824219 108.160156 68.824219 107.671875 Z M 77.515625 111.128906 C 77.460938 111.238281 77.460938 111.289062 77.410156 111.289062 C 77.355469 111.289062 77.355469 111.289062 77.355469 111.183594 C 77.195312 110.320312 76.382812 109.671875 75.359375 109.671875 C 74.4375 109.671875 73.574219 110.210938 73.574219 111.507812 C 73.574219 112.585938 74.65625 112.804688 75.789062 112.910156 C 77.464844 113.019531 78.21875 113.613281 78.21875 115.070312 C 78.21875 117.230469 76.222656 117.71875 74.871094 117.71875 C 73.902344 117.71875 72.929688 117.554688 72.011719 117.125 L 72.226562 115.882812 C 72.28125 115.71875 72.332031 115.613281 72.332031 115.613281 C 72.390625 115.617188 72.4375 115.660156 72.441406 115.71875 C 72.601562 116.90625 74.117188 117.445312 74.925781 117.445312 C 75.84375 117.445312 77.03125 117.015625 77.03125 115.613281 C 77.03125 114.476562 76.273438 114.316406 74.871094 114.207031 C 73.792969 114.046875 72.386719 113.613281 72.386719 111.941406 C 72.386719 109.890625 74.277344 109.402344 75.574219 109.402344 C 76.277344 109.402344 77.195312 109.671875 77.839844 109.996094 Z M 84.105469 111.128906 C 84.050781 111.238281 84.050781 111.289062 83.996094 111.289062 C 83.941406 111.289062 83.941406 111.289062 83.886719 111.183594 C 83.777344 110.320312 82.96875 109.671875 81.945312 109.671875 C 81.023438 109.671875 80.160156 110.210938 80.160156 111.507812 C 80.160156 112.585938 81.242188 112.804688 82.375 112.910156 C 84.046875 113.019531 84.804688 113.613281 84.804688 115.070312 C 84.804688 117.230469 82.804688 117.71875 81.457031 117.71875 C 80.484375 117.71875 79.566406 117.554688 78.648438 117.125 L 78.867188 115.882812 C 78.917969 115.71875 78.972656 115.613281 78.972656 115.613281 C 79.03125 115.617188 79.078125 115.660156 79.082031 115.71875 C 79.242188 116.90625 80.703125 117.445312 81.511719 117.445312 C 82.429688 117.445312 83.617188 117.015625 83.617188 115.613281 C 83.617188 114.476562 82.859375 114.316406 81.457031 114.207031 C 80.375 114.046875 79.027344 113.613281 79.027344 111.941406 C 79.027344 109.890625 80.808594 109.402344 82.160156 109.402344 C 82.859375 109.402344 83.777344 109.671875 84.425781 109.996094 Z M 84.105469 111.128906 "/>
</g>
</svg>
